<svg id="Layer_1" data-name="Layer 1" xmlns="http://www.w3.org/2000/svg" xmlns:xlink="http://www.w3.org/1999/xlink" width="77.213" height="33"><defs><style>.cls-1{fill:#333}</style><linearGradient id="linear-gradient" x1="59.533" y1="2.653" x2="27.423" y2="34.295" gradientTransform="matrix(1 0 0 -1 0 33)" gradientUnits="userSpaceOnUse"><stop offset="0" stop-color="#ffe500"/><stop offset=".03" stop-color="#fedd00"/><stop offset=".11" stop-color="#fcca00"/><stop offset=".19" stop-color="#fbbf00"/><stop offset=".28" stop-color="#fbbb00"/><stop offset=".67" stop-color="#ef8034"/><stop offset=".89" stop-color="#ea6033"/><stop offset="1" stop-color="#e63430"/></linearGradient><linearGradient id="linear-gradient-2" x1="54.756" y1="-2.2" x2="22.646" y2="29.452" xlink:href="#linear-gradient"/></defs><path class="cls-1" d="M19.965 32.485H2.779a2.865 2.865 0 0 1-2.311-2.052c-.448-1.671.774-3.027 1.538-3.695l1.231-1.108c.516-.458 1.032-.955 1.566-1.384l7.639-6.522 1.136-.955A28.652 28.652 0 0 0 15.8 14.86a6.224 6.224 0 0 0 1.853-4.535 4.011 4.011 0 0 0-1.4-2.97 6.258 6.258 0 0 0-4.669-1.413 9.315 9.315 0 0 0-6.151 3.351 2.305 2.305 0 1 1-3.551-2.94 14.007 14.007 0 0 1 9.28-5 10.741 10.741 0 0 1 8.049 2.464 8.59 8.59 0 0 1 3.055 6.3 10.821 10.821 0 0 1-3.141 7.991 32.663 32.663 0 0 1-2.578 2.254l-1.069.859-7.639 6.51-.181.171h12.307a2.306 2.306 0 1 1 0 4.612z"/><circle class="cls-1" cx="63.628" cy="3.603" r="2.32"/><path d="M44.809 32.476a2.308 2.308 0 1 1-.62-4.574 11.457 11.457 0 0 0 0-22.1 2.3 2.3 0 1 1 1.231-4.395 16.069 16.069 0 0 1 0 30.983 2.294 2.294 0 0 1-.611.086z" fill="url(#linear-gradient)"/><path d="M37.438 32.476a2.28 2.28 0 0 1-.62-.086 16.069 16.069 0 0 1 0-30.983 2.305 2.305 0 0 1 1.241 4.44 11.457 11.457 0 0 0 0 22.1 2.3 2.3 0 0 1-.611 4.526z" fill="url(#linear-gradient-2)"/><path class="cls-1" d="M63.647 32.476a2.3 2.3 0 0 1-2.3-2.3V13.218a2.306 2.306 0 1 1 4.612 0v16.947a2.3 2.3 0 0 1-2.291 2.311zM75.5 3a2.779 2.779 0 1 1-5.558.018A2.745 2.745 0 0 1 72.729.236 2.71 2.71 0 0 1 75.5 3zm-.457 0A2.264 2.264 0 0 0 72.729.668a2.3 2.3 0 0 0-2.337 2.347A2.326 2.326 0 1 0 75.043 3zm-1.511.5l.693 1.061h-.678l-.614-.944h-.7v.944h-.678v-3.1h1.291c.819 0 1.307.425 1.307 1.079a.968.968 0 0 1-.621.96zm-.724-.412c.44 0 .693-.2.693-.55S73.248 2 72.808 2h-.583v1.092z"/></svg>