<?xml version="1.0" encoding="utf-8"?>
<!-- Generator: Adobe Illustrator 23.1.0, SVG Export Plug-In . SVG Version: 6.00 Build 0)  -->
<svg version="1.1" id="Layer_1" xmlns="http://www.w3.org/2000/svg" xmlns:xlink="http://www.w3.org/1999/xlink" x="0px" y="0px"
	 viewBox="0 0 427 136.7" style="enable-background:new 0 0 427 136.7;" xml:space="preserve">
<style type="text/css">
	.st0{fill:#FFFFFF;}
	.st1{fill:#C32126;}
</style>
<g>
	<path class="st0" d="M0,19.1L38.8,0.4V7l-32,15.4l32,15.5v6.6L0,25.7V19.1z"/>
	<path class="st0" d="M67.4,45.1c-3,0-5.8-0.6-8.4-1.8c-2.6-1.2-4.9-2.8-6.8-4.8c-1.9-2-3.5-4.4-4.6-7.2s-1.7-5.7-1.7-8.8
		s0.6-6,1.7-8.8c1.1-2.8,2.7-5.1,4.6-7.2c1.9-2,4.2-3.6,6.8-4.8C61.6,0.6,64.4,0,67.4,0c3.5,0,6.7,0.8,9.6,2.3
		c2.9,1.6,5.4,3.7,7.4,6.4l-6.1,4.8c-1.2-1.7-2.7-3.1-4.5-4.1S70,7.9,67.9,7.9c-1.8,0-3.5,0.4-5.1,1.1c-1.6,0.7-3,1.8-4.2,3.1
		s-2.1,2.9-2.8,4.7s-1,3.7-1,5.7s0.3,3.9,1,5.7c0.7,1.8,1.6,3.4,2.8,4.7c1.2,1.3,2.6,2.4,4.2,3.2c1.6,0.8,3.3,1.2,5.1,1.2
		c2.3,0,4.5-0.6,6.4-1.9c1.9-1.3,3.5-2.9,4.7-5l5.9,5.2c-1.9,2.9-4.4,5.2-7.4,6.9C74.3,44.2,71,45.1,67.4,45.1z"/>
	<path class="st0" d="M149.4,44h-8.7V1h6.9l1.8,3.7c1.1-1.3,2.4-2.3,3.9-3.3c1.5-0.9,3.3-1.4,5.5-1.4c0.8,0,1.8,0.1,2.8,0.3
		s2.1,0.6,3.2,1.1c1.1,0.5,2.2,1.2,3.2,2.1s1.9,2,2.6,3.4c1-1.9,2.6-3.5,4.6-4.8s4.3-2,6.6-2c1.6,0,3.2,0.2,4.9,0.7s3.4,1.4,4.8,2.7
		c1.5,1.3,2.7,3.1,3.7,5.5c1,2.3,1.4,5.4,1.4,9.1v26h-8.2V17.9c0-3.7-0.8-6.3-2.3-7.8s-3.5-2.2-6.1-2.2c-1.9,0-3.6,0.8-5,2.4
		s-2.2,4.2-2.2,7.6v26h-8.2v-26c0-3.7-0.8-6.3-2.3-7.8s-3.5-2.2-6.1-2.2c-1.8,0-3.4,0.7-4.7,2.1s-2.1,3.5-2.4,6.5L149.4,44L149.4,44
		z"/>
	<path class="st1" d="M277.6,35c0.5-0.5,1-1,1.4-1.6s0.6-1.3,0.6-2.1c0-1-0.3-1.8-1-2.4c-0.7-0.7-1.5-1.2-2.5-1.7s-2-0.8-3.1-1
		s-2-0.4-2.7-0.6c-2-0.5-3.8-1.1-5.6-1.8c-1.7-0.7-3.2-1.5-4.5-2.5s-2.3-2.2-3.1-3.5c-0.7-1.3-1.1-2.9-1.1-4.8
		c0-1.7,0.4-3.4,1.2-4.9c0.8-1.5,1.9-2.9,3.3-4c1.4-1.2,3-2.1,4.9-2.8s3.9-1,6-1c1.9,0,3.6,0.3,5.3,0.8c1.7,0.5,3.2,1.3,4.5,2.2
		s2.5,2.1,3.4,3.4s1.5,2.8,1.8,4.4l-7.8,1.9c-0.4-1.4-1.1-2.6-2.3-3.6c-1.2-1-2.8-1.4-4.9-1.4c-0.7,0-1.5,0.1-2.2,0.3
		c-0.8,0.2-1.5,0.5-2.2,0.9s-1.2,0.9-1.7,1.5c-0.4,0.6-0.7,1.3-0.7,2.1s0.3,1.6,0.8,2.1c0.5,0.6,1.1,1.1,1.8,1.5
		c0.7,0.4,1.5,0.7,2.3,0.9c0.8,0.2,1.6,0.4,2.3,0.6c3.2,0.8,5.8,1.6,7.9,2.5s3.8,1.9,5,3c1.3,1.1,2.1,2.3,2.6,3.5s0.8,2.7,0.8,4.3
		c0,1.9-0.4,3.7-1.3,5.4s-2.1,3.1-3.6,4.3s-3.3,2.2-5.5,2.9c-2.1,0.7-4.4,1-6.8,1c-3.7,0-7-0.9-9.9-2.7s-4.8-4.3-5.9-7.3l7.4-3.3
		c1,2.1,2.2,3.5,3.7,4.3c1.5,0.7,3.2,1.1,5.1,1.1C274,37,276,36.3,277.6,35z"/>
	<path class="st1" d="M363.2,45.1c-3,0-5.8-0.6-8.4-1.8s-4.9-2.8-6.8-4.8s-3.5-4.4-4.6-7.2s-1.7-5.7-1.7-8.8s0.6-6,1.7-8.8
		s2.6-5.1,4.6-7.2c1.9-2,4.2-3.6,6.8-4.8c2.6-1.2,5.4-1.8,8.4-1.8c3.5,0,6.7,0.8,9.6,2.3c2.9,1.6,5.4,3.7,7.4,6.4l-6.1,4.8
		c-1.2-1.7-2.7-3.1-4.5-4.1s-3.8-1.5-5.9-1.5c-1.8,0-3.5,0.4-5.1,1.1c-1.6,0.7-3,1.8-4.2,3.1s-2.1,2.9-2.8,4.7c-0.7,1.8-1,3.7-1,5.7
		s0.3,3.9,1,5.7c0.7,1.8,1.6,3.4,2.8,4.7c1.2,1.3,2.6,2.4,4.2,3.2s3.3,1.2,5.1,1.2c2.3,0,4.5-0.6,6.4-1.9c1.9-1.3,3.5-2.9,4.7-5
		l5.9,5.2c-1.9,2.9-4.4,5.2-7.4,6.9C370.1,44.2,366.8,45.1,363.2,45.1z"/>
	<path class="st1" d="M388.3,0.4L427,19.1v6.6l-38.8,18.8v-6.6l32-15.5L388.2,7L388.3,0.4L388.3,0.4z"/>
	<path class="st1" d="M334.9,13.7c-1.1-2.8-2.7-5.1-4.6-7.2c-1.9-2-4.2-3.6-6.9-4.8C320.7,0.6,318,0,315,0s-5.8,0.6-8.4,1.8
		s-4.9,2.8-6.8,4.8s-3.5,4.4-4.6,7.2s-1.7,5.7-1.7,8.8s0.6,6,1.7,8.8s2.7,5.1,4.6,7.2c1.9,2,4.2,3.6,6.8,4.8
		c1.2,0.5,2.4,0.9,3.7,1.2l-0.1,17.3v11c0,14-9.3,25.8-22.1,29.6v-9l-15,10.3l-57.5,0.1v8.4H274l14.1,9.1v-9.8
		c17.5-3.4,30.7-18.8,30.7-37.3V61.8V44.7c1.6-0.3,3.1-0.7,4.6-1.4c2.6-1.2,4.9-2.8,6.9-4.8c1.9-2,3.5-4.4,4.6-7.2s1.7-5.7,1.7-8.8
		C336.6,19.4,336,16.5,334.9,13.7z M326.7,28.2c-0.7,1.8-1.6,3.4-2.7,4.7c-1.1,1.3-2.5,2.4-4.1,3.2s-3.2,1.2-5,1.2
		c-1.7,0-3.4-0.4-5-1.2s-2.9-1.8-4.1-3.2s-2.1-2.9-2.7-4.7c-0.7-1.8-1-3.7-1-5.8c0-2,0.3-4,1-5.8s1.6-3.4,2.7-4.7
		c1.2-1.3,2.5-2.4,4.1-3.2s3.2-1.2,5-1.2c1.7,0,3.4,0.4,5,1.2s2.9,1.8,4.1,3.2s2,2.9,2.7,4.7s1,3.7,1,5.8S327.3,26.4,326.7,28.2z"/>
	<path class="st0" d="M248.5,13.7c-1.1-2.8-2.5-5.1-4.4-7.2c-1.9-2-4.1-3.6-6.6-4.8S232.2,0,229.2,0c-2.8,0-5.4,0.5-7.6,1.4
		c-2.3,1-4.2,2.3-6,4L213.8,1H207v77.4h-46.8l-15-10.3v10.2c-16.2-0.9-29-14.4-29-30.8v-2.9c1.5-0.3,3-0.7,4.4-1.4
		c2.6-1.2,4.9-2.8,6.9-4.8c1.9-2,3.5-4.4,4.6-7.2s1.7-5.7,1.7-8.8s-0.6-6-1.7-8.8c-1.1-2.8-2.7-5.1-4.6-7.2c-1.9-2-4.2-3.6-6.9-4.8
		c-2.6-1.2-5.4-1.8-8.3-1.8c-3,0-5.8,0.6-8.4,1.8s-5,2.9-6.9,5c-1.9,2-3.5,4.4-4.6,7.2s-1.7,5.7-1.7,8.8s0.6,6,1.7,8.8
		s2.7,5.1,4.6,7.2c1.9,2,4.2,3.6,6.8,4.8c1.2,0.5,2.5,0.9,3.8,1.2V49c0,20.8,16.8,37.8,37.6,38v9.1l14.1-9.1H207v49.7h8.6v-24.6
		v-8.4V39.3c1.7,1.9,3.6,3.3,5.9,4.3s4.8,1.5,7.7,1.5c3,0,5.8-0.6,8.3-1.8s4.8-2.8,6.6-4.8c1.9-2,3.3-4.4,4.4-7.2
		c1-2.8,1.6-5.7,1.6-8.8C250,19.4,249.5,16.5,248.5,13.7z M107.2,36.2c-1.6-0.8-2.9-1.8-4.1-3.2s-2.1-2.9-2.7-4.7
		c-0.7-1.8-1-3.7-1-5.8c0-2,0.3-4,1-5.8s1.6-3.4,2.7-4.7c1.2-1.3,2.5-2.4,4.1-3.2c1.6-0.8,3.2-1.2,5-1.2s3.4,0.4,5,1.2
		s2.9,1.8,4.1,3.2c1.1,1.3,2,2.9,2.7,4.7s1,3.7,1,5.8c0,2-0.3,4-1,5.8s-1.6,3.4-2.7,4.7c-1.1,1.4-2.5,2.4-4.1,3.2s-3.2,1.2-5,1.2
		S108.7,36.9,107.2,36.2z M240.2,28.3c-0.7,1.8-1.6,3.4-2.7,4.7c-1.1,1.3-2.5,2.4-4.1,3.2s-3.2,1.2-5,1.2c-1.7,0-3.4-0.3-5-0.8
		s-2.9-1.4-4.1-2.6c-1.2-1.2-2.1-2.7-2.7-4.6s-1-4.2-1-6.9c0-2.5,0.3-4.7,1-6.5s1.6-3.4,2.7-4.6c1.2-1.2,2.5-2.1,4.1-2.7
		c1.6-0.6,3.2-0.9,5-0.9c1.7,0,3.4,0.4,5,1.1s2.9,1.8,4.1,3.1c1.1,1.3,2,2.9,2.7,4.7s1,3.7,1,5.7C241.2,24.6,240.8,26.5,240.2,28.3z
		"/>
</g>
</svg>
