<svg id="Layer_1" data-name="Layer 1" xmlns="http://www.w3.org/2000/svg" viewBox="0 0 300 63.81"><defs><style>.cls-1{fill:#353535;}.cls-2{fill:#fff;}</style></defs><title>Artboard 1</title><rect class="cls-1" x="88.68" y="12.53" width="5.96" height="37.66"/><path class="cls-1" d="M106,37.2a10.68,10.68,0,0,0,1.69,6.41,5.5,5.5,0,0,0,4.71,2.32,5.44,5.44,0,0,0,4.7-2.35q1.68-2.35,1.68-6.89A10.55,10.55,0,0,0,117,30.31a5.82,5.82,0,0,0-9.33,0Q106,32.59,106,37.2m-6-.52a15.64,15.64,0,0,1,1.54-7,11.28,11.28,0,0,1,4.34-4.81,12.22,12.22,0,0,1,6.42-1.68A11.59,11.59,0,0,1,121,26.63a13.59,13.59,0,0,1,3.62,9.17l0,1.4a15.79,15.79,0,0,1-1.51,7A11.14,11.14,0,0,1,118.85,49a12.31,12.31,0,0,1-6.49,1.69,11.5,11.5,0,0,1-9-3.74Q100,43.2,100,37Z"/><path class="cls-1" d="M140.6,45.92a5.38,5.38,0,0,0,3.7-1.3,4.44,4.44,0,0,0,1.57-3.21h5.61A8.74,8.74,0,0,1,149.94,46,10.12,10.12,0,0,1,146,49.43a11.68,11.68,0,0,1-5.34,1.25,11.31,11.31,0,0,1-8.83-3.6q-3.26-3.6-3.26-10v-.61q0-6.06,3.24-9.7a11.21,11.21,0,0,1,8.83-3.64,10.9,10.9,0,0,1,7.71,2.76,9.88,9.88,0,0,1,3.12,7.24h-5.61a5.45,5.45,0,0,0-1.56-3.75A5,5,0,0,0,140.6,28a5.24,5.24,0,0,0-4.46,2.1q-1.57,2.1-1.59,6.36v1q0,4.31,1.56,6.44a5.24,5.24,0,0,0,4.5,2.12"/><path class="cls-1" d="M165.29,45.9a6.78,6.78,0,0,0,3.32-.86A5.72,5.72,0,0,0,171,42.74v-5h-3.21a8.78,8.78,0,0,0-5,1.15,3.73,3.73,0,0,0-1.67,3.26,3.48,3.48,0,0,0,1.14,2.73,4.41,4.41,0,0,0,3.05,1m6.55,4.29a9.17,9.17,0,0,1-.69-2.48,10,10,0,0,1-13.48.69,7.29,7.29,0,0,1-2.52-5.64,7.53,7.53,0,0,1,3.15-6.51q3.15-2.27,9-2.27H171V32.24a4.65,4.65,0,0,0-1.15-3.3,4.57,4.57,0,0,0-3.51-1.24,5.25,5.25,0,0,0-3.33,1,3.15,3.15,0,0,0-1.3,2.59h-6a6.62,6.62,0,0,1,1.45-4.08,9.64,9.64,0,0,1,3.94-3,13.82,13.82,0,0,1,5.55-1.08,11.13,11.13,0,0,1,7.43,2.34,8.35,8.35,0,0,1,2.84,6.58v12a13.55,13.55,0,0,0,1,5.71v.42Z"/><rect class="cls-1" x="183.53" y="12.53" width="5.96" height="37.66"/><path class="cls-1" d="M200.86,23.17A9.26,9.26,0,0,0,194.07,26V30.4a5.63,5.63,0,0,1,4.75-2.35,4.86,4.86,0,0,1,3.49,1.14q1.19,1.14,1.19,3.89V50.19h6V32.86q-.12-9.68-8.61-9.68"/><path class="cls-1" d="M220.32,37.2A10.68,10.68,0,0,0,222,43.61a5.5,5.5,0,0,0,4.71,2.32,5.44,5.44,0,0,0,4.7-2.35q1.68-2.35,1.68-6.89a10.55,10.55,0,0,0-1.73-6.37,5.82,5.82,0,0,0-9.33,0q-1.72,2.32-1.72,6.93m-6-.52a15.64,15.64,0,0,1,1.54-7,11.28,11.28,0,0,1,4.34-4.81,12.22,12.22,0,0,1,6.42-1.68,11.59,11.59,0,0,1,8.72,3.46A13.59,13.59,0,0,1,239,35.8l0,1.4a15.79,15.79,0,0,1-1.51,7A11.14,11.14,0,0,1,233.21,49a12.31,12.31,0,0,1-6.49,1.69,11.5,11.5,0,0,1-9-3.74q-3.37-3.74-3.37-10Z"/><path class="cls-1" d="M258.94,43a2.7,2.7,0,0,0-1.31-2.43,13.93,13.93,0,0,0-4.35-1.47,22.37,22.37,0,0,1-5.07-1.62q-4.46-2.16-4.46-6.25a7.06,7.06,0,0,1,2.89-5.74,11.44,11.44,0,0,1,7.36-2.3,11.9,11.9,0,0,1,7.69,2.35,7.47,7.47,0,0,1,2.93,6.1h-6a3.67,3.67,0,0,0-1.27-2.86A4.89,4.89,0,0,0,254,27.63a5.28,5.28,0,0,0-3.2.91A2.86,2.86,0,0,0,249.55,31a2.41,2.41,0,0,0,1.15,2.13,15.86,15.86,0,0,0,4.66,1.53,22.06,22.06,0,0,1,5.5,1.84,7.78,7.78,0,0,1,3,2.56,6.53,6.53,0,0,1,1,3.63,6.91,6.91,0,0,1-3,5.8,12.65,12.65,0,0,1-7.77,2.22,13.7,13.7,0,0,1-5.81-1.18,9.55,9.55,0,0,1-4-3.24,7.66,7.66,0,0,1-1.42-4.44h5.79a4.2,4.2,0,0,0,1.59,3.25,6.19,6.19,0,0,0,3.9,1.14,6,6,0,0,0,3.58-.9A2.77,2.77,0,0,0,258.94,43"/><path class="cls-1" d="M277.45,17.21v6.45h4.68v4.41h-4.68V42.88a3.25,3.25,0,0,0,.6,2.19,2.78,2.78,0,0,0,2.14.67,9.16,9.16,0,0,0,2.08-.25v4.61a14.68,14.68,0,0,1-3.92.56q-6.86,0-6.86-7.57v-15h-4.36V23.66h4.36V17.21Z"/><path class="cls-1" d="M294.4,58.2H74.15V5.6H294.4ZM0,63.81H300V0H0Z"/><path class="cls-2" d="M64.08,24.48a.49.49,0,0,1,.5.5V42.24a.49.49,0,0,1-.5.5H60.45a.49.49,0,0,1-.5-.5v-6a.45.45,0,0,0-.47-.47H54.41a.5.5,0,0,0-.35.13.44.44,0,0,0-.14.34v6a.44.44,0,0,1-.5.5h-3.6a.44.44,0,0,1-.5-.5V25a.44.44,0,0,1,.5-.5h3.6a.44.44,0,0,1,.5.5v5.84a.44.44,0,0,0,.5.5h5.08a.44.44,0,0,0,.34-.14.5.5,0,0,0,.13-.35V25a.49.49,0,0,1,.5-.5Z"/><path class="cls-2" d="M46.3,38.27a.44.44,0,0,1,.34.14.5.5,0,0,1,.13.35v3.44a.5.5,0,0,1-.13.35.43.43,0,0,1-.34.14H35a.44.44,0,0,1-.5-.5V25a.44.44,0,0,1,.5-.5h3.6a.44.44,0,0,1,.5.5V37.8a.44.44,0,0,0,.14.34.5.5,0,0,0,.35.13Z"/><path class="cls-2" d="M28.56,24.73a3.06,3.06,0,0,1,1.62,1.62,2.91,2.91,0,0,1,.25,1.19v14.7a.49.49,0,0,1-.5.5H26.31a.44.44,0,0,1-.34-.14.5.5,0,0,1-.13-.35V28.92H22.92V42.24a.5.5,0,0,1-.13.35.44.44,0,0,1-.34.14H19.17a.49.49,0,0,1-.5-.5V28.92H15.75V42.24a.44.44,0,0,1-.5.5h-3.6a.44.44,0,0,1-.5-.5V25a.44.44,0,0,1,.5-.5H27.38a2.9,2.9,0,0,1,1.19.25"/></svg>