<?xml version="1.0" encoding="UTF-8" standalone="no"?>
<!-- Generator: Adobe Illustrator 16.0.0, SVG Export Plug-In . SVG Version: 6.00 Build 0)  -->
<svg xmlns:dc="http://purl.org/dc/elements/1.1/" xmlns:cc="http://creativecommons.org/ns#" xmlns:rdf="http://www.w3.org/1999/02/22-rdf-syntax-ns#" xmlns:svg="http://www.w3.org/2000/svg" xmlns="http://www.w3.org/2000/svg" xmlns:sodipodi="http://sodipodi.sourceforge.net/DTD/sodipodi-0.dtd" xmlns:inkscape="http://www.inkscape.org/namespaces/inkscape" version="1.1" id="Layer_1" x="0px" y="0px" width="300px" height="319.156px" viewBox="0 0 300px 319.156" enable-background="new 0 0 300px 319.156" xml:space="preserve" sodipodi:docname="rh-small-light.svg" inkscape:version="0.92.4 (5da689c313, 2019-01-14)"><metadata id="metadata21"><rdf:RDF><cc:Work rdf:about=""><dc:format>image/svg+xml</dc:format><dc:type rdf:resource="http://purl.org/dc/dcmitype/StillImage"/><dc:title/></cc:Work></rdf:RDF></metadata><defs id="defs19"/><sodipodi:namedview pagecolor="#ffffff" bordercolor="#666666" borderopacity="1" objecttolerance="10" gridtolerance="10" guidetolerance="10" inkscape:pageopacity="0" inkscape:pageshadow="2" inkscape:window-width="1920" inkscape:window-height="1027" id="namedview17" showgrid="false" inkscape:zoom="0.73945029" inkscape:cx="-36.625122" inkscape:cy="159.578" inkscape:window-x="1912" inkscape:window-y="-8" inkscape:window-maximized="1" inkscape:current-layer="Layer_1"/>
<g id="g14" style="fill:#ffffff;fill-opacity:1">
	<g id="g12" style="fill:#ffffff;fill-opacity:1">
		<path fill="#EB6824" d="M146.838,15c8.682,0,17.395,2.489,26.243,7.646c27.028,15.757,54.293,31.116,81.223,47.041    c15.797,9.341,23.828,23.731,23.936,42.103c0.188,31.548,0.175,63.099,0.011,94.646c-0.104,19.935-9.189,34.502-26.64,44.347    c-26.881,15.169-53.51,30.78-80.233,46.224c-8.25,4.768-16.496,7.15-24.741,7.15c-8.227,0-16.451-2.371-24.685-7.112    c-28.029-16.137-56.248-31.96-84.029-48.515c-15.09-8.994-22.588-23.129-22.816-40.756c-0.207-16.09-0.043-32.186-0.047-48.277    c-0.002-15.668-0.053-31.336,0.012-47.005c0.082-20.03,9.24-34.571,26.562-44.44c25.713-14.653,51.436-29.303,76.859-44.447    C127.991,17.945,137.396,15,146.838,15 M146.838,0c-11.965,0-24.085,3.605-36.024,10.716    c-24.947,14.861-50.667,29.518-75.54,43.692l-1.07,0.61C11.976,67.684,0.172,87.537,0.069,112.43    c-0.046,11.048-0.033,22.261-0.021,33.104c0.005,4.654,0.01,9.31,0.01,13.964c0.001,4.998-0.014,9.995-0.029,14.991    c-0.032,10.954-0.066,22.28,0.077,33.478c0.147,11.365,2.739,21.686,7.703,30.674c5.137,9.303,12.685,16.965,22.433,22.773    c19.551,11.65,39.586,23.094,58.96,34.16c8.29,4.734,16.861,9.632,25.265,14.469c10.5,6.047,21.324,9.113,32.169,9.113    c10.875,0,21.724-3.083,32.246-9.163c7.362-4.254,14.717-8.521,22.072-12.788c18.988-11.018,38.624-22.409,58.028-33.359    c22.288-12.574,34.139-32.398,34.268-57.33c0.174-33.43,0.171-64.442-0.011-94.813c-0.14-23.906-10.963-42.899-31.3-54.926    c-15.895-9.399-32.134-18.733-47.838-27.761c-10.987-6.316-22.35-12.848-33.465-19.327C169.605,3.26,158.235,0,146.838,0    L146.838,0z" id="path2" style="fill:#ffffff;fill-opacity:1"/>
		<g id="g10" style="fill:#ffffff;fill-opacity:1">
			<path fill="#EB6824" d="M72.166,157.517c-1.758,1.318-1.758,2.783,0,4.102l37.346,30.021c3.367,2.49,3.809,7.176,1.025,10.545     s-7.179,3.66-10.545,0.879l-39.104-31.633c-8.934-7.617-8.934-16.11,0-23.727l39.104-31.634     c3.366-2.782,7.762-2.489,10.545,0.878c2.782,3.369,2.342,8.056-1.025,10.545L72.166,157.517z" id="path4" style="fill:#ffffff;fill-opacity:1"/>
			<path fill="#EB6824" d="M146.707,210.68c-1.758,4.103-6.15,6.004-10.105,4.394c-3.953-1.61-5.713-6.003-4.1-10.104l38.369-96.366     c1.61-4.1,6.006-6.149,9.959-4.539c3.955,1.61,5.858,6.004,4.102,10.105L146.707,210.68z" id="path6" style="fill:#ffffff;fill-opacity:1"/>
			<path fill="#EB6824" d="M200.306,210.68c-1.758,4.103-6.15,6.004-10.104,4.394c-3.953-1.61-5.711-6.003-4.101-10.104     l38.371-96.366c1.609-4.1,6.004-6.149,9.959-4.539c3.953,1.61,5.857,6.004,4.1,10.105L200.306,210.68z" id="path8" style="fill:#ffffff;fill-opacity:1"/>
		</g>
	</g>
</g>
</svg>