<?xml version="1.0" encoding="UTF-8" standalone="no"?>
<svg
   xmlns:dc="http://purl.org/dc/elements/1.1/"
   xmlns:cc="http://creativecommons.org/ns#"
   xmlns:rdf="http://www.w3.org/1999/02/22-rdf-syntax-ns#"
   xmlns:svg="http://www.w3.org/2000/svg"
   xmlns="http://www.w3.org/2000/svg"
   xmlns:sodipodi="http://sodipodi.sourceforge.net/DTD/sodipodi-0.dtd"
   xmlns:inkscape="http://www.inkscape.org/namespaces/inkscape"
   version="1.1"
   id="Layer_1"
   x="0px"
   y="0px"
   width="1086.2313"
   height="319.15601"
   viewBox="0 0 1086.2313 319.156"
   enable-background="new 0 0 1066.696 319.156"
   xml:space="preserve"
   sodipodi:docname="rh-white-montserrat.svg"
   inkscape:version="1.0.1 (3bc2e813f5, 2020-09-07)"><metadata
   id="metadata49"><rdf:RDF><cc:Work
       rdf:about=""><dc:format>image/svg+xml</dc:format><dc:type
         rdf:resource="http://purl.org/dc/dcmitype/StillImage" /><dc:title></dc:title></cc:Work></rdf:RDF></metadata><defs
   id="defs47" /><sodipodi:namedview
   pagecolor="#454545"
   bordercolor="#666666"
   borderopacity="1"
   objecttolerance="10"
   gridtolerance="10"
   guidetolerance="10"
   inkscape:pageopacity="0"
   inkscape:pageshadow="2"
   inkscape:window-width="2560"
   inkscape:window-height="1387"
   id="namedview45"
   showgrid="false"
   inkscape:zoom="0.9768481"
   inkscape:cx="651.88249"
   inkscape:cy="179.20846"
   inkscape:window-x="1912"
   inkscape:window-y="-8"
   inkscape:window-maximized="1"
   inkscape:current-layer="text852"
   inkscape:document-rotation="0"
   showguides="false"
   fit-margin-top="0"
   fit-margin-left="0"
   fit-margin-right="0"
   fit-margin-bottom="0" />
<g
   id="g42"
   style="fill:#ffffff;fill-opacity:1"
   transform="translate(-8.3848414e-4)">
	<g
   id="g12"
   style="fill:#ffffff;fill-opacity:1">
		<path
   fill="#EB6824"
   d="m 146.838,15 c 8.682,0 17.395,2.489 26.243,7.646 27.028,15.757 54.293,31.116 81.223,47.041 15.797,9.341 23.828,23.731 23.936,42.103 0.188,31.548 0.175,63.099 0.011,94.646 -0.104,19.935 -9.189,34.502 -26.64,44.347 -26.881,15.169 -53.51,30.78 -80.233,46.224 -8.25,4.768 -16.496,7.15 -24.741,7.15 -8.227,0 -16.451,-2.371 -24.685,-7.112 C 93.923,280.908 65.704,265.085 37.923,248.53 22.833,239.536 15.335,225.401 15.107,207.774 14.9,191.684 15.064,175.588 15.06,159.497 15.058,143.829 15.007,128.161 15.072,112.492 15.154,92.462 24.312,77.921 41.634,68.052 67.347,53.399 93.07,38.749 118.493,23.605 127.991,17.945 137.396,15 146.838,15 m 0,-15 C 134.873,0 122.753,3.605 110.814,10.716 85.867,25.577 60.147,40.234 35.274,54.408 l -1.07,0.61 C 11.976,67.684 0.172,87.537 0.069,112.43 c -0.046,11.048 -0.033,22.261 -0.021,33.104 0.005,4.654 0.01,9.31 0.01,13.964 10e-4,4.998 -0.014,9.995 -0.029,14.991 -0.032,10.954 -0.066,22.28 0.077,33.478 0.147,11.365 2.739,21.686 7.703,30.674 5.137,9.303 12.685,16.965 22.433,22.773 19.551,11.65 39.586,23.094 58.96,34.16 8.29,4.734 16.861,9.632 25.265,14.469 10.5,6.047 21.324,9.113 32.169,9.113 10.875,0 21.724,-3.083 32.246,-9.163 7.362,-4.254 14.717,-8.521 22.072,-12.788 18.988,-11.018 38.624,-22.409 58.028,-33.359 22.288,-12.574 34.139,-32.398 34.268,-57.33 0.174,-33.43 0.171,-64.442 -0.011,-94.813 -0.14,-23.906 -10.963,-42.899 -31.3,-54.926 C 246.044,47.378 229.805,38.044 214.101,29.016 203.114,22.7 191.751,16.168 180.636,9.689 169.605,3.26 158.235,0 146.838,0 Z"
   id="path2"
   style="fill:#ffffff;fill-opacity:1" />
		<g
   id="g10"
   style="fill:#ffffff;fill-opacity:1">
			<path
   fill="#EB6824"
   d="m 72.166,157.517 c -1.758,1.318 -1.758,2.783 0,4.102 l 37.346,30.021 c 3.367,2.49 3.809,7.176 1.025,10.545 -2.784,3.369 -7.179,3.66 -10.545,0.879 L 60.888,171.431 c -8.934,-7.617 -8.934,-16.11 0,-23.727 L 99.992,116.07 c 3.366,-2.782 7.762,-2.489 10.545,0.878 2.782,3.369 2.342,8.056 -1.025,10.545 z"
   id="path4"
   style="fill:#ffffff;fill-opacity:1" />
			<path
   fill="#EB6824"
   d="m 146.707,210.68 c -1.758,4.103 -6.15,6.004 -10.105,4.394 -3.953,-1.61 -5.713,-6.003 -4.1,-10.104 l 38.369,-96.366 c 1.61,-4.1 6.006,-6.149 9.959,-4.539 3.955,1.61 5.858,6.004 4.102,10.105 z"
   id="path6"
   style="fill:#ffffff;fill-opacity:1" />
			<path
   fill="#EB6824"
   d="m 200.306,210.68 c -1.758,4.103 -6.15,6.004 -10.104,4.394 -3.953,-1.61 -5.711,-6.003 -4.101,-10.104 l 38.371,-96.366 c 1.609,-4.1 6.004,-6.149 9.959,-4.539 3.953,1.61 5.857,6.004 4.1,10.105 z"
   id="path8"
   style="fill:#ffffff;fill-opacity:1" />
		</g>
	</g>
	
</g>
<g
   aria-label="ROYAL
HACKAWAY V5"
   id="text852"
   style="font-style:normal;font-variant:normal;font-weight:normal;font-stretch:normal;font-size:116.722px;line-height:1.25;font-family:mont;-inkscape-font-specification:mont;fill:#ffffff;stroke-width:0.972683"><path
     d="m 415.78119,127.08475 -15.75747,-22.76079 h -0.93378 -16.4578 v 22.76079 H 363.72317 V 45.379347 h 35.36677 q 10.85515,0 18.79224,3.618382 8.05382,3.618382 12.37253,10.271536 4.31872,6.653154 4.31872,15.75747 0,9.104316 -4.43544,15.75747 -4.31871,6.536432 -12.37253,10.038095 l 18.32535,26.26245 z m -0.35017,-52.058015 q 0,-6.886598 -4.43544,-10.50498 -4.43543,-3.735104 -12.95614,-3.735104 h -15.4073 v 28.480168 h 15.4073 q 8.52071,0 12.95614,-3.735104 4.43544,-3.735104 4.43544,-10.50498 z"
     style="font-style:normal;font-variant:normal;font-weight:bold;font-stretch:normal;font-size:116.722px;font-family:Montserrat;-inkscape-font-specification:'Montserrat Bold';fill:#ffffff;stroke-width:0.972683"
     id="path860" /><path
     d="m 489.08245,128.48541 q -12.7227,0 -22.99423,-5.48593 -10.15482,-5.48594 -15.99092,-15.05714 -5.71937,-9.687927 -5.71937,-21.710293 0,-12.022366 5.71937,-21.59357 5.8361,-9.687926 15.99092,-15.17386 10.27153,-5.485934 22.99423,-5.485934 12.7227,0 22.87751,5.485934 10.15482,5.485934 15.99092,15.17386 5.8361,9.571204 5.8361,21.59357 0,12.022366 -5.8361,21.710293 -5.8361,9.5712 -15.99092,15.05714 -10.15481,5.48593 -22.87751,5.48593 z m 0,-16.10763 q 7.23677,0 13.07287,-3.26822 5.8361,-3.38494 9.10431,-9.337761 3.38494,-5.952822 3.38494,-13.539752 0,-7.58693 -3.38494,-13.539752 -3.26821,-5.952822 -9.10431,-9.221038 -5.8361,-3.384938 -13.07287,-3.384938 -7.23676,0 -13.07286,3.384938 -5.8361,3.268216 -9.22104,9.221038 -3.26822,5.952822 -3.26822,13.539752 0,7.58693 3.26822,13.539752 3.38494,5.952821 9.22104,9.337761 5.8361,3.26822 13.07286,3.26822 z"
     style="font-style:normal;font-variant:normal;font-weight:bold;font-stretch:normal;font-size:116.722px;font-family:Montserrat;-inkscape-font-specification:'Montserrat Bold';fill:#ffffff;stroke-width:0.972683"
     id="path862" /><path
     d="M 583.74389,98.137691 V 127.08475 H 564.83493 V 97.904247 l -31.63167,-52.5249 h 20.07619 l 21.82701,36.300542 21.82702,-36.300542 h 18.55879 z"
     style="font-style:normal;font-variant:normal;font-weight:bold;font-stretch:normal;font-size:116.722px;font-family:Montserrat;-inkscape-font-specification:'Montserrat Bold';fill:#ffffff;stroke-width:0.972683"
     id="path864" /><path
     d="m 672.21888,109.57645 h -37.93466 l -7.23676,17.5083 h -19.37585 l 36.41726,-81.705403 h 18.67552 l 36.53399,81.705403 H 679.45564 Z M 666.26605,95.219641 653.30991,63.938145 640.35377,95.219641 Z"
     style="font-style:normal;font-variant:normal;font-weight:bold;font-stretch:normal;font-size:116.722px;font-family:Montserrat;-inkscape-font-specification:'Montserrat Bold';fill:#ffffff;stroke-width:0.972683"
     id="path866" /><path
     d="m 707.81897,45.379347 h 18.90896 v 66.298093 h 40.96942 v 15.40731 h -59.87838 z"
     style="font-style:normal;font-variant:normal;font-weight:bold;font-stretch:normal;font-size:116.722px;font-family:Montserrat;-inkscape-font-specification:'Montserrat Bold';fill:#ffffff;stroke-width:0.972683"
     id="path868" /><path
     d="m 438.6587,192.07126 v 81.7054 h -18.90897 v -33.49921 h -37.11759 v 33.49921 h -18.90897 v -81.7054 h 18.90897 v 32.21527 h 37.11759 v -32.21527 z"
     style="font-style:normal;font-variant:normal;font-weight:bold;font-stretch:normal;font-size:116.722px;font-family:Montserrat;-inkscape-font-specification:'Montserrat Bold';fill:#ffffff;stroke-width:0.972683"
     id="path870" /><path
     d="m 511.84323,256.26836 h -37.93465 l -7.23676,17.5083 h -19.37585 l 36.41726,-81.7054 h 18.67552 l 36.53399,81.7054 H 519.08 Z m -5.95282,-14.3568 -12.95614,-31.2815 -12.95614,31.2815 z"
     style="font-style:normal;font-variant:normal;font-weight:bold;font-stretch:normal;font-size:116.722px;font-family:Montserrat;-inkscape-font-specification:'Montserrat Bold';fill:#ffffff;stroke-width:0.972683"
     id="path872" /><path
     d="m 585.37793,275.17733 q -12.48925,0 -22.64407,-5.36922 -10.03809,-5.48593 -15.87419,-15.05713 -5.71938,-9.68793 -5.71938,-21.82702 0,-12.13909 5.71938,-21.71029 5.8361,-9.68793 15.87419,-15.05714 10.15482,-5.48593 22.76079,-5.48593 10.6217,0 19.14241,3.7351 8.63743,3.73511 14.47353,10.73843 l -12.13909,11.20531 q -8.28726,-9.57121 -20.54307,-9.57121 -7.58693,0 -13.53975,3.38494 -5.95283,3.26822 -9.33776,9.22104 -3.26822,5.95282 -3.26822,13.53975 0,7.58693 3.26822,13.53975 3.38493,5.95283 9.33776,9.33776 5.95282,3.26822 13.53975,3.26822 12.25581,0 20.54307,-9.68793 l 12.13909,11.20532 q -5.8361,7.12004 -14.47353,10.85514 -8.63743,3.73511 -19.25913,3.73511 z"
     style="font-style:normal;font-variant:normal;font-weight:bold;font-stretch:normal;font-size:116.722px;font-family:Montserrat;-inkscape-font-specification:'Montserrat Bold';fill:#ffffff;stroke-width:0.972683"
     id="path874" /><path
     d="m 661.59739,241.67811 -10.97187,11.43876 v 20.65979 h -18.79224 v -81.7054 h 18.79224 v 38.1681 l 36.18382,-38.1681 h 21.00996 l -33.84938,36.41727 35.83366,45.28813 h -22.06046 z"
     style="font-style:normal;font-variant:normal;font-weight:bold;font-stretch:normal;font-size:116.722px;font-family:Montserrat;-inkscape-font-specification:'Montserrat Bold';fill:#ffffff;stroke-width:0.972683"
     id="path876" /><path
     d="M 768.39795,256.26836 H 730.4633 l -7.23676,17.5083 h -19.37585 l 36.41726,-81.7054 h 18.67552 l 36.53399,81.7054 h -19.84274 z m -5.95282,-14.3568 -12.95614,-31.2815 -12.95614,31.2815 z"
     style="font-style:normal;font-variant:normal;font-weight:bold;font-stretch:normal;font-size:116.722px;font-family:Montserrat;-inkscape-font-specification:'Montserrat Bold';fill:#ffffff;stroke-width:0.972683"
     id="path878" /><path
     d="m 923.05447,192.07126 -26.72934,81.7054 H 876.0155 l -17.97519,-55.32623 -18.5588,55.32623 h -20.1929 l -26.84606,-81.7054 h 19.60929 l 18.44208,57.42723 19.25913,-57.42723 h 17.5083 l 18.67552,57.89411 19.02569,-57.89411 z"
     style="font-style:normal;font-variant:normal;font-weight:bold;font-stretch:normal;font-size:116.722px;font-family:Montserrat;-inkscape-font-specification:'Montserrat Bold';fill:#ffffff;stroke-width:0.972683"
     id="path880" /><path
     d="m 984.68344,256.26836 h -37.93465 l -7.23676,17.5083 h -19.37585 l 36.41726,-81.7054 h 18.67552 l 36.53394,81.7054 h -19.84269 z m -5.95282,-14.3568 -12.95614,-31.2815 -12.95614,31.2815 z"
     style="font-style:normal;font-variant:normal;font-weight:bold;font-stretch:normal;font-size:116.722px;font-family:Montserrat;-inkscape-font-specification:'Montserrat Bold';fill:#ffffff;stroke-width:0.972683"
     id="path882" /><path
     d="m 1054.4829,244.82961 v 28.94705 h -18.909 v -29.1805 l -31.6316,-52.5249 h 20.0762 l 21.827,36.30054 21.827,-36.30054 h 18.5588 z"
     style="font-style:normal;font-variant:normal;font-weight:bold;font-stretch:normal;font-size:116.722px;font-family:Montserrat;-inkscape-font-specification:'Montserrat Bold';fill:#ffffff;stroke-width:0.972683"
     id="path884" /></g></svg>
