<?xml version="1.0" encoding="UTF-8" standalone="no"?>
<svg
   version="1.1"
   id="Layer_1"
   x="0px"
   y="0px"
   width="1320"
   height="319.15601"
   viewBox="0 0 1319.9999 319.156"
   enable-background="new 0 0 1066.696 319.156"
   xml:space="preserve"
   sodipodi:docname="rh-white-montserrat-v7.svg"
   inkscape:version="1.2.2 (732a01da63, 2022-12-09)"
   inkscape:export-filename="rh-orange-montserrat.png"
   inkscape:export-xdpi="99.809998"
   inkscape:export-ydpi="99.809998"
   xmlns:inkscape="http://www.inkscape.org/namespaces/inkscape"
   xmlns:sodipodi="http://sodipodi.sourceforge.net/DTD/sodipodi-0.dtd"
   xmlns="http://www.w3.org/2000/svg"
   xmlns:svg="http://www.w3.org/2000/svg"
   xmlns:rdf="http://www.w3.org/1999/02/22-rdf-syntax-ns#"
   xmlns:cc="http://creativecommons.org/ns#"
   xmlns:dc="http://purl.org/dc/elements/1.1/"><metadata
   id="metadata49"><rdf:RDF><cc:Work
       rdf:about=""><dc:format>image/svg+xml</dc:format><dc:type
         rdf:resource="http://purl.org/dc/dcmitype/StillImage" /></cc:Work></rdf:RDF></metadata><defs
   id="defs47" /><sodipodi:namedview
   pagecolor="#454545"
   bordercolor="#666666"
   borderopacity="1"
   objecttolerance="10"
   gridtolerance="10"
   guidetolerance="10"
   inkscape:pageopacity="0"
   inkscape:pageshadow="2"
   inkscape:window-width="1920"
   inkscape:window-height="1027"
   id="namedview45"
   showgrid="false"
   inkscape:zoom="0.9768481"
   inkscape:cx="779.03617"
   inkscape:cy="179.14761"
   inkscape:window-x="-8"
   inkscape:window-y="-8"
   inkscape:window-maximized="1"
   inkscape:current-layer="Layer_1"
   inkscape:document-rotation="0"
   showguides="false"
   fit-margin-top="0"
   fit-margin-left="0"
   fit-margin-right="0"
   fit-margin-bottom="0"
   inkscape:pagecheckerboard="0"
   inkscape:showpageshadow="0"
   inkscape:deskcolor="#454545" />
<g
   id="g42"
   style="fill:#ffffff;fill-opacity:1"
   transform="translate(-8.3848414e-4)">
	<g
   id="g12"
   style="fill:#ffffff;fill-opacity:1">
		<path
   fill="#EB6824"
   d="m 146.838,15 c 8.682,0 17.395,2.489 26.243,7.646 27.028,15.757 54.293,31.116 81.223,47.041 15.797,9.341 23.828,23.731 23.936,42.103 0.188,31.548 0.175,63.099 0.011,94.646 -0.104,19.935 -9.189,34.502 -26.64,44.347 -26.881,15.169 -53.51,30.78 -80.233,46.224 -8.25,4.768 -16.496,7.15 -24.741,7.15 -8.227,0 -16.451,-2.371 -24.685,-7.112 C 93.923,280.908 65.704,265.085 37.923,248.53 22.833,239.536 15.335,225.401 15.107,207.774 14.9,191.684 15.064,175.588 15.06,159.497 15.058,143.829 15.007,128.161 15.072,112.492 15.154,92.462 24.312,77.921 41.634,68.052 67.347,53.399 93.07,38.749 118.493,23.605 127.991,17.945 137.396,15 146.838,15 m 0,-15 C 134.873,0 122.753,3.605 110.814,10.716 85.867,25.577 60.147,40.234 35.274,54.408 l -1.07,0.61 C 11.976,67.684 0.172,87.537 0.069,112.43 c -0.046,11.048 -0.033,22.261 -0.021,33.104 0.005,4.654 0.01,9.31 0.01,13.964 10e-4,4.998 -0.014,9.995 -0.029,14.991 -0.032,10.954 -0.066,22.28 0.077,33.478 0.147,11.365 2.739,21.686 7.703,30.674 5.137,9.303 12.685,16.965 22.433,22.773 19.551,11.65 39.586,23.094 58.96,34.16 8.29,4.734 16.861,9.632 25.265,14.469 10.5,6.047 21.324,9.113 32.169,9.113 10.875,0 21.724,-3.083 32.246,-9.163 7.362,-4.254 14.717,-8.521 22.072,-12.788 18.988,-11.018 38.624,-22.409 58.028,-33.359 22.288,-12.574 34.139,-32.398 34.268,-57.33 0.174,-33.43 0.171,-64.442 -0.011,-94.813 -0.14,-23.906 -10.963,-42.899 -31.3,-54.926 C 246.044,47.378 229.805,38.044 214.101,29.016 203.114,22.7 191.751,16.168 180.636,9.689 169.605,3.26 158.235,0 146.838,0 Z"
   id="path2"
   style="fill:#ffffff;fill-opacity:1" />
		<g
   id="g10"
   style="fill:#ffffff;fill-opacity:1">
			<path
   fill="#EB6824"
   d="m 72.166,157.517 c -1.758,1.318 -1.758,2.783 0,4.102 l 37.346,30.021 c 3.367,2.49 3.809,7.176 1.025,10.545 -2.784,3.369 -7.179,3.66 -10.545,0.879 L 60.888,171.431 c -8.934,-7.617 -8.934,-16.11 0,-23.727 L 99.992,116.07 c 3.366,-2.782 7.762,-2.489 10.545,0.878 2.782,3.369 2.342,8.056 -1.025,10.545 z"
   id="path4"
   style="fill:#ffffff;fill-opacity:1" />
			<path
   fill="#EB6824"
   d="m 146.707,210.68 c -1.758,4.103 -6.15,6.004 -10.105,4.394 -3.953,-1.61 -5.713,-6.003 -4.1,-10.104 l 38.369,-96.366 c 1.61,-4.1 6.006,-6.149 9.959,-4.539 3.955,1.61 5.858,6.004 4.102,10.105 z"
   id="path6"
   style="fill:#ffffff;fill-opacity:1" />
			<path
   fill="#EB6824"
   d="m 200.306,210.68 c -1.758,4.103 -6.15,6.004 -10.104,4.394 -3.953,-1.61 -5.711,-6.003 -4.101,-10.104 l 38.371,-96.366 c 1.609,-4.1 6.004,-6.149 9.959,-4.539 3.953,1.61 5.857,6.004 4.1,10.105 z"
   id="path8"
   style="fill:#ffffff;fill-opacity:1" />
		</g>
	</g>
	
</g>
<text
   xml:space="preserve"
   style="font-style:normal;font-variant:normal;font-weight:normal;font-stretch:normal;font-size:116.722px;line-height:1.25;font-family:mont;-inkscape-font-specification:mont;fill:#ffffff;fill-opacity:1;stroke-width:0.972683"
   x="354.03525"
   y="127.08475"
   id="text852"><tspan
     sodipodi:role="line"
     id="tspan850"
     x="354.03525"
     y="127.08475"
     style="font-style:normal;font-variant:normal;font-weight:bold;font-stretch:normal;font-size:116.722px;font-family:Montserrat;-inkscape-font-specification:'Montserrat Bold';fill:#ffffff;fill-opacity:1;stroke-width:0.972683">ROYAL</tspan><tspan
     sodipodi:role="line"
     x="354.03525"
     y="272.98724"
     style="font-style:normal;font-variant:normal;font-weight:bold;font-stretch:normal;font-size:116.722px;font-family:Montserrat;-inkscape-font-specification:'Montserrat Bold';fill:#ffffff;fill-opacity:1;stroke-width:0.972683"
     id="tspan858">HACKAWAY V7</tspan></text></svg>
