<?xml version="1.0" encoding="UTF-8" standalone="no"?>
<svg
   xmlns:dc="http://purl.org/dc/elements/1.1/"
   xmlns:cc="http://creativecommons.org/ns#"
   xmlns:rdf="http://www.w3.org/1999/02/22-rdf-syntax-ns#"
   xmlns:svg="http://www.w3.org/2000/svg"
   xmlns="http://www.w3.org/2000/svg"
   xmlns:sodipodi="http://sodipodi.sourceforge.net/DTD/sodipodi-0.dtd"
   xmlns:inkscape="http://www.inkscape.org/namespaces/inkscape"
   width="239.65459mm"
   height="152.38342mm"
   viewBox="0 0 239.65459 152.38342"
   version="1.1"
   id="svg8"
   inkscape:version="1.0.1 (3bc2e813f5, 2020-09-07)"
   sodipodi:docname="CompSci_Logo.pdf.svg">
  <defs
     id="defs2">
    <clipPath
       clipPathUnits="userSpaceOnUse"
       id="clipPath849">
      <path
         d="M 0,431.954 H 679.336 V 0 H 0 Z"
         id="path847" />
    </clipPath>
  </defs>
  <sodipodi:namedview
     id="base"
     pagecolor="#ffffff"
     bordercolor="#666666"
     borderopacity="1.0"
     inkscape:pageopacity="0.0"
     inkscape:pageshadow="2"
     inkscape:zoom="0.49497475"
     inkscape:cx="284.27982"
     inkscape:cy="593.38022"
     inkscape:document-units="mm"
     inkscape:current-layer="layer1"
     inkscape:document-rotation="0"
     showgrid="false"
     fit-margin-top="0"
     fit-margin-left="0"
     fit-margin-right="0"
     fit-margin-bottom="0"
     inkscape:window-width="1920"
     inkscape:window-height="1027"
     inkscape:window-x="1912"
     inkscape:window-y="-8"
     inkscape:window-maximized="1" />
  <metadata
     id="metadata5">
    <rdf:RDF>
      <cc:Work
         rdf:about="">
        <dc:format>image/svg+xml</dc:format>
        <dc:type
           rdf:resource="http://purl.org/dc/dcmitype/StillImage" />
        <dc:title></dc:title>
      </cc:Work>
    </rdf:RDF>
  </metadata>
  <g
     inkscape:label="Layer 1"
     inkscape:groupmode="layer"
     id="layer1"
     transform="translate(-25.315564,-13.010672)">
    <g
       id="g845"
       clip-path="url(#clipPath849)"
       transform="matrix(0.35277777,0,0,-0.35277777,25.315507,165.3943)">
      <g
         id="g851"
         transform="translate(149.1342,350.5936)">
        <path
           d="m 0,0 c 0,20.915 0,41.829 0,62.744 0,5.646 -0.219,5.869 -5.918,5.869 -41.747,0.003 -83.492,0.002 -125.238,0.001 -0.583,0 -1.167,0.009 -1.75,-0.013 -2.158,-0.08 -3.454,-1.033 -3.404,-3.364 0.016,-0.748 -0.041,-1.498 -0.041,-2.247 -0.002,-42.079 -0.002,-84.158 -0.001,-126.238 0,-3.709 0.619,-4.379 4.316,-4.38 42.663,-0.013 85.326,-0.015 127.988,-0.006 3.36,0.001 4.047,0.744 4.047,4.14 C 0.001,-42.33 0,-21.165 0,0 m 314.608,-337.753 c 65.664,0 131.328,0 196.992,10e-4 5.672,0 5.676,0.002 5.676,5.664 0,131.41 0,262.822 -10e-4,394.233 0,6.47 -0.004,6.47 -6.519,6.47 H 116.773 c -5.045,0 -5.557,-0.511 -5.557,-5.569 -10e-4,-25.666 -10e-4,-51.331 -10e-4,-76.997 0,-106.162 0,-212.324 10e-4,-318.486 0,-5.049 0.283,-5.319 5.4,-5.319 65.997,10e-4 131.995,10e-4 197.992,0.003 m 215.594,202.912 v -210.235 c 0,-5.506 10e-4,-5.511 -5.532,-5.511 -140.321,-0.003 -280.643,-0.005 -420.965,-0.006 -5.435,0 -5.434,0.004 -5.434,5.359 0,131.157 0.001,262.315 -0.015,393.472 0,1.407 -0.164,2.822 -0.362,4.217 -0.083,0.58 -0.587,1.113 -1.171,1.177 -0.507,0.056 -0.8,-0.511 -1.067,-0.943 C 91.915,46.636 88.178,40.579 84.424,34.533 80.413,28.071 76.37,21.628 72.369,15.161 69.235,10.094 66.152,4.995 63.029,-0.079 59.776,-5.364 56.501,-10.636 53.236,-15.914 49.321,-22.243 45.41,-28.575 41.491,-34.902 37.486,-41.367 33.461,-47.82 29.47,-54.294 c -3.172,-5.143 -6.308,-10.307 -9.459,-15.462 -1.677,-2.745 -3.324,-5.509 -5.037,-8.231 -1.225,-1.948 -2.875,-3.149 -5.355,-2.836 -0.901,0.114 -1.83,-0.003 -2.747,-0.003 -50.247,-0.001 -100.493,-0.001 -150.739,0 -5.284,0 -5.268,0.002 -5.267,5.353 0.004,50.418 0.003,100.837 0.003,151.255 0,0.5 -0.001,1 0,1.5 0.009,4.027 0.009,4.027 3.918,4.027 21.081,-0.003 42.163,-0.006 63.244,-0.007 29.997,-0.002 59.994,-0.002 89.992,-0.003 0.583,0 1.167,0.014 1.749,-0.002 3.108,-0.086 3.441,-0.388 3.444,-3.477 0.015,-12.999 0.007,-25.998 0.007,-38.997 0,-28.498 -0.002,-56.996 0.006,-85.494 0,-1.497 0.042,-2.999 0.162,-4.491 0.055,-0.688 0.52,-1.289 1.194,-1.481 0.837,-0.238 1.111,0.517 1.457,1.072 6.372,10.255 12.78,20.487 19.107,30.769 6.115,9.939 12.104,19.955 18.227,29.889 5.294,8.587 10.748,17.076 16.043,25.662 5.387,8.732 10.65,17.54 15.997,26.296 3.625,5.935 7.296,11.841 10.957,17.754 1.262,2.04 3.079,2.562 5.475,2.561 132.737,-0.06 265.475,-0.057 398.213,-0.059 8.499,0 16.998,0.009 25.498,0.008 4.383,-10e-4 4.64,-0.252 4.641,-4.666 0.003,-42.747 0.002,-85.494 0.002,-128.24 z"
           style="fill:#FFFFFF;fill-opacity:1;fill-rule:nonzero;stroke:none"
           id="path853" />
      </g>
      <g
         id="g855"
         transform="translate(415.5536,338.9803)">
        <path
           d="m 0,0 c -1.396,-1.742 -1.208,-3.444 -1.213,-5.071 -0.019,-7.164 0.015,-14.329 0.014,-21.494 -10e-4,-3.512 -0.375,-3.878 -3.836,-3.904 -1,-0.007 -2.013,-0.113 -2.996,0.011 -1.81,0.23 -3.033,0.987 -3.027,3.164 0.054,15.829 0.031,31.659 0.055,47.489 0.005,3.375 0.346,3.667 3.76,3.696 0.583,0.005 1.167,-0.003 1.75,-0.004 5.393,-0.005 5.541,0.063 7.78,-4.78 2.57,-5.558 4.692,-11.324 7.309,-16.859 1.339,-2.832 2.165,-5.921 4.104,-8.483 0.94,-1.241 1.645,-1.645 2.445,0.006 1.443,2.978 2.982,5.915 4.279,8.956 2.855,6.699 5.727,13.387 8.889,19.949 0.321,0.666 0.686,1.128 1.452,1.134 2.582,0.019 5.165,0.079 7.744,0.017 1.1,-0.026 1.869,-0.679 1.991,-1.857 0.103,-0.989 0.213,-1.983 0.215,-2.975 0.026,-15.33 0.034,-30.66 0.048,-45.99 0.002,-2.18 -1.11,-3.38 -3.263,-3.464 -0.998,-0.039 -1.999,-0.007 -2.999,-0.012 -2.897,-0.014 -3.452,0.49 -3.457,3.436 -0.013,7.415 0.058,14.83 0.003,22.244 -0.011,1.482 0.607,3.783 -1.047,4.149 -1.101,0.243 -2.339,-1.964 -2.909,-3.343 -1.396,-3.37 -3.155,-6.569 -4.524,-9.93 -0.786,-1.93 -2.072,-3.611 -2.593,-5.645 -0.138,-0.534 -0.527,-0.892 -1.033,-0.968 -2.652,-0.401 -5.459,-0.737 -7.93,0.047 -1.932,0.612 -2.251,3.253 -3.19,5.051 C 5.193,-10.395 3.647,-4.804 0,0"
           style="fill:#FFFFFF;fill-opacity:1;fill-rule:nonzero;stroke:none"
           id="path857" />
      </g>
      <g
         id="g859"
         transform="translate(456.9735,272.6898)">
        <path
           d="m 0,0 c 0,-2.41 0.067,-4.823 -0.019,-7.23 -0.085,-2.399 0.878,-3.526 3.361,-3.468 3.655,0.086 7.314,-0.034 10.97,0.031 4.181,0.073 6.186,2.161 6.22,6.366 0.022,2.659 0.086,5.251 0.041,7.973 0.494,4.629 -3.136,7.238 -6.932,7.089 C 10.238,10.626 6.823,10.628 3.42,10.739 0.857,10.823 0.028,9.468 0.01,7.231 -0.011,4.821 0.005,2.411 0,0 m -9.908,-7.791 c -0.002,7.825 -0.02,15.651 0.007,23.476 0.011,3.341 0.173,3.493 3.529,3.5 7.992,0.017 15.984,0.033 23.976,-0.017 5.759,-0.036 12.636,-6.728 12.769,-12.463 0.104,-4.493 -0.087,-8.993 0.06,-13.483 0.149,-4.546 -3.02,-6.912 -5.847,-9.554 -0.607,-0.566 -1.239,-1.105 -1.87,-1.644 -1.479,-1.262 -1.605,-2.505 -0.251,-4.035 2.965,-3.351 5.767,-6.847 8.764,-10.168 0.744,-0.822 0.858,-1.552 0.652,-2.456 -0.245,-1.074 -1.33,-0.864 -1.99,-0.991 -5.217,0.203 -8.641,1.267 -11.711,5.407 -2.654,3.578 -5.628,6.971 -8.951,9.999 -1.321,1.204 -6.58,1.762 -8.074,0.842 -1.167,-0.719 -1.133,-1.973 -1.144,-3.126 -0.031,-3.247 -0.026,-6.494 0.016,-9.74 0.028,-2.057 -0.595,-3.237 -2.979,-3.194 -7.531,0.139 -6.951,-0.895 -6.954,6.669 -0.003,6.993 -10e-4,13.985 -0.002,20.978"
           style="fill:#FFFFFF;fill-opacity:1;fill-rule:nonzero;stroke:none"
           id="path861" />
      </g>
      <g
         id="g863"
         transform="translate(386.035,335.4056)">
        <path
           d="m 0,0 h -0.03 c 0,4.16 -0.081,8.322 0.023,12.479 0.092,3.661 -3.487,6.894 -6.876,6.647 -3.889,-0.284 -7.817,-0.043 -11.727,-0.074 -3.43,-0.027 -6.274,-2.617 -6.313,-6.076 -0.096,-8.569 -0.08,-17.141 0.015,-25.709 0.034,-3.009 2.461,-5.399 5.39,-5.453 4.408,-0.08 8.822,-0.095 13.227,0.051 4.277,0.142 6.27,2.355 6.287,6.652 C 0.012,-7.655 0,-3.828 0,0 M 9.408,-0.035 C 9.41,-4.447 8.934,-8.923 9.52,-13.256 c 0.934,-6.911 -7.899,-13.807 -13.427,-13.669 -5.824,0.146 -11.656,-0.034 -17.483,0.05 -6.679,0.096 -12.859,6.007 -12.959,12.655 -0.148,9.821 -0.115,19.648 0.021,29.47 0.081,5.784 6.441,12.053 12.225,12.162 6.492,0.123 12.987,-0.005 19.48,0.054 4.052,0.037 6.29,-2.905 8.945,-5.199 2.397,-2.071 3.074,-4.816 3.08,-7.818 C 9.414,9.621 9.405,4.793 9.408,-0.035"
           style="fill:#FFFFFF;fill-opacity:1;fill-rule:nonzero;stroke:none"
           id="path865" />
      </g>
      <g
         id="g867"
         transform="translate(399.5272,268.8763)">
        <path
           d="m 0,0 c 0,6.579 0.048,13.158 -0.024,19.735 -0.027,2.326 0.589,3.368 3.238,3.331 10.823,-0.152 21.651,-0.125 32.475,-0.022 2.182,0.021 3.055,-0.783 3.079,-2.821 0.008,-0.749 0.025,-1.498 0.035,-2.247 C 38.844,15.059 38.438,14.58 35.575,14.567 28.247,14.535 20.917,14.458 13.592,14.601 11.108,14.648 10.178,13.6 9.814,11.359 9.411,8.865 9.594,6.374 9.565,3.883 9.542,1.89 10.415,0.892 12.607,0.926 18.852,1.021 25.1,0.876 31.343,0.993 33.792,1.04 34.627,-0.064 34.575,-2.279 34.563,-2.861 34.613,-3.444 34.618,-4.027 34.644,-6.7 33.953,-7.519 31.335,-7.544 25.423,-7.602 19.509,-7.665 13.599,-7.54 11.041,-7.485 9.846,-8.595 9.72,-10.979 9.593,-13.386 9.411,-15.82 9.637,-18.207 c 0.22,-2.327 1.719,-3.878 4.072,-4.436 2.795,-0.663 5.639,-0.309 8.461,-0.344 4.579,-0.057 9.16,-0.064 13.739,-0.001 1.919,0.026 2.73,-0.944 2.872,-2.678 0.075,-0.91 0.055,-1.831 0.037,-2.747 -0.042,-2.153 -0.848,-3.27 -3.31,-3.229 -7.576,0.127 -15.155,-0.009 -22.734,0.045 C 6.568,-31.552 0.063,-24.962 0.025,-18.736 -0.013,-12.491 0.017,-6.246 0.017,0 Z"
           style="fill:#FFFFFF;fill-opacity:1;fill-rule:nonzero;stroke:none"
           id="path869" />
      </g>
      <g
         id="g871"
         transform="translate(476.3475,344.1312)">
        <path
           d="m 0,0 h 0.057 c 0,-2.831 -0.025,-5.661 0.008,-8.491 0.023,-1.842 0.994,-2.678 2.855,-2.659 3.665,0.039 7.342,0.17 10.994,-0.061 3.576,-0.227 6.873,2.713 6.634,6.674 -0.161,2.657 -0.218,5.344 -0.011,7.993 0.337,4.306 -2.89,7.187 -6.809,6.931 C 10.242,10.159 6.729,10.237 3.233,10.363 0.922,10.446 0.044,9.322 0.009,7.248 -0.031,4.833 0,2.416 0,0 m -9.942,-8.167 c 0,7.829 -0.017,15.658 0.007,23.487 0.01,3.353 0.068,3.41 3.295,3.418 7.912,0.02 15.831,-0.198 23.734,0.077 4.778,0.166 7.336,-2.995 10.322,-5.679 2.097,-1.886 2.995,-4.231 2.904,-7.115 -0.152,-4.825 -0.075,-9.658 -0.069,-14.488 0.002,-1.755 -0.512,-3.217 -1.892,-4.408 -1.254,-1.081 -2.343,-2.35 -3.553,-3.484 -2.145,-2.014 -4.599,-3.095 -7.659,-2.997 -4.658,0.149 -9.327,-0.029 -13.989,0.053 -2.236,0.039 -3.2,-0.881 -3.165,-3.097 0.052,-3.247 -0.003,-6.496 0.001,-9.743 0.004,-2.754 -0.53,-3.412 -3.297,-3.459 -7.54,-0.127 -6.679,-0.335 -6.646,6.198 0.036,7.079 0.008,14.158 0.007,21.237"
           style="fill:#FFFFFF;fill-opacity:1;fill-rule:nonzero;stroke:none"
           id="path873" />
      </g>
      <g
         id="g875"
         transform="translate(302.8812,268.8836)">
        <path
           d="M 0,0 C 0,6.579 0.049,13.158 -0.026,19.736 -0.053,22.054 0.528,23.13 3.193,23.065 9.6,22.909 9.603,23.049 9.603,16.637 9.604,5.396 9.6,-5.847 9.606,-17.089 c 0.002,-3.384 1.538,-5.418 4.905,-5.695 4.375,-0.36 8.808,-0.716 13.158,0.23 3.036,0.659 4.453,2.613 4.455,5.699 0.008,11.992 -0.005,23.984 0.005,35.975 0.003,3.885 0.023,3.886 3.83,3.879 6.433,-0.012 5.689,0.168 5.7,-5.629 0.022,-11.742 -0.12,-23.485 0.074,-35.224 0.067,-4.032 -1.43,-6.944 -4.256,-9.582 -3.207,-2.992 -6.809,-4.429 -11.233,-4.224 -4.405,0.204 -8.826,0.015 -13.239,0.052 C 6.468,-31.554 0.081,-25.226 0.038,-18.736 -0.003,-12.491 0.029,-6.245 0.029,0 Z"
           style="fill:#FFFFFF;fill-opacity:1;fill-rule:nonzero;stroke:none"
           id="path877" />
      </g>
      <g
         id="g879"
         transform="translate(311.5253,335.495)">
        <path
           d="m 0,0 c 0,-4.079 -0.035,-8.159 0.011,-12.238 0.041,-3.677 2.395,-6.011 6.106,-6.056 3.829,-0.046 7.66,0.053 11.488,-0.028 3.02,-0.064 5.631,0.575 7.87,2.84 1.706,1.725 3.679,1.387 5.792,-0.607 1.704,-1.608 1.019,-3.398 -0.011,-4.925 -2.68,-3.974 -6.385,-6.091 -11.32,-5.993 -5.243,0.105 -10.489,0.004 -15.734,0.028 -7.185,0.034 -13.456,5.966 -13.559,13.155 -0.139,9.572 -0.087,19.148 0.036,28.72 0.076,5.974 6.552,12.346 12.548,12.442 6.159,0.098 12.321,0.043 18.481,0.008 4.962,-0.028 7.763,-3.254 10.092,-7.054 1.419,-2.316 -0.395,-3.538 -1.908,-4.639 -1.434,-1.045 -3.121,-1.416 -4.476,0.16 -2.264,2.631 -5.064,3.437 -8.458,3.213 C 13.559,18.801 10.134,18.984 6.721,18.967 2.703,18.946 0.042,16.3 0.007,12.238 -0.028,8.159 0,4.08 0,0"
           style="fill:#FFFFFF;fill-opacity:1;fill-rule:nonzero;stroke:none"
           id="path881" />
      </g>
      <g
         id="g883"
         transform="translate(367.2323,260.3299)">
        <path
           d="m 0,0 c 0,6.249 0.006,12.497 -0.003,18.746 -0.005,3.523 -0.726,4.279 -4.2,4.326 -2.832,0.038 -5.665,0.024 -8.498,0.005 -2.092,-0.015 -3.218,0.698 -3.129,3.085 0.203,5.375 0.119,5.378 5.368,5.377 10.915,-0.003 21.83,-0.072 32.743,0.048 2.404,0.026 3.18,-0.796 3.25,-3.096 0.165,-5.387 0.203,-5.428 -5.174,-5.416 -2.333,0.005 -4.675,-0.129 -6.996,0.044 -2.45,0.184 -3.299,-1.202 -3.566,-3.213 C 9.633,18.676 9.72,17.411 9.72,16.161 9.718,4.414 9.722,-7.334 9.726,-19.082 c 10e-4,-3.493 -0.42,-3.938 -3.814,-4.009 -5.946,-0.126 -5.947,-0.126 -5.948,5.844 C -0.038,-11.498 -0.037,-5.749 -0.037,0 Z"
           style="fill:#FFFFFF;fill-opacity:1;fill-rule:nonzero;stroke:none"
           id="path885" />
      </g>
      <g
         id="g887"
         transform="translate(391.9813,122.1204)">
        <path
           d="m 0,0 c 0,-8.161 -0.073,-16.322 0.055,-24.48 0.03,-1.9 -0.765,-2.542 -2.354,-2.644 -2.321,-0.148 -4.388,-0.264 -5.826,2.462 -3.157,5.986 -6.722,11.757 -10.14,17.605 -3.288,5.626 -6.682,11.192 -9.867,16.876 -1.696,3.028 -3.295,6.107 -5.205,9.012 -0.355,0.539 -0.544,1.377 -1.369,1.199 -0.699,-0.152 -0.993,-0.892 -1.068,-1.549 -0.134,-1.153 -0.19,-2.322 -0.191,-3.484 -0.009,-12.99 0.009,-25.98 -0.015,-38.971 -0.002,-0.948 0.354,-2.071 -0.598,-2.798 -1.432,-1.095 -3.285,-0.229 -3.34,1.644 -0.106,3.577 -0.075,7.159 -0.077,10.739 -0.006,12.491 -0.008,24.981 0.005,37.471 0.002,1.518 -0.455,3.378 1.333,4.143 2.218,0.949 5.603,-0.394 6.731,-2.38 5.304,-9.342 10.594,-18.692 15.914,-28.025 2.783,-4.88 5.649,-9.712 8.404,-14.607 0.568,-1.008 1.215,-1.556 2.356,-1.378 1.449,0.227 1.184,1.372 1.181,2.34 -0.04,13.654 -0.088,27.308 -0.135,40.962 -0.006,1.547 0.408,2.995 2.161,3.075 1.949,0.089 2.071,-1.439 2.066,-2.98 C -0.007,16.155 0.008,8.078 0.008,0 Z"
           style="fill:#DDDDDD;fill-opacity:1;fill-rule:nonzero;stroke:none"
           id="path889" />
      </g>
      <g
         id="g891"
         transform="translate(304.5292,125.7801)">
        <path
           d="m 0,0 c 0,6.666 0.002,13.331 -0.001,19.996 -0.002,3.221 0.41,3.654 3.485,3.652 9.498,-0.003 18.996,-0.026 28.495,0.02 1.504,0.008 2.877,-0.23 2.806,-1.938 -0.068,-1.646 -1.588,-1.587 -2.87,-1.586 C 24,20.15 16.085,20.159 8.17,20.129 4.82,20.116 4.116,19.378 4.098,15.994 4.076,11.828 4.073,7.662 4.096,3.497 4.115,-0.08 4.782,-0.775 8.285,-0.791 c 6.332,-0.028 12.664,0 18.996,-0.022 1.283,-0.004 2.985,0.313 3.065,-1.605 0.08,-1.94 -1.437,-1.994 -2.973,-1.982 -6.498,0.05 -12.997,0.035 -19.496,0.012 -3.079,-0.01 -3.768,-0.741 -3.778,-3.873 -0.011,-3.166 -0.006,-6.332 -0.002,-9.498 0.006,-5.595 3.595,-9.166 9.21,-9.168 6.248,-0.003 12.497,0.01 18.746,-0.014 1.313,-0.005 2.825,0.164 2.823,-1.884 -0.002,-1.93 -1.321,-2.015 -2.747,-2.014 -7.415,0.008 -14.83,0.012 -22.245,-0.006 -1.478,-0.003 -2.69,0.46 -3.881,1.383 -4.016,3.113 -6.565,6.655 -6.089,12.225 C 0.401,-11.53 0.021,-5.749 0.021,0 Z"
           style="fill:#DDDDDD;fill-opacity:1;fill-rule:nonzero;stroke:none"
           id="path893" />
      </g>
      <g
         id="g895"
         transform="translate(454.5067,126.1712)">
        <path
           d="m 0,0 c 0,6.496 0.003,12.992 -0.001,19.488 -0.001,3.24 0.526,3.773 3.741,3.772 9.079,-0.005 18.157,-0.006 27.237,-0.01 0.666,0 1.339,-0.075 1.997,-0.004 1.281,0.14 1.891,-0.555 2.009,-1.667 C 35.12,20.292 34.265,19.82 33.12,19.799 31.122,19.762 29.123,19.75 27.124,19.748 20.627,19.741 14.13,19.759 7.634,19.733 5.002,19.722 3.832,18.368 4.099,15.828 4.55,11.516 4.549,7.199 4.103,2.888 c -0.28,-2.69 0.892,-4.061 3.654,-4.072 6.83,-0.024 13.66,0.007 20.49,-0.035 2.166,-0.013 2.837,-1.033 2.097,-2.732 C 29.865,-5.049 28.997,-4.746 28.23,-4.749 21.234,-4.773 14.237,-4.76 7.241,-4.775 4.47,-4.782 3.824,-5.538 4.16,-8.209 c 0.481,-3.815 0.08,-7.65 0.217,-11.473 0.137,-3.849 4.007,-7.62 7.889,-7.63 6.413,-0.018 12.828,0.041 19.24,-0.043 1.372,-0.018 3.458,0.797 3.528,-1.854 0.07,-2.653 -1.982,-1.991 -3.401,-2.004 -6.663,-0.062 -13.326,-0.044 -19.989,-0.021 -6.241,0.022 -11.513,5.172 -11.61,11.496 C -0.066,-13.16 0.012,-6.58 0.012,0 Z"
           style="fill:#DDDDDD;fill-opacity:1;fill-rule:nonzero;stroke:none"
           id="path897" />
      </g>
      <g
         id="g899"
         transform="translate(318.8846,166.0252)">
        <path
           d="m 0,0 c -3.081,0 -6.164,0.053 -9.243,-0.013 -3.858,-0.083 -6.237,2.199 -8.173,5.089 -0.413,0.616 -1.009,1.81 0.158,2.398 0.867,0.437 2.076,0.702 2.728,-0.313 1.986,-3.097 4.892,-3.476 8.233,-3.355 4.989,0.18 9.991,0.027 14.987,0.063 3.442,0.025 7.56,4.147 7.948,7.526 0.445,3.878 -0.959,6.153 -4.495,8.088 -8.555,4.682 -16.85,9.841 -25.182,14.92 -1.691,1.031 -3.088,2.536 -2.942,4.854 0.057,0.91 -0.037,1.83 -0.044,2.746 -0.06,7.376 5.161,12.703 12.573,12.756 4.829,0.035 9.661,0.061 14.487,-0.068 3.568,-0.095 6.085,-1.992 7.565,-5.204 0.266,-0.579 0.978,-1.355 -0.001,-1.97 -0.807,-0.507 -1.763,-0.901 -2.443,0.064 -2.466,3.501 -6.029,3.575 -9.78,3.4 -2.991,-0.14 -5.994,-0.024 -8.992,-0.03 -6.115,-0.011 -10.496,-5.299 -9.275,-11.222 0.428,-2.076 2.362,-2.708 3.853,-3.622 6.77,-4.149 13.616,-8.176 20.433,-12.249 1.703,-1.018 3.377,-2.085 5.107,-3.056 1.819,-1.021 2.9,-2.544 3.004,-4.591 0.122,-2.404 0.258,-4.844 -0.008,-7.225 C 20.048,4.96 13.903,0.155 9.242,0.024 6.164,-0.062 3.081,0.008 0,0.008 Z"
           style="fill:#DDDDDD;fill-opacity:1;fill-rule:nonzero;stroke:none"
           id="path901" />
      </g>
      <g
         id="g903"
         transform="translate(404.4042,122.3973)">
        <path
           d="m 0,0 c 0,5.415 -0.021,10.829 0.006,16.244 0.023,4.653 5.484,10.585 10.137,10.694 6.827,0.162 13.66,0.092 20.489,0.037 3.165,-0.026 5.075,-2.196 6.717,-4.518 0.411,-0.583 1.088,-1.718 0.003,-2.441 -1.121,-0.747 -2.394,-0.421 -3.081,0.528 -1.829,2.522 -4.289,3.072 -7.188,3.008 C 22.421,23.449 17.754,23.541 13.09,23.527 8.371,23.513 4.246,19.307 4.253,14.608 4.269,4.946 4.274,-4.716 4.246,-14.377 c -0.017,-5.667 3.423,-9.163 9.114,-9.165 5.081,-10e-4 10.164,0.089 15.243,-0.038 2.302,-0.057 4.075,0.689 5.425,2.457 0.84,1.1 2.053,1.917 3.1,1.084 1.212,-0.963 0.531,-2.356 -0.354,-3.483 -2.194,-2.796 -4.852,-4.194 -8.592,-4.018 -5.819,0.273 -11.66,0.036 -17.49,0.101 C 6.041,-27.388 0.078,-21.401 0.03,-16.743 -0.027,-11.163 0.017,-5.581 0.017,0 Z"
           style="fill:#DDDDDD;fill-opacity:1;fill-rule:nonzero;stroke:none"
           id="path905" />
      </g>
      <g
         id="g907"
         transform="translate(350.014,193.554)">
        <path
           d="m 0,0 c 0.001,5.328 -0.016,10.657 0.006,15.985 0.021,5.218 5.612,11.092 10.844,11.188 6.241,0.114 12.486,0.077 18.729,-0.017 3.714,-0.056 6.121,-2.23 7.72,-5.402 0.261,-0.517 0.887,-1.275 -0.011,-1.708 -0.761,-0.366 -1.847,-1.117 -2.492,-0.137 -2.811,4.279 -7.115,3.516 -11.214,3.516 C 20.168,23.424 16.754,23.429 13.341,23.423 8.003,23.414 4.06,19.445 4.06,14.103 4.061,4.445 4.053,-5.212 4.054,-14.87 c 10e-4,-4.768 4.002,-8.805 8.734,-8.812 4.829,-0.005 9.666,0.179 14.483,-0.059 2.947,-0.146 5.228,0.746 6.916,3.001 1.043,1.392 2.266,1.248 3.203,0.436 0.835,-0.724 0.013,-1.796 -0.487,-2.611 -1.932,-3.148 -4.678,-4.715 -8.451,-4.649 -5.744,0.099 -11.492,0.12 -17.233,-0.009 -3.97,-0.089 -6.205,2.573 -8.733,4.91 -1.979,1.829 -2.596,4.026 -2.528,6.679 C 0.095,-10.659 -0.001,-5.328 0,0"
           style="fill:#DDDDDD;fill-opacity:1;fill-rule:nonzero;stroke:none"
           id="path909" />
      </g>
      <g
         id="g911"
         transform="translate(411.4628,193.3778)">
        <path
           d="m 0,0 c 0.002,6.249 0.007,12.497 0,18.746 -0.005,4.004 -0.818,4.814 -4.803,4.858 -2.162,0.025 -4.333,-0.025 -6.481,0.164 -0.7,0.061 -1.905,0.253 -1.91,1.243 -0.005,1.013 0.706,1.878 1.784,2.161 0.633,0.166 1.311,0.207 1.97,0.208 7.665,0.01 15.33,0.004 22.995,-0.008 0.579,-0.001 1.159,-0.072 1.735,-0.137 1.267,-0.144 1.962,-0.908 1.982,-2.138 0.022,-1.351 -1.221,-1.299 -2.011,-1.345 -2.574,-0.15 -5.16,-0.198 -7.738,-0.124 C 5.685,23.681 4.681,22.954 4.451,21.146 4.305,19.996 4.053,18.843 4.05,17.691 4.021,5.443 4.028,-6.804 4.036,-19.051 c 0.002,-3.751 0.735,-4.45 4.551,-4.45 1.916,0 3.84,0.093 5.745,-0.047 1.177,-0.086 2.905,0.393 2.933,-1.729 0.027,-2.114 -1.674,-1.971 -2.978,-2.049 -2.159,-0.129 -4.331,-0.037 -6.497,-0.038 -5.499,0 -10.997,0 -16.496,0 -0.5,0 -1.001,-0.015 -1.5,0.005 -1.508,0.061 -3.063,0.384 -2.985,2.219 0.068,1.631 1.692,1.562 2.878,1.619 1.912,0.093 3.831,0.016 5.748,0.026 3.877,0.022 4.571,0.759 4.566,4.749 C -0.007,-12.498 -0.001,-6.249 0,0"
           style="fill:#DDDDDD;fill-opacity:1;fill-rule:nonzero;stroke:none"
           id="path913" />
      </g>
    </g>
  </g>
</svg>
