<?xml version="1.0" encoding="UTF-8" standalone="no"?>
<!-- Created with Inkscape (http://www.inkscape.org/) -->
<svg
   xmlns="http://www.w3.org/2000/svg"
   width="708.58295"
   height="109.76929">
  <polygon
     points="0,87.816 566.87,87.816 566.87,0 0,0 0,87.816 "
     transform="matrix(1.249992,0,0,-1.249992,0,109.7693)"
     fill="#f03" />
  <path
     d="M 275.6875,27.65625 C 270.43752,27.656251 264.78123,28.647519 260.46875,31.65625 C 256.21878,34.668731 253.6875,39.771283 253.6875,44.9375 C 253.6875,57.514919 265.48756,60.196262 275.4375,62.125 C 277.83749,62.588747 281.9375,63.226271 281.9375,66.46875 C 281.93751,69.397479 277.76248,69.6875 275.6875,69.6875 C 270.97502,69.6875 267.41874,67.98872 266.03125,63.28125 L 250.96875,66 L 251.25,67.0625 L 251.59375,68.0625 L 251.96875,69.0625 L 252.375,70 L 252.8125,70.90625 L 253.28125,71.75 L 253.8125,72.59375 L 254.34375,73.375 L 254.9375,74.125 L 255.53125,74.84375 L 256.1875,75.5 L 256.84375,76.15625 L 257.5625,76.75 L 258.28125,77.34375 L 259.03125,77.875 L 259.8125,78.375 L 260.59375,78.84375 L 261.4375,79.28125 L 262.28125,79.6875 L 263.15625,80.0625 L 264.03125,80.40625 L 264.9375,80.6875 L 265.875,80.96875 L 266.8125,81.21875 L 267.75,81.4375 L 268.75,81.625 L 269.71875,81.78125 L 270.71875,81.90625 L 271.75,82 L 272.75,82.0625 L 273.78125,82.125 L 274.8125,82.125 C 285.77494,82.124997 298.4375,77.042419 298.4375,64.3125 C 298.43751,58.521286 295.73747,53.559983 290.5625,50.78125 C 285.93753,48.388765 280.60621,47.567493 275.59375,46.5625 C 273.59375,46.098754 269.75,45.559982 269.75,42.78125 C 269.74999,40.003769 272.80626,39.375 274.96875,39.375 C 279.05622,39.374999 281.99376,40.752526 283.53125,44.6875 L 296.96875,40.625 C 293.73127,31.44506 284.86244,27.65625 275.6875,27.65625 z M 393.6875,27.65625 C 388.45003,27.656251 382.82497,28.647519 378.5,31.65625 C 374.26251,34.668731 371.71875,39.771283 371.71875,44.9375 C 371.71876,57.514919 383.51882,60.196262 393.46875,62.125 C 395.85625,62.588747 399.9375,63.226271 399.9375,66.46875 C 399.93749,69.397479 395.77499,69.6875 393.6875,69.6875 C 388.98753,69.6875 385.44999,67.98872 384.0625,63.28125 L 369,66 L 369.3125,67.0625 L 369.625,68.0625 L 370,69.0625 L 370.40625,70 L 370.84375,70.90625 L 371.3125,71.75 L 371.84375,72.59375 L 372.375,73.375 L 372.96875,74.125 L 373.5625,74.84375 L 374.21875,75.5 L 374.875,76.15625 L 375.59375,76.75 L 376.3125,77.34375 L 377.0625,77.875 L 377.84375,78.375 L 378.625,78.84375 L 379.46875,79.28125 L 380.3125,79.6875 L 381.1875,80.0625 L 382.0625,80.40625 L 382.96875,80.6875 L 383.90625,80.96875 L 384.84375,81.21875 L 385.8125,81.4375 L 386.78125,81.625 L 387.75,81.78125 L 388.75,81.90625 L 389.78125,82 L 390.78125,82.0625 L 391.8125,82.125 L 392.875,82.125 C 403.82493,82.124997 416.46875,77.042419 416.46875,64.3125 C 416.46876,58.521286 413.75622,53.559983 408.59375,50.78125 C 403.96878,48.388765 398.63747,47.567493 393.625,46.5625 C 391.62502,46.098754 387.75,45.559982 387.75,42.78125 C 387.75001,40.003769 390.83752,39.375 393,39.375 C 397.08748,39.374999 400.02501,40.752526 401.5625,44.6875 L 415,40.625 C 411.76252,31.44506 402.87494,27.65625 393.6875,27.65625 z M 644.4375,27.65625 C 639.18756,27.656251 633.54373,28.647519 629.21875,31.65625 C 624.98129,34.668731 622.4375,39.771283 622.4375,44.9375 C 622.43748,57.514919 634.23756,60.196262 644.1875,62.125 C 646.5875,62.588747 650.6875,63.226271 650.6875,66.46875 C 650.68749,69.397479 646.52498,69.6875 644.4375,69.6875 C 639.73756,69.6875 636.16874,67.98872 634.78125,63.28125 L 619.75,66 L 620.03125,67.0625 L 620.34375,68.0625 L 620.71875,69.0625 L 621.125,70 L 621.5625,70.90625 L 622.03125,71.75 L 622.5625,72.59375 L 623.09375,73.375 L 623.6875,74.125 L 624.28125,74.84375 L 624.9375,75.5 L 625.59375,76.15625 L 626.3125,76.75 L 627.03125,77.34375 L 627.78125,77.875 L 628.5625,78.375 L 629.375,78.84375 L 630.1875,79.28125 L 631.03125,79.6875 L 631.90625,80.0625 L 632.78125,80.40625 L 633.71875,80.6875 L 634.625,80.96875 L 635.5625,81.21875 L 636.53125,81.4375 L 637.5,81.625 L 638.46875,81.78125 L 639.46875,81.90625 L 640.5,82 L 641.53125,82.0625 L 642.53125,82.125 L 643.59375,82.125 C 654.55619,82.124997 667.1875,77.042419 667.1875,64.3125 C 667.18749,58.521286 664.50622,53.559983 659.34375,50.78125 C 654.70631,48.388765 649.35621,47.567493 644.34375,46.5625 C 642.33124,46.098754 638.5,45.559982 638.5,42.78125 C 638.5,40.003769 641.58751,39.375 643.75,39.375 C 647.8375,39.374999 650.76251,40.752526 652.3125,44.6875 L 665.71875,40.625 C 662.48129,31.44506 653.62494,27.65625 644.4375,27.65625 z M 44.375,28.4375 L 44.375,81.34375 L 68.625,81.34375 C 73.409968,81.34375 79.095026,81.278731 83.1875,78.34375 C 86.966224,75.648769 88.59375,70.556221 88.59375,66 C 88.59375,59.672538 84.442461,55.047493 78.34375,53.96875 C 83.748718,52.58126 87.28125,47.869964 87.28125,42.3125 C 87.281252,37.991276 85.206228,33.668734 81.65625,31.125 C 78.336269,28.732516 74.262475,28.4375 70.25,28.4375 L 44.375,28.4375 z M 119.84375,28.4375 L 103.40625,81.34375 L 116.59375,81.34375 L 119.84375,70.9375 L 133.96875,70.9375 L 136.96875,81.34375 L 153.5625,81.34375 L 136.96875,28.4375 L 119.84375,28.4375 z M 170.75,28.4375 L 170.75,81.34375 L 210.5,81.34375 L 210.5,68.6875 L 186.65625,68.6875 L 186.65625,60.125 L 205.9375,60.125 L 205.9375,48.34375 L 186.65625,48.34375 L 186.65625,40.625 L 210.5,40.625 L 210.5,28.4375 L 170.75,28.4375 z M 309.53125,28.4375 L 327.375,58.96875 L 327.375,81.34375 L 343.09375,81.34375 L 343.09375,58.96875 L 359.6875,28.4375 L 345.5,28.4375 L 336.625,45.84375 L 327.375,28.4375 L 309.53125,28.4375 z M 431.0625,28.4375 L 431.0625,41.15625 L 442.15625,41.15625 L 442.15625,81.34375 L 457.59375,81.34375 L 457.59375,41.15625 L 468.46875,41.15625 L 468.46875,28.4375 L 431.0625,28.4375 z M 486.3125,28.4375 L 486.3125,81.34375 L 526.03125,81.34375 L 526.03125,68.6875 L 502.1875,68.6875 L 502.1875,60.125 L 521.46875,60.125 L 521.46875,48.34375 L 502.1875,48.34375 L 502.1875,40.625 L 526.03125,40.625 L 526.03125,28.4375 L 486.3125,28.4375 z M 545.96875,28.4375 L 545.96875,81.34375 L 558.1875,81.34375 L 558.1875,43.53125 L 568.28125,81.34375 L 578.625,81.34375 L 588.28125,43.53125 L 588.40625,81.34375 L 603.53125,81.34375 L 603.53125,28.4375 L 582.15625,28.4375 L 574.90625,56.5 L 567.21875,28.4375 L 545.96875,28.4375 z M 59.28125,39.75 L 65.59375,39.75 C 68.679976,39.75 71.9375,40.315026 71.9375,44.25 C 71.937501,45.484991 71.406244,46.795006 70.40625,47.71875 C 69.248757,48.797492 67.38624,48.71875 65.84375,48.71875 L 59.28125,48.71875 L 59.28125,39.75 z M 126.875,44 L 131.1875,59.375 L 122.53125,59.375 L 126.875,44 z M 59.28125,59.96875 L 65.6875,59.96875 C 67.152493,59.968751 69.013759,59.993755 70.40625,60.6875 C 71.94874,61.458746 72.9375,63.071261 72.9375,64.84375 C 72.937501,66.308737 72.156242,67.681255 71,68.53125 C 69.691256,69.609994 67.933739,69.53125 66.3125,69.53125 L 59.28125,69.53125 L 59.28125,59.96875 z"
     fill="#fff" />
</svg>
