<?xml version="1.0" encoding="utf-8"?>
<!-- Generator: Adobe Illustrator 16.0.0, SVG Export Plug-In . SVG Version: 6.00 Build 0)  -->
<!DOCTYPE svg PUBLIC "-//W3C//DTD SVG 1.1//EN" "http://www.w3.org/Graphics/SVG/1.1/DTD/svg11.dtd">
<svg version="1.1" id="Layer_1" xmlns="http://www.w3.org/2000/svg" xmlns:xlink="http://www.w3.org/1999/xlink" x="0px" y="0px"
	 width="465.683px" height="125.938px" viewBox="2.408 95.297 465.683 125.938"
	 enable-background="new 2.408 95.297 465.683 125.938" xml:space="preserve">
<g>
	<path fill="#FFFFFF" d="M92.101,149.198H52.967c-1.01,0-1.828,0.82-1.828,1.829v19.133c0,1.009,0.818,1.832,1.828,1.832h15.266
		v23.771c0,0-3.427,1.169-12.903,1.169c-11.181,0-26.799-4.086-26.799-38.431c0-34.352,16.264-38.871,31.532-38.871
		c13.218,0,18.911,2.327,22.534,3.449c1.139,0.349,2.191-0.785,2.191-1.796l4.365-18.486c0-0.474-0.16-1.042-0.698-1.427
		c-1.472-1.05-10.448-6.073-33.125-6.073c-26.125,0-52.922,11.115-52.922,64.544c0,53.432,30.681,61.394,56.535,61.394
		c21.406,0,34.393-9.147,34.393-9.147c0.536-0.297,0.592-1.045,0.592-1.386v-59.672C93.929,150.019,93.11,149.198,92.101,149.198z"
		/>
	<path fill="#FFFFFF" d="M293.773,101.7c0-1.019-0.807-1.84-1.816-1.84h-22.033c-1.006,0-1.825,0.821-1.825,1.84
		c0,0.003,0.006,42.581,0.006,42.581H233.76V101.7c0-1.019-0.81-1.84-1.818-1.84h-22.034c-1.003,0-1.82,0.821-1.82,1.84v115.297
		c0,1.018,0.817,1.846,1.82,1.846h22.034c1.008,0,1.818-0.828,1.818-1.846V167.68h34.346c0,0-0.061,49.313-0.061,49.317
		c0,1.018,0.817,1.846,1.825,1.846h22.086c1.008,0,1.814-0.828,1.817-1.846V101.7L293.773,101.7z"/>
	<g>
		<g>
			<path fill="#FFFFFF" d="M133.679,116.828c0-7.934-6.361-14.345-14.208-14.345c-7.839,0-14.206,6.412-14.206,14.345
				c0,7.927,6.365,14.356,14.206,14.356C127.319,131.185,133.679,124.755,133.679,116.828z"/>
			<path fill="#FFFFFF" d="M132.105,192.674c0-2.953,0-53.22,0-53.22c0-1.012-0.815-1.838-1.823-1.838h-21.964
				c-1.007,0-1.91,1.04-1.91,2.05c0,0,0,64.043,0,76.251c0,2.241,1.396,2.908,3.204,2.908c0,0,9.375,0,19.789,0
				c2.172,0,2.704-1.065,2.704-2.942C132.105,211.795,132.105,195.785,132.105,192.674z"/>
		</g>
	</g>
	<path fill="#FFFFFF" d="M377.512,137.79h-21.864c-1.004,0-1.819,0.827-1.819,1.844v56.535c0,0-5.556,4.064-13.439,4.064
		c-7.885,0-9.978-3.577-9.978-11.297c0-7.729,0-49.301,0-49.301c0-1.017-0.814-1.845-1.816-1.845h-22.191
		c-1.002,0-1.822,0.828-1.822,1.845c0,0,0,30.105,0,53.033c0,22.932,12.778,28.54,30.359,28.54c14.421,0,26.05-7.967,26.05-7.967
		s0.555,4.199,0.805,4.696c0.25,0.496,0.902,0.998,1.608,0.998l14.117-0.063c1,0,1.822-0.828,1.822-1.841l-0.008-77.396
		C379.336,138.617,378.521,137.79,377.512,137.79z"/>
	<path fill="#FFFFFF" d="M437.271,135.2c-12.416,0-20.864,5.54-20.864,5.54V101.7c0-1.019-0.814-1.84-1.818-1.84h-22.097
		c-1.005,0-1.82,0.821-1.82,1.84v115.297c0,1.018,0.815,1.846,1.823,1.846c0.002,0,15.325,0,15.329,0c0.69,0,1.213-0.356,1.6-0.979
		c0.382-0.619,0.931-5.315,0.931-5.315s9.035,8.562,26.141,8.562c20.079,0,31.596-10.187,31.596-45.726
		C468.091,139.845,449.7,135.2,437.271,135.2z M428.648,200.161c-7.585-0.229-12.729-3.672-12.729-3.672v-36.512
		c0,0,5.074-3.111,11.302-3.667c7.873-0.706,15.461,1.674,15.461,20.455C442.681,196.573,439.258,200.481,428.648,200.161z"/>
	<path fill="#FFFFFF" d="M195.431,137.606h-16.528c0,0-0.025-21.831-0.025-21.836c0-0.827-0.427-1.24-1.382-1.24h-22.522
		c-0.875,0-1.346,0.386-1.346,1.227v22.564c0,0-11.289,2.724-12.052,2.944c-0.759,0.221-1.319,0.922-1.319,1.757v14.18
		c0,1.02,0.815,1.844,1.822,1.844h11.548c0,0,0,14.828,0,34.11c0,25.338,17.772,27.825,29.764,27.825
		c5.479,0,12.035-1.76,13.118-2.159c0.654-0.242,1.034-0.919,1.034-1.653l0.018-15.598c0-1.017-0.858-1.842-1.827-1.842
		c-0.963,0-3.427,0.394-5.964,0.394c-8.119,0-10.87-3.774-10.87-8.661c0-4.881-0.001-32.416-0.001-32.416h16.53
		c1.007,0,1.824-0.823,1.824-1.842v-17.761C197.254,138.426,196.438,137.606,195.431,137.606z"/>
</g>
</svg>
