<svg xmlns="http://www.w3.org/2000/svg" xmlns:xlink="http://www.w3.org/1999/xlink" width="200" height="155" viewBox="0 0 200 155"><defs><path id="3i6hc" d="M685.73 189h26.35l-10.22 23.28H716L687.58 252l.68-29.77H672z"/><path id="3i6hd" d="M658.7 198c.37 0 .68.13.92.38.25.25.38.56.38.92v45.4c0 .36-.13.67-.38.92-.24.25-.55.38-.91.38h-9.46c-.36 0-.67-.13-.92-.38a1.26 1.26 0 0 1-.37-.92v-15.84c0-.37-.11-.66-.34-.9a1.2 1.2 0 0 0-.89-.34h-13.46c-.37 0-.68.12-.92.35-.25.23-.38.52-.38.89v15.84c0 .87-.43 1.3-1.3 1.3h-9.38c-.86 0-1.29-.43-1.29-1.3v-45.4c0-.86.43-1.3 1.3-1.3h9.38c.86 0 1.3.44 1.3 1.3v15.36c0 .87.42 1.3 1.29 1.3h13.46c.37 0 .66-.12.89-.37.23-.25.34-.56.34-.93V199.3c0-.36.12-.67.37-.92s.56-.38.92-.38z"/><path id="3i6he" d="M736.55 210c-.25.23-.38.53-.38.89v22.22c0 .36.13.66.38.89.25.23.57.34.93.34h22.2a1.3 1.3 0 0 1 1.32 1.3v9.06c0 .36-.13.67-.38.92-.26.25-.57.38-.93.38H732.09a8.11 8.11 0 0 1-7.47-4.9 7.88 7.88 0 0 1-.62-3.13v-31.94a7.89 7.89 0 0 1 4.95-7.38 7.66 7.66 0 0 1 3.14-.65h27.6c.36 0 .67.13.93.38.25.25.38.56.38.92v9.06a1.28 1.28 0 0 1-1.31 1.3h-22.2c-.37 0-.69.11-.94.34"/><path id="3i6ha" d="M776.17 198.23h43.81v48.14h-43.81z"/><path id="3i6hg" d="M803.38 218.52c-.14.14-.16.3-.07.48l16 26.27c.18.32.2.58.07.8-.14.2-.39.3-.75.3h-11.35c-.37 0-.73-.1-1.1-.3a2.1 2.1 0 0 1-.82-.8l-10.32-18.77c-.14-.24-.25-.26-.34-.07l-5.68 6.25c-.23.23-.42.56-.58 1-.16.44-.24.84-.24 1.2v10.18c0 .88-.43 1.31-1.3 1.31h-9.43c-.87 0-1.3-.43-1.3-1.3v-45.53c0-.87.43-1.31 1.3-1.31h9.43c.87 0 1.3.44 1.3 1.3v20.43l17.64-20.77c.23-.27.55-.5.96-.68.41-.19.8-.28 1.16-.28h11.35c.36 0 .58.1.65.28.07.18-.01.4-.24.68z"/><path id="3i6hh" d="M656.08 167.5c.27 0 .5.1.67.28.17.18.25.4.25.67v6.6c0 .27-.08.5-.25.68a.88.88 0 0 1-.67.27h-22.1c-.66 0-.98-.32-.98-.95v-33.1c0-.63.32-.95.97-.95h7.06c.65 0 .98.32.98.95v24.65c0 .27.09.48.28.65.18.17.41.25.69.25z"/><path id="3i6hb" d="M620 297h200V141H620z"/><path id="3i6hj" d="M690.03 141a6.24 6.24 0 0 1 4.2 1.72 6.1 6.1 0 0 1 1.29 1.86c.32.71.48 1.47.48 2.27v23.3c0 .8-.16 1.56-.48 2.28a6.39 6.39 0 0 1-1.28 1.87c-.53.54-1.16.95-1.89 1.25-.73.3-1.5.45-2.32.45h-18.06a6.09 6.09 0 0 1-4.23-1.7 5.74 5.74 0 0 1-1.74-4.15v-23.3a5.71 5.71 0 0 1 3.65-5.37c.73-.32 1.5-.48 2.32-.48zm-15.05 26.5h11.99v-18h-12z"/><path id="3i6hk" d="M717.16 149.75a.83.83 0 0 0-.28.65v16.2c0 .27.1.48.28.65a1 1 0 0 0 .68.25h16.2a.94.94 0 0 1 .96.95v6.6a.94.94 0 0 1-.96.95h-20.13a5.92 5.92 0 0 1-5.46-3.57 5.83 5.83 0 0 1-.45-2.28v-23.3a5.8 5.8 0 0 1 1.72-4.12 6.5 6.5 0 0 1 1.89-1.25 5.67 5.67 0 0 1 2.3-.48h20.13a.94.94 0 0 1 .96.95v6.6a.94.94 0 0 1-.96.95h-16.2c-.27 0-.5.08-.68.25"/><path id="3i6hl" d="M771.03 141a6.27 6.27 0 0 1 4.2 1.72c.54.52.96 1.14 1.29 1.86.32.71.48 1.47.48 2.27v28.2a.95.95 0 0 1-.97.95h-7.09c-.28 0-.5-.1-.69-.27a.9.9 0 0 1-.28-.68v-8.95c0-.26-.09-.5-.26-.67a.87.87 0 0 0-.66-.28h-10.1c-.27 0-.5.1-.7.28a.91.91 0 0 0-.27.67v8.95c0 .63-.32.95-.97.95h-7.04c-.65 0-.97-.32-.97-.95v-28.2a5.69 5.69 0 0 1 1.73-4.13 6.59 6.59 0 0 1 1.92-1.24c.73-.32 1.5-.48 2.32-.48zm-15.05 16.65h11.99v-8.8h-11.99z"/><path id="3i6hm" d="M812.08 167.5c.27 0 .5.1.67.28.17.18.25.4.25.67v6.6c0 .27-.08.5-.25.68a.88.88 0 0 1-.67.27h-22.1c-.66 0-.98-.32-.98-.95v-33.1c0-.63.32-.95.97-.95h7.07c.64 0 .97.32.97.95v24.65c0 .27.09.48.28.65.18.17.41.25.69.25z"/><path id="3i6hn" d="M690.03 261a6.23 6.23 0 0 1 4.2 1.72c.54.52.96 1.14 1.29 1.86.32.71.48 1.47.48 2.27v23.3c0 .8-.16 1.56-.48 2.28a6.37 6.37 0 0 1-1.28 1.87c-.53.54-1.16.95-1.89 1.25-.73.3-1.5.45-2.32.45h-23.06c-.65 0-.97-.32-.97-.95v-33.1c0-.63.32-.95.97-.95zm-15.05 26.5h12v-18h-12z"/><path id="3i6ho" d="M732.03 261a6.24 6.24 0 0 1 4.2 1.72c.54.52.96 1.14 1.28 1.86.33.71.49 1.47.49 2.27v28.2a.95.95 0 0 1-.97.95h-7.09a.96.96 0 0 1-.97-.95v-8.95c0-.27-.09-.5-.25-.67a.87.87 0 0 0-.67-.28h-10.1a.94.94 0 0 0-.97.95v8.95c0 .63-.32.95-.97.95h-7.04c-.65 0-.97-.32-.97-.95v-28.2a5.71 5.71 0 0 1 3.65-5.37c.73-.32 1.5-.48 2.32-.48zm-15.05 16.65h11.99v-8.8h-11.99z"/><path id="3i6hp" d="M776.73 261.27c.18.2.27.41.27.68v17.85c0 .8-.16 1.56-.47 2.28a6 6 0 0 1-5.36 3.58h-3.79v9.39a.92.92 0 0 1-.94.95h-6.93a.83.83 0 0 1-.64-.27.96.96 0 0 1-.25-.68v-9.4h-3.79c-.8 0-1.55-.16-2.27-.47a6.3 6.3 0 0 1-1.87-1.25 5.87 5.87 0 0 1-1.7-4.12v-17.86c.01-.63.33-.95.96-.95h6.57a.93.93 0 0 1 .95.95v14.9c0 .27.08.5.25.68.16.18.38.27.65.27h9.21c.63 0 .95-.31.95-.95v-14.9c0-.63.32-.95.95-.95h6.57c.27 0 .5.1.68.27"/><clipPath id="3i6hf"><use xlink:href="#3i6ha"/></clipPath><clipPath id="3i6hi"><use xlink:href="#3i6hb"/></clipPath></defs><g><g transform="translate(-620 -141)"><g><g><use fill="#da1e1e" xlink:href="#3i6hc"/></g><g><use fill="#da1e1e" xlink:href="#3i6hd"/></g><g><use fill="#da1e1e" xlink:href="#3i6he"/></g><g><g/><g clip-path="url(#3i6hf)"><use fill="#da1e1e" xlink:href="#3i6hg"/></g></g><g><use fill="#da1e1e" xlink:href="#3i6hh"/></g><g/><g clip-path="url(#3i6hi)"><use fill="#da1e1e" xlink:href="#3i6hj"/></g><g clip-path="url(#3i6hi)"><use fill="#da1e1e" xlink:href="#3i6hk"/></g><g clip-path="url(#3i6hi)"><use fill="#da1e1e" xlink:href="#3i6hl"/></g><g clip-path="url(#3i6hi)"><use fill="#da1e1e" xlink:href="#3i6hm"/></g><g clip-path="url(#3i6hi)"><use fill="#da1e1e" xlink:href="#3i6hn"/></g><g clip-path="url(#3i6hi)"><use fill="#da1e1e" xlink:href="#3i6ho"/></g><g clip-path="url(#3i6hi)"><use fill="#da1e1e" xlink:href="#3i6hp"/></g></g></g></g></svg>