<?xml version="1.0" encoding="utf-8"?>
<!-- Generator: Adobe Illustrator 16.0.0, SVG Export Plug-In . SVG Version: 6.00 Build 0)  -->
<!DOCTYPE svg PUBLIC "-//W3C//DTD SVG 1.1//EN" "http://www.w3.org/Graphics/SVG/1.1/DTD/svg11.dtd">
<svg version="1.1" id="Layer_1" xmlns="http://www.w3.org/2000/svg" xmlns:xlink="http://www.w3.org/1999/xlink" x="0px" y="0px"
	 width="1066.695px" height="319.156px" viewBox="0 0 1066.695 319.156" enable-background="new 0 0 1066.695 319.156"
	 xml:space="preserve">
<g>
	<g>
		<path fill="#FFFFFF" d="M146.838,15c8.682,0,17.395,2.489,26.243,7.646c27.027,15.757,54.293,31.116,81.223,47.041
			c15.797,9.341,23.828,23.731,23.936,42.103c0.188,31.548,0.176,63.099,0.012,94.646c-0.104,19.936-9.189,34.502-26.641,44.348
			c-26.881,15.169-53.51,30.779-80.232,46.224c-8.25,4.769-16.496,7.15-24.741,7.15c-8.227,0-16.451-2.371-24.685-7.112
			c-28.029-16.137-56.248-31.96-84.029-48.515c-15.09-8.994-22.588-23.13-22.816-40.757c-0.207-16.09-0.043-32.186-0.047-48.276
			c-0.002-15.668-0.053-31.336,0.012-47.005c0.082-20.03,9.24-34.571,26.562-44.44c25.713-14.653,51.436-29.303,76.859-44.447
			C127.991,17.945,137.396,15,146.838,15 M146.838,0c-11.965,0-24.085,3.605-36.024,10.716
			c-24.946,14.861-50.667,29.518-75.54,43.692l-1.069,0.61C11.976,67.684,0.172,87.537,0.069,112.43
			c-0.046,11.048-0.032,22.261-0.021,33.104c0.005,4.654,0.01,9.31,0.01,13.964c0.001,4.998-0.014,9.995-0.029,14.991
			c-0.031,10.954-0.065,22.28,0.077,33.478c0.147,11.365,2.739,21.686,7.703,30.674c5.137,9.303,12.686,16.965,22.434,22.773
			c19.551,11.65,39.586,23.094,58.96,34.16c8.29,4.734,16.86,9.632,25.265,14.469c10.5,6.047,21.324,9.113,32.169,9.113
			c10.875,0,21.724-3.083,32.246-9.163c7.362-4.254,14.717-8.521,22.072-12.788c18.987-11.018,38.624-22.409,58.027-33.359
			c22.288-12.574,34.14-32.397,34.269-57.33c0.174-33.43,0.171-64.441-0.012-94.812c-0.14-23.906-10.963-42.899-31.3-54.926
			c-15.895-9.399-32.134-18.733-47.838-27.761c-10.986-6.316-22.35-12.848-33.465-19.327C169.605,3.26,158.235,0,146.838,0
			L146.838,0z"/>
		<g>
			<path fill="#FFFFFF" d="M72.166,157.517c-1.758,1.318-1.758,2.783,0,4.102l37.346,30.021c3.367,2.489,3.809,7.176,1.025,10.545
				c-2.784,3.369-7.18,3.659-10.545,0.879l-39.104-31.633c-8.934-7.617-8.934-16.111,0-23.728l39.104-31.634
				c3.365-2.782,7.762-2.489,10.545,0.878c2.781,3.369,2.342,8.056-1.025,10.545L72.166,157.517z"/>
			<path fill="#FFFFFF" d="M146.707,210.68c-1.758,4.104-6.15,6.004-10.105,4.395c-3.953-1.61-5.713-6.004-4.1-10.104l38.369-96.366
				c1.609-4.1,6.006-6.149,9.959-4.539c3.955,1.61,5.857,6.004,4.102,10.105L146.707,210.68z"/>
			<path fill="#FFFFFF" d="M200.306,210.68c-1.758,4.104-6.15,6.004-10.104,4.395c-3.953-1.61-5.711-6.004-4.102-10.104
				l38.371-96.366c1.609-4.1,6.004-6.149,9.959-4.539c3.953,1.61,5.857,6.004,4.1,10.105L200.306,210.68z"/>
		</g>
	</g>
	<g>
		<path fill="#FFFFFF" d="M415.726,129.837l-14.365-24.576c-0.635,0.081-1.623,0.119-2.969,0.119h-18.758v24.457h-15.91V46.729
			h34.668c10.764,0,19.074,2.493,24.934,7.479c5.855,4.986,8.785,12.032,8.785,21.133c0,6.491-1.406,12.033-4.215,16.623
			c-2.811,4.59-6.906,8.033-12.289,10.328l18.283,27.544L415.726,129.837L415.726,129.837z M379.634,91.37h18.758
			c6.016,0,10.604-1.306,13.771-3.918c3.164-2.611,4.748-6.488,4.748-11.635c0-5.064-1.584-8.863-4.748-11.396
			c-3.168-2.533-7.758-3.801-13.771-3.801h-18.758V91.37z"/>
		<path fill="#FFFFFF" d="M509.815,51.241c6.768,3.722,12.088,8.826,15.969,15.315c3.877,6.491,5.816,13.694,5.816,21.608
			c0,7.915-1.939,15.138-5.816,21.667c-3.881,6.529-9.202,11.694-15.969,15.494c-6.768,3.799-14.268,5.698-22.5,5.698
			c-8.23,0-15.729-1.899-22.498-5.698c-6.768-3.8-12.09-8.965-15.969-15.494c-3.879-6.529-5.816-13.752-5.816-21.667
			c0-7.914,1.938-15.117,5.816-21.608c3.879-6.489,9.201-11.594,15.969-15.315c6.77-3.719,14.268-5.58,22.498-5.58
			C495.548,45.661,503.048,47.522,509.815,51.241z M473.425,63.647c-4.354,2.494-7.797,5.896-10.328,10.211
			c-2.535,4.315-3.799,9.082-3.799,14.307c0,5.224,1.283,10.014,3.855,14.366c2.57,4.353,6.018,7.796,10.328,10.329
			c4.314,2.534,9.004,3.799,14.07,3.799c4.984,0,9.614-1.265,13.891-3.799c4.275-2.533,7.658-5.977,10.152-10.329
			c2.492-4.354,3.737-9.143,3.737-14.366c0-5.225-1.245-9.991-3.737-14.307c-2.494-4.314-5.877-7.717-10.152-10.211
			c-4.274-2.492-8.904-3.739-13.891-3.739C482.487,59.908,477.778,61.155,473.425,63.647z"/>
		<path fill="#FFFFFF" d="M611.978,46.729l-30.275,55.919v27.188h-15.908v-26.594l-30.986-56.514h16.146L573.63,85.79l22.316-39.061
			H611.978z"/>
		<path fill="#FFFFFF" d="M677.632,129.837l-7.361-17.57h-40.604l-7.358,17.57h-16.504l36.448-83.107h16.503l35.975,83.107H677.632z
			 M635.364,98.612h29.207l-14.482-34.905L635.364,98.612z"/>
		<path fill="#FFFFFF" d="M704.819,46.729h15.908v68.742h35.854v14.365h-51.763L704.819,46.729L704.819,46.729z"/>
		<path fill="#FFFFFF" d="M363.724,189.2h15.91v35.499h41.434V189.2h15.91v83.106h-15.91V238.59h-41.434v33.719h-15.91V189.2z"/>
		<path fill="#FFFFFF" d="M519.017,272.309l-7.361-17.572H471.05l-7.359,17.572h-16.504l36.449-83.106h16.504l35.973,83.106H519.017
			z M476.751,241.082h29.203l-14.482-34.904L476.751,241.082z"/>
		<path fill="#FFFFFF" d="M593.871,205.229c-3.994-1.899-8.053-2.851-12.168-2.851c-5.146,0-9.854,1.229-14.129,3.683
			c-4.274,2.455-7.639,5.838-10.092,10.149c-2.453,4.315-3.68,9.044-3.68,14.188c0,5.146,1.227,9.875,3.68,14.188
			s5.816,7.717,10.092,10.21c4.273,2.493,8.982,3.74,14.129,3.74c3.955,0,7.936-0.87,11.934-2.612
			c3.996-1.74,7.539-4.156,10.625-7.242l9.379,10.447c-4.354,4.434-9.418,7.938-15.195,10.51c-5.779,2.57-11.637,3.856-17.572,3.856
			c-7.994,0-15.312-1.9-21.965-5.699c-6.646-3.799-11.871-8.963-15.672-15.493c-3.799-6.529-5.697-13.752-5.697-21.668
			c0-7.912,1.938-15.115,5.816-21.607c3.879-6.487,9.16-11.594,15.852-15.313c6.688-3.721,14.107-5.58,22.262-5.58
			c5.938,0,11.754,1.188,17.451,3.562c5.699,2.375,10.566,5.658,14.604,9.854l-9.26,11.636
			C601.33,209.779,597.867,207.127,593.871,205.229z"/>
		<path fill="#FFFFFF" d="M700.903,272.309h-19.115l-26.117-35.617l-13.061,14.365v21.252h-15.91V189.2h15.91v41.435l37.518-41.435
			h18.758l-31.938,35.143L700.903,272.309z"/>
		<path fill="#FFFFFF" d="M774.394,272.309l-7.361-17.572h-40.604l-7.359,17.572h-16.504l36.449-83.106h16.502l35.975,83.106
			H774.394z M732.128,241.082h29.203l-14.482-34.904L732.128,241.082z"/>
		<path fill="#FFFFFF" d="M896.323,189.2h16.504l-28.137,83.106h-16.504l-18.996-63.043l-19.352,63.043H813.57L785.554,189.2h17.098
			l19.588,65.893l19.475-65.893h15.672l19.588,66.129L896.323,189.2z"/>
		<path fill="#FFFFFF" d="M978.72,272.309l-7.361-17.572h-40.604l-7.361,17.572h-16.502l36.447-83.106h16.504l35.973,83.106H978.72z
			 M936.453,241.082h29.205l-14.482-34.904L936.453,241.082z"/>
		<path fill="#FFFFFF" d="M1066.696,189.2l-30.273,55.919v27.188h-15.91v-26.595l-30.99-56.512h16.146l22.678,39.061l22.318-39.061
			H1066.696z"/>
	</g>
</g>
</svg>
