<?xml version="1.0" encoding="utf-8"?>
<!-- Generator: Adobe Illustrator 16.0.0, SVG Export Plug-In . SVG Version: 6.00 Build 0)  -->
<!DOCTYPE svg PUBLIC "-//W3C//DTD SVG 1.1//EN" "http://www.w3.org/Graphics/SVG/1.1/DTD/svg11.dtd">
<svg version="1.1" id="Layer_1" xmlns="http://www.w3.org/2000/svg" xmlns:xlink="http://www.w3.org/1999/xlink" x="0px" y="0px"
	 width="226.77px" height="113.39px" viewBox="0 0 226.77 113.39" enable-background="new 0 0 226.77 113.39" xml:space="preserve">
<rect y="0.003" fill="#F37021" width="113.387" height="113.386"/>
<rect x="113.387" y="0.003" fill="#1C2B39" width="113.386" height="113.387"/>
<g>
	<path fill="#FFFFFF" d="M128.498,59.867l-3.024-4.86h-1.728v2.124c0,0.685,0.018,2.089,0.054,2.593h-2.484
		c0.091-0.864,0.126-3.169,0.126-4.339v-3.979c0-1.151-0.035-3.475-0.126-4.338c0.648,0,2.772-0.072,3.601-0.09
		c3.366-0.036,5.202,1.656,5.148,3.744c-0.036,1.764-0.918,2.916-2.574,3.708l1.944,2.826c0.449,0.648,1.313,1.836,1.71,2.358
		L128.498,59.867z M125.366,53.261c1.512,0,2.412-0.99,2.412-2.215c0-1.386-0.811-2.196-2.646-2.196
		c-0.504,0-0.972,0.019-1.404,0.055v4.356H125.366z"/>
	<path fill="#FFFFFF" d="M131.611,53.729c0-3.924,2.646-6.966,6.535-6.966c3.708,0,6.192,2.88,6.192,6.318
		c0,3.924-2.646,6.967-6.535,6.967C134.096,60.048,131.611,57.167,131.611,53.729z M142.034,53.423c0-2.971-1.728-4.788-4.032-4.788
		c-2.448,0-4.086,2.178-4.086,4.752c0,2.97,1.71,4.788,4.032,4.788C140.396,58.175,142.034,55.997,142.034,53.423z"/>
	<path fill="#FFFFFF" d="M146.696,46.924l3.294,5.455l0.99-1.566c0.702-1.098,1.62-2.683,2.268-3.78h2.593l-4.734,7.236v2.862
		c0,0.685,0.018,2.089,0.054,2.593h-2.484c0.091-0.864,0.126-3.169,0.126-4.339v-1.044l-1.89-2.971
		c-0.757-1.224-1.999-3.168-2.754-4.302L146.696,46.924z"/>
	<path fill="#FFFFFF" d="M157.874,50.506c0.684-1.512,1.134-2.538,1.53-3.563l1.151-0.145l4.213,9.253
		c0.521,1.135,1.188,2.593,1.746,3.673l-2.502,0.144l-1.459-3.366h-5.094l-0.019,0.054c-0.359,0.883-0.918,2.305-1.278,3.169h-2.447
		L157.874,50.506z M158.144,54.827h3.709l-1.854-4.393L158.144,54.827z"/>
	<path fill="#FFFFFF" d="M176.168,59.795c-1.116-0.071-2.466-0.09-3.816-0.09s-2.754,0.019-3.888,0.09
		c0.09-0.864,0.126-3.258,0.126-4.41v-3.979c0-1.151-0.036-3.475-0.126-4.338c0.701,0,1.908-0.019,2.502-0.09
		c-0.054,0.521-0.072,1.962-0.072,2.664v7.11c0,0.271,0,0.738,0.036,1.062c0.486,0.018,1.026,0.018,1.548,0.018
		c1.423,0,2.646-0.018,3.835-0.036C176.24,58.428,176.187,59.075,176.168,59.795z"/>
</g>
<g>
	<path fill="#FFFFFF" d="M129.632,77.237c0.108-0.863,0.145-3.096,0.145-4.266v-1.368h-6.013v3.042c0,0.685,0.019,2.089,0.072,2.592
		h-2.503c0.091-0.863,0.126-3.168,0.126-4.338v-3.979c0-1.152-0.035-3.474-0.126-4.339c0.702,0,1.909-0.018,2.503-0.09
		c-0.054,0.522-0.072,1.963-0.072,2.664v2.629h6.013v-0.864c0-1.152-0.036-3.474-0.145-4.339c0.721,0,1.926-0.018,2.503-0.09
		c-0.036,0.522-0.055,1.963-0.055,2.664v7.489c0,0.685,0.019,2.089,0.055,2.592H129.632z"/>
	<path fill="#FFFFFF" d="M134.348,71.243c0-3.925,2.646-6.967,6.534-6.967c3.708,0,6.192,2.88,6.192,6.319
		c0,3.924-2.646,6.966-6.534,6.966C136.832,77.562,134.348,74.682,134.348,71.243z M144.771,70.937c0-2.97-1.729-4.787-4.032-4.787
		c-2.448,0-4.087,2.178-4.087,4.752c0,2.97,1.71,4.788,4.032,4.788C143.132,75.689,144.771,73.512,144.771,70.937z"/>
	<path fill="#FFFFFF" d="M156.561,77.31c-1.116-0.072-2.467-0.09-3.816-0.09c-1.351,0-2.755,0.018-3.889,0.09
		c0.091-0.864,0.126-3.258,0.126-4.41v-3.979c0-1.152-0.035-3.474-0.126-4.339c0.702,0,1.908-0.018,2.502-0.09
		c-0.054,0.522-0.071,1.963-0.071,2.664v7.111c0,0.27,0,0.737,0.036,1.062c0.485,0.018,1.025,0.018,1.548,0.018
		c1.422,0,2.646-0.018,3.835-0.036C156.632,75.941,156.578,76.59,156.561,77.31z"/>
	<path fill="#FFFFFF" d="M166.335,77.31c-1.117-0.072-2.466-0.09-3.816-0.09s-2.755,0.018-3.889,0.09
		c0.09-0.864,0.126-3.258,0.126-4.41v-3.979c0-1.152-0.036-3.474-0.126-4.339c0.702,0,1.908-0.018,2.502-0.09
		c-0.054,0.522-0.071,1.963-0.071,2.664v7.111c0,0.27,0,0.737,0.035,1.062c0.486,0.018,1.026,0.018,1.549,0.018
		c1.422,0,2.646-0.018,3.834-0.036C166.406,75.941,166.353,76.59,166.335,77.31z"/>
	<path fill="#FFFFFF" d="M166.496,71.243c0-3.925,2.646-6.967,6.534-6.967c3.709,0,6.192,2.88,6.192,6.319
		c0,3.924-2.646,6.966-6.534,6.966C168.979,77.562,166.496,74.682,166.496,71.243z M176.919,70.937c0-2.97-1.729-4.787-4.032-4.787
		c-2.448,0-4.087,2.178-4.087,4.752c0,2.97,1.711,4.788,4.033,4.788C175.28,75.689,176.919,73.512,176.919,70.937z"/>
	<path fill="#FFFFFF" d="M194.325,73.817c-0.559,1.53-0.918,2.538-1.261,3.582l-1.098,0.126l-3.24-8.856l-1.962,5.383
		c-0.343,0.972-0.828,2.124-1.297,3.456h-1.115l-3.295-9.217c-0.396-1.135-0.918-2.593-1.35-3.673l2.466-0.144l2.916,8.946
		l2.017-5.725c0.216-0.684,0.9-2.556,1.134-3.222l1.08-0.145l3.187,9.073l1.764-5.599l0.99-3.204h2.449L194.325,73.817z"/>
	<path fill="#FFFFFF" d="M199.958,68.021c0.684-1.512,1.134-2.538,1.53-3.564l1.152-0.144l4.212,9.253
		c0.522,1.134,1.188,2.592,1.747,3.672l-2.503,0.145l-1.458-3.366h-5.095l-0.018,0.054c-0.36,0.883-0.919,2.305-1.278,3.168H195.8
		L199.958,68.021z M200.229,72.341h3.708l-1.854-4.392L200.229,72.341z"/>
	<path fill="#FFFFFF" d="M209.731,64.438l3.295,5.455l0.99-1.566c0.702-1.099,1.62-2.683,2.268-3.78h2.593l-4.734,7.236v2.862
		c0,0.685,0.018,2.089,0.054,2.592h-2.484c0.091-0.863,0.126-3.168,0.126-4.338v-1.044l-1.89-2.971
		c-0.756-1.224-1.999-3.168-2.755-4.303L209.731,64.438z"/>
</g>
<g>
	<path fill="#F37021" d="M131.393,84.594v4.447c0,1.944-0.456,3.044-1.369,3.923c-0.913,0.913-2.165,1.404-3.839,1.404
		c-2.807,0-4.769-1.657-4.769-4.465v-3.652c0-1.083-0.034-3.264-0.119-4.075c0.677,0,1.793-0.018,2.351-0.085
		c-0.05,0.49-0.067,1.843-0.067,2.503v4.752c0,2.316,1.116,3.179,2.892,3.179c1.759,0,2.757-1.065,2.757-2.858v-3.415
		c0-1.083-0.034-3.264-0.136-4.075c0.677,0,1.81-0.018,2.385-0.085C131.409,82.581,131.393,83.934,131.393,84.594z"/>
	<path fill="#F37021" d="M133.626,89.987l0.051-3.99c0.017-1.083,0-3.129-0.067-3.94l1.014-0.136l7.137,8.405v-4.075
		c0-1.083-0.033-3.264-0.135-4.075c0.659,0,1.759-0.018,2.333-0.085c-0.067,0.49-0.118,1.843-0.135,2.503l-0.068,7.119
		c-0.017,0.643-0.033,2.012,0.034,2.485l-1.015,0.136l-7.103-8.304v5.598c0,0.659,0.017,1.962,0.067,2.436h-2.299
		C133.541,93.251,133.609,91.087,133.626,89.987z"/>
	<path fill="#F37021" d="M146.462,94.063c0.084-0.812,0.118-2.977,0.118-4.076v-3.736c0-1.083-0.034-3.264-0.118-4.075
		c0.677,0,1.792-0.018,2.351-0.085c-0.051,0.49-0.067,1.843-0.067,2.503v7.034c0,0.643,0.017,1.962,0.067,2.436H146.462z"/>
	<path fill="#F37021" d="M153.04,82.074l3.434,8.606l2.113-5.462c0.372-0.997,0.777-2.079,1.116-3.026h2.351l-3.704,8.658
		c-0.625,1.437-1.014,2.384-1.335,3.365l-1.082,0.118l-3.721-8.676c-0.44-1.064-1.049-2.435-1.522-3.449L153.04,82.074z"/>
	<path fill="#F37021" d="M170.983,94.131c-1.049-0.067-2.334-0.085-3.568-0.085c-1.285,0-2.654,0.018-3.721,0.085
		c0.085-0.812,0.119-3.044,0.119-4.144v-3.736c0-1.083-0.034-3.365-0.119-4.177c1.066,0.05,2.267,0.084,3.568,0.084
		c1.251,0,2.436-0.034,3.501-0.084c-0.085,0.592-0.119,1.149-0.136,1.826c-0.964-0.018-1.944-0.034-3.095-0.034
		c-0.507,0-1.064,0-1.556,0.017c-0.017,0.288-0.017,0.728-0.017,0.947v2.198l4.008-0.033c-0.034,0.49-0.051,1.115-0.051,1.725
		l-3.957-0.034v2.672c0,0.236,0,0.677,0.017,0.964c0.508,0,1.049,0.017,1.556,0.017c1.319,0,2.452-0.017,3.568-0.051
		C171.034,92.862,171,93.454,170.983,94.131z"/>
	<g>
		<path fill="#F37021" d="M179.66,94.198l-2.842-4.565h-1.623v1.995c0,0.643,0.017,1.962,0.051,2.436h-2.334
			c0.085-0.812,0.118-2.977,0.118-4.076v-3.736c0-1.083-0.033-3.264-0.118-4.075c0.609,0,2.604-0.068,3.383-0.085
			c3.162-0.034,4.887,1.556,4.836,3.517c-0.034,1.658-0.862,2.74-2.418,3.484l1.825,2.654c0.424,0.609,1.235,1.726,1.607,2.216
			L179.66,94.198z M176.717,87.992c1.421,0,2.267-0.93,2.267-2.08c0-1.302-0.762-2.063-2.486-2.063
			c-0.473,0-0.913,0.018-1.319,0.052v4.092H176.717z"/>
	</g>
	<path fill="#F37021" d="M186.746,94.368c-1.184,0-2.621-0.44-3.518-0.998l0.102-2.113c0.711,0.608,2.165,1.284,3.5,1.284
		c1.134,0,1.895-0.574,1.895-1.657c0-2.08-5.09-2.3-5.09-5.479c0-2.063,1.606-3.518,3.873-3.518c1.183,0,2.282,0.389,2.976,0.88
		l-0.541,1.775c-0.643-0.457-1.623-0.829-2.418-0.829c-1.065,0-1.776,0.609-1.776,1.505c0,1.962,5.074,2.08,5.074,5.462
		C190.822,92.829,189.232,94.368,186.746,94.368z"/>
	<path fill="#F37021" d="M192.665,94.063c0.085-0.812,0.119-2.977,0.119-4.076v-3.736c0-1.083-0.034-3.264-0.119-4.075
		c0.677,0,1.793-0.018,2.351-0.085c-0.051,0.49-0.067,1.843-0.067,2.503v7.034c0,0.643,0.017,1.962,0.067,2.436H192.665z"/>
	<path fill="#F37021" d="M206.888,83.984c-1.252-0.017-2.351-0.033-3.822-0.033c-0.017,0.354-0.017,0.794-0.017,1.082v6.595
		c0,0.643,0.017,1.962,0.067,2.436h-2.351c0.084-0.812,0.118-2.977,0.118-4.076v-3.331c0-0.693,0-1.792-0.034-2.705
		c-1.47,0-2.638,0.017-3.889,0.033c0.051-0.558,0.067-1.268,0.067-1.91c1.556,0.05,3.078,0.084,4.938,0.084
		c1.894,0,3.466-0.034,5.056-0.084C206.938,82.683,206.904,83.258,206.888,83.984z"/>
	<path fill="#F37021" d="M210.423,82.04l3.094,5.124l0.931-1.472c0.659-1.031,1.521-2.52,2.131-3.551h2.435l-4.447,6.798v2.688
		c0,0.643,0.017,1.962,0.051,2.436h-2.333c0.084-0.812,0.118-2.977,0.118-4.076v-0.98l-1.775-2.79
		c-0.711-1.15-1.878-2.977-2.588-4.041L210.423,82.04z"/>
</g>
<g>
	<g>
		<path fill="#F37021" d="M121.392,102.422c0-2.081,1.402-3.693,3.464-3.693c1.966,0,3.283,1.526,3.283,3.35
			c0,2.08-1.403,3.693-3.464,3.693C122.708,105.771,121.392,104.245,121.392,102.422z M126.917,102.26
			c0-1.575-0.916-2.539-2.138-2.539c-1.298,0-2.167,1.155-2.167,2.52c0,1.575,0.907,2.539,2.138,2.539
			C126.049,104.779,126.917,103.624,126.917,102.26z"/>
	</g>
	<g>
		<path fill="#F37021" d="M133.274,99.874c-0.544-0.01-1.098-0.02-1.746-0.02c-0.287,0-0.592,0-0.869,0.01
			c-0.009,0.172-0.009,0.42-0.009,0.554v1.308l2.176-0.01c-0.02,0.286-0.028,0.62-0.028,0.974l-2.147-0.02v1.556
			c0,0.372,0,1.107,0.038,1.374h-1.327c0.048-0.458,0.067-1.68,0.067-2.3v-2.109c0-0.61-0.02-1.899-0.067-2.357
			c0.602,0.029,1.279,0.048,2.014,0.048c0.707,0,1.374-0.019,1.967-0.048C133.303,99.177,133.284,99.482,133.274,99.874z"/>
	</g>
	<path fill="#F37021" d="M140.425,105.638c-0.592-0.038-1.308-0.048-2.023-0.048s-1.46,0.01-2.062,0.048
		c0.048-0.458,0.067-1.728,0.067-2.338v-2.109c0-0.61-0.02-1.842-0.067-2.3c0.372,0,1.012-0.01,1.326-0.048
		c-0.028,0.277-0.038,1.041-0.038,1.412v3.771c0,0.143,0,0.392,0.02,0.562c0.257,0.01,0.544,0.01,0.82,0.01
		c0.754,0,1.403-0.01,2.033-0.019C140.463,104.913,140.435,105.257,140.425,105.638z"/>
	<path fill="#F37021" d="M140.855,102.422c0-2.081,1.402-3.693,3.464-3.693c1.967,0,3.283,1.526,3.283,3.35
		c0,2.08-1.403,3.693-3.464,3.693C142.172,105.771,140.855,104.245,140.855,102.422z M146.381,102.26
		c0-1.575-0.916-2.539-2.138-2.539c-1.298,0-2.166,1.155-2.166,2.52c0,1.575,0.906,2.539,2.137,2.539
		C145.513,104.779,146.381,103.624,146.381,102.26z"/>
	<path fill="#F37021" d="M148.873,103.3l0.029-2.253c0.009-0.61,0-1.765-0.039-2.224l0.573-0.076l4.027,4.743v-2.3
		c0-0.61-0.02-1.842-0.076-2.3c0.372,0,0.992-0.01,1.316-0.048c-0.038,0.277-0.066,1.041-0.076,1.412l-0.038,4.019
		c-0.009,0.362-0.019,1.136,0.02,1.403l-0.572,0.076l-4.009-4.687v3.159c0,0.372,0.009,1.107,0.038,1.374h-1.298
		C148.826,105.142,148.863,103.92,148.873,103.3z"/>
	<g>
		<path fill="#F37021" d="M158.428,105.6h-2.166c0.048-0.458,0.067-1.68,0.067-2.3v-2.109c0-0.61-0.02-1.842-0.067-2.3
			c0.344,0,1.031-0.048,1.976-0.048c2.424,0,3.713,1.394,3.713,3.216C161.95,104.158,160.547,105.6,158.428,105.6z M158.285,99.836
			c-0.268,0-0.496,0.009-0.726,0.028c-0.01,0.162-0.01,0.41-0.01,0.554v3.646c0,0.152,0,0.324,0.01,0.496
			c0.249,0.028,0.439,0.048,0.754,0.048c1.728,0,2.415-1.107,2.415-2.443C160.729,100.752,159.859,99.836,158.285,99.836z"/>
	</g>
	<path fill="#F37021" d="M163.154,102.392c0-2.099,1.415-3.726,3.494-3.726c1.984,0,3.313,1.54,3.313,3.379
		c0,2.1-1.416,3.727-3.496,3.727C164.482,105.771,163.154,104.231,163.154,102.392z M168.729,102.229
		c0-1.589-0.925-2.562-2.157-2.562c-1.31,0-2.186,1.165-2.186,2.542c0,1.589,0.914,2.562,2.156,2.562
		C167.853,104.771,168.729,103.604,168.729,102.229z"/>
	<path fill="#F37021" d="M171.244,103.277l0.029-2.272c0.009-0.616,0-1.781-0.039-2.243l0.578-0.077l4.063,4.786v-2.321
		c0-0.616-0.02-1.858-0.077-2.32c0.375,0,1.001-0.01,1.328-0.048c-0.038,0.279-0.067,1.049-0.076,1.425l-0.039,4.054
		c-0.009,0.366-0.019,1.146,0.02,1.416l-0.578,0.076l-4.044-4.728v3.188c0,0.376,0.01,1.117,0.038,1.387h-1.31
		C171.195,105.137,171.234,103.903,171.244,103.277z"/>
</g>
<g>
	<g>
		<path fill="#FFFFFF" d="M39.68,95.818c0.081-0.004,0.168-0.021,0.262-0.114c0.01-0.01,0.018-0.02,0.025-0.029
			c0.006-0.007,0.011-0.014,0.017-0.02l0.04-0.04l-0.378-0.191l-0.021,0.026c-0.029,0.039-0.069,0.086-0.111,0.129
			c-0.031,0.031-0.059,0.047-0.081,0.047c-0.028,0-0.056-0.026-0.081-0.053l-0.918-0.912c0.271,0.011,0.493-0.018,0.605-0.08
			l0.37-0.215l0.487,0.44l0.284,0.004l-0.561-0.569l0.786-0.466l0.333,0.333c0.087,0.085,0.095,0.121,0.001,0.37l-0.02,0.051
			l0.425,0.024l0.014-0.015c0.104-0.119,0.099-0.227-0.015-0.34l-0.544-0.541l0.104-0.068l-0.317-0.143
			c-0.267-0.231-0.387-0.321-0.493-0.373c-0.14-0.063-0.275-0.105-0.404-0.122l-0.06-0.008l0.062,0.24l0.037-0.007
			c0.02-0.003,0.039-0.006,0.061-0.006c0.141,0,0.294,0.084,0.459,0.248l0.079,0.077l-0.802,0.475l-0.292-0.015l0.104,0.128
			c-0.212,0.14-0.373,0.23-0.579,0.331c-0.065,0.033-0.118,0.049-0.171,0.049c-0.093,0-0.2-0.048-0.343-0.125l-0.01-0.005
			l-0.31,0.001l0.478,0.475c0.093,0.092,0.284,0.297,0.433,0.459c0.061,0.067,0.114,0.128,0.162,0.183
			c0.072,0.083,0.13,0.148,0.176,0.193c0.12,0.12,0.214,0.177,0.55,0.177C39.57,95.822,39.622,95.82,39.68,95.818z"/>
		<path fill="#FFFFFF" d="M41.554,95.962c-0.07-0.263-0.029-0.371,0.083-0.504c0.069-0.079,0.217-0.16,0.365-0.16
			c0.087,0,0.162,0.026,0.224,0.08c0.124,0.106,0.128,0.19,0.019,0.394l-0.028,0.054l0.429,0.047l0.014-0.021
			c0.148-0.23,0.052-0.442-0.089-0.563c-0.2-0.173-0.516-0.191-0.607-0.193h-0.026c-0.277,0-0.532,0.113-0.702,0.31
			c-0.184,0.215-0.136,0.446-0.089,0.671c0.045,0.217,0.088,0.421-0.073,0.606c-0.113,0.132-0.276,0.208-0.448,0.208
			c-0.151,0-0.3-0.06-0.43-0.172c-0.212-0.182-0.245-0.421-0.216-0.538c0.007-0.029,0.033-0.103,0.12-0.261l0.03-0.055l-0.151-0.012
			l-0.42,0.259v0.022c-0.002,0.28,0.088,0.467,0.319,0.665c0.222,0.191,0.488,0.289,0.794,0.289c0.019,0,0.038-0.001,0.057-0.002
			c0.352-0.013,0.617-0.122,0.791-0.323C41.675,96.58,41.681,96.445,41.554,95.962z"/>
		<path fill="#FFFFFF" d="M43.018,97.904c0.146-0.191,0.144-0.327-0.016-0.802c-0.086-0.258-0.052-0.368,0.053-0.507
			c0.068-0.09,0.225-0.185,0.38-0.185c0.076,0,0.145,0.022,0.202,0.066c0.131,0.099,0.14,0.183,0.044,0.393l-0.025,0.055
			l0.431,0.019l0.012-0.021c0.135-0.238,0.024-0.444-0.124-0.558c-0.185-0.14-0.456-0.154-0.564-0.154c-0.019,0-0.037,0-0.053,0.001
			c-0.287,0.01-0.545,0.14-0.707,0.354c-0.171,0.226-0.107,0.454-0.047,0.676c0.059,0.213,0.114,0.413-0.034,0.61
			c-0.112,0.148-0.289,0.236-0.473,0.236c-0.138,0-0.276-0.05-0.401-0.145c-0.224-0.169-0.272-0.406-0.25-0.524
			c0.005-0.029,0.026-0.104,0.104-0.267l0.026-0.057l-0.152-0.003l-0.403,0.285l0.001,0.022c0.017,0.279,0.118,0.46,0.361,0.645
			c0.211,0.159,0.454,0.239,0.726,0.239c0.046,0,0.094-0.002,0.142-0.007C42.594,98.243,42.859,98.114,43.018,97.904z"/>
		<path fill="#FFFFFF" d="M46.156,97.849l-0.646-0.412l0.087-0.088l-0.34-0.073c-0.31-0.168-0.446-0.23-0.563-0.259
			c-0.184-0.039-0.345-0.048-0.481-0.025l-0.05,0.008l0.099,0.253l0.042-0.026c0.154-0.101,0.362-0.067,0.616,0.095l0.094,0.06
			l-0.682,0.635l-0.288,0.049l0.129,0.103c-0.178,0.18-0.314,0.303-0.495,0.445c-0.079,0.065-0.144,0.091-0.228,0.091
			c-0.068,0-0.152-0.017-0.291-0.056l-0.01-0.003l-0.303,0.066l0.567,0.363c0.125,0.079,0.402,0.272,0.521,0.354
			c0.066,0.049,0.127,0.094,0.181,0.134c0.096,0.07,0.172,0.127,0.229,0.164c0.079,0.05,0.156,0.092,0.29,0.092
			c0.103,0,0.237-0.023,0.438-0.075c0.077-0.02,0.158-0.054,0.23-0.167c0.007-0.011,0.013-0.022,0.018-0.032
			c0.005-0.008,0.009-0.016,0.014-0.023l0.031-0.047l-0.412-0.109l-0.014,0.031c-0.021,0.047-0.05,0.102-0.082,0.149
			c-0.041,0.064-0.069,0.064-0.079,0.064c-0.024,0-0.052-0.018-0.08-0.035l-1.091-0.696c0.269-0.046,0.475-0.119,0.576-0.207
			l0.314-0.288l0.57,0.326l0.277-0.058l-0.668-0.438l0.668-0.621l0.397,0.253c0.102,0.065,0.118,0.102,0.079,0.361l-0.008,0.055
			l0.42-0.066l0.01-0.018C46.318,98.04,46.291,97.937,46.156,97.849z"/>
		<path fill="#FFFFFF" d="M50.295,99.58c-0.327-0.119-0.765-0.115-1.137,0.004c-0.482,0.154-0.846,0.628-0.991,1.029
			c-0.115,0.314-0.127,0.576-0.033,0.776c0.078,0.168,0.229,0.295,0.451,0.375c0.057,0.021,0.165,0.057,0.216,0.065l0.016,0.002
			c0.031,0.005,0.061,0.01,0.091,0.013c0.203,0.519,0.436,0.896,0.892,1.062c0.132,0.048,0.238,0.07,0.336,0.07
			c0.106,0,0.202-0.028,0.283-0.084l0.019-0.014l-0.08-0.597c-0.039,0-0.062,0.197-0.084,0.246
			c-0.095,0.202-0.197,0.271-0.341,0.219c-0.062-0.023-0.286-0.156-0.567-0.907c0.154-0.022,0.301-0.065,0.436-0.128
			c0.372-0.167,0.725-0.58,0.896-1.051C50.896,100.114,50.761,99.75,50.295,99.58z M50.268,100.553
			c-0.284,0.777-0.676,1.021-0.967,1.085l-0.021-0.077l-0.346,0.072l-0.055-0.021c-0.2-0.072-0.315-0.212-0.344-0.414
			c-0.026-0.187,0.026-0.386,0.075-0.52c0.216-0.59,0.672-1.002,1.111-1.002c0.082,0,0.164,0.015,0.243,0.043
			C50.126,99.778,50.477,99.977,50.268,100.553z"/>
		<path fill="#FFFFFF" d="M53.244,102.729c-0.152-0.019-0.206-0.026-0.383-0.066c-0.029-0.007-0.038-0.014-0.041-0.019
			c-0.011-0.017,0.004-0.079,0.01-0.105c0.028-0.119,0.08-0.226,0.171-0.404l0.864-1.696l-0.059-0.006
			c-0.499-0.051-0.555-0.05-0.681,0.062l-0.054,0.048l0.258,0.078l-0.866,1.697c-0.277,0.091-0.537,0.119-0.703,0.081
			c-0.232-0.054-0.316-0.21-0.256-0.475c0.121-0.529,0.652-1.211,1.095-1.619c0.027-0.023,0.044-0.042,0.049-0.067
			c0.007-0.026,0-0.045-0.007-0.056c-0.008-0.013-0.021-0.022-0.037-0.025l-0.014-0.001c-0.016,0-0.035,0.004-0.063,0.01
			c-0.03,0.006-0.066,0.015-0.108,0.019c-0.137-0.058-0.268-0.103-0.351-0.12c-0.107-0.025-0.183-0.036-0.25-0.036
			c-0.068,0-0.133,0.012-0.202,0.035c-0.229,0.075-0.443,0.28-0.585,0.438l-0.043,0.049l0.297,0.081l0.01-0.041
			c0.047-0.207,0.224-0.28,0.372-0.28c0.037,0,0.075,0.004,0.112,0.013c0.117,0.027,0.226,0.086,0.319,0.146
			c-0.396,0.405-0.912,0.984-1.027,1.483c-0.03,0.132-0.047,0.321,0.047,0.472c0.062,0.1,0.164,0.166,0.303,0.198
			c0.052,0.012,0.121,0.018,0.206,0.018c0.244,0,0.563-0.049,0.751-0.087l-0.045,0.168l0.001,0.008
			c0.007,0.049,0.039,0.105,0.108,0.126l0.555,0.048l0.011,0.001c0.078,0,0.22-0.073,0.257-0.102l0.074-0.061L53.244,102.729z
			 M53.008,102.86L53.008,102.86L53.008,102.86L53.008,102.86z"/>
		<path fill="#FFFFFF" d="M55.81,102.915c-0.073-0.007-0.116-0.019-0.131-0.035c-0.009-0.011-0.011-0.029-0.008-0.064
			c0.013-0.139,0.321-1.878,0.411-2.206l0.006-0.023l-0.081-0.078l-0.028,0.023c-0.111,0.093-0.157,0.117-0.219,0.111
			c-0.069-0.006-0.153-0.027-0.238-0.049c-0.095-0.026-0.206-0.045-0.33-0.056c-0.107-0.01-0.215-0.002-0.3,0.029
			c-0.13,0.049-0.364,0.229-0.481,0.33c-0.082,0.071-0.146,0.151-0.189,0.236l-0.028,0.056l0.312,0.017l0.004-0.039
			c0.021-0.215,0.208-0.331,0.5-0.303c0.112,0.011,0.346,0.062,0.479,0.118l-0.949,1.111c-0.465,0.547-0.558,0.59-0.871,0.561
			c-0.015-0.001-0.04-0.006-0.07-0.011c-0.027-0.006-0.059-0.012-0.089-0.017l-0.027-0.003l-0.18,0.312l-0.023,0.044l0.049,0.015
			c0.059,0.019,0.099,0.03,0.18,0.038c0.292,0.027,0.486-0.002,0.948-0.541l0.221-0.258l0.683,0.062l-0.162,0.774l0.002,0.009
			c0.014,0.056,0.059,0.086,0.1,0.112l0.012,0.009l0.014-0.001c0.242-0.022,0.438-0.045,0.748-0.087l0.018-0.003l0.132-0.176
			l-0.156-0.006C55.959,102.924,55.875,102.922,55.81,102.915z M55.584,101.175l-0.186,0.91l-0.541-0.062L55.584,101.175z"/>
		<path fill="#FFFFFF" d="M60.043,99.993c-0.062,0.002-0.134,0.023-0.161,0.032c-0.044,0.015-0.414,0.275-0.481,0.353
			c-0.056,0.066-0.145,0.187-0.214,0.305l-1.006,1.653l-0.276-1.908l-0.193,0.158c-0.037-0.001-0.076-0.003-0.116-0.006
			c-0.084-0.004-0.172-0.01-0.249-0.006c-0.201,0.01-0.364,0.045-0.506,0.183c-0.118,0.119-0.24,0.288-0.318,0.44l-0.017,0.031
			l0.249,0.169l-0.004-0.081c-0.006-0.13,0.032-0.229,0.114-0.297c0.086-0.069,0.2-0.089,0.281-0.093
			c0.119-0.005,0.271,0.014,0.352,0.024l-0.252,1.22c-0.131,0.627-0.2,0.649-0.547,0.667h-0.02c-0.059,0-0.155-0.007-0.221-0.014
			l-0.029-0.004l-0.166,0.387l0.053,0.006c0.03,0.005,0.05,0.006,0.067,0.006c0.014,0,0.026-0.001,0.042-0.002
			c0.254-0.012,0.373-0.037,0.53-0.113c0.104-0.051,0.386-0.403,0.442-0.661l0.252-1.153l0.231,1.897l0.207-0.173l1.027-1.811
			l-0.345,1.795c0.004,0.086,0.075,0.146,0.145,0.146l0,0c0.241-0.032,0.541-0.093,0.718-0.137l0.012-0.003l0.176-0.191
			l-0.103,0.008c-0.036,0.004-0.074,0.007-0.111,0.011c-0.081,0.007-0.162,0.016-0.234,0.018c-0.139,0.005-0.145-0.037-0.146-0.082
			c-0.001-0.028,0.026-0.191,0.046-0.299l0.346-1.916c0.023-0.133,0.08-0.201,0.176-0.205c0.05,0,0.169,0.023,0.206,0.037
			l0.04,0.014l0.123-0.4l-0.049-0.004C60.091,99.99,60.063,99.991,60.043,99.993z"/>
		<path fill="#FFFFFF" d="M65.03,98.687l-0.013-0.009c-0.078-0.035-0.162-0.049-0.218-0.031c-0.054,0.017-0.088,0.034-0.238,0.231
			l-0.022,0.029l0.027,0.025c0.109,0.099,0.174,0.192,0.208,0.304c0.121,0.382-0.086,1.021-0.213,1.305l-0.441,0.996l-0.314-1.811
			l0.165-0.216l-0.042-0.022c-0.046-0.024-0.086-0.028-0.136-0.014l-0.494,0.156c-0.105,0.031-0.21,0.097-0.313,0.193
			c-0.093,0.105-0.167,0.217-0.222,0.332l-0.023,0.048l0.237,0.038l0.007-0.039c0.034-0.203,0.213-0.311,0.312-0.342
			c0.019-0.006,0.078-0.016,0.123-0.021l0.415,2.33l0.307-0.178c0.095-0.055,0.647-1.439,0.777-1.792
			c0.28-0.771,0.286-1.069,0.197-1.35C65.1,98.798,65.063,98.722,65.03,98.687z"/>
		<path fill="#FFFFFF" d="M66.063,98.829c0.169-0.078,0.201-0.131,0.297-0.311l0.053-0.1l-0.938,0.395
			c-0.043,0.029-0.088,0.121-0.1,0.184l-0.013,0.062l0.336-0.084l0.3,2.072c-0.196,0.092-0.217,0.111-0.3,0.313l-0.037,0.091
			l0.927-0.388c0.058-0.024,0.11-0.088,0.172-0.207l0.041-0.082l-0.406,0.111L66.063,98.829z"/>
		<path fill="#FFFFFF" d="M67.523,97.713l-0.039-0.149l-0.254,0.312c-0.098,0.071-0.185,0.136-0.262,0.212
			c-0.218,0.211-0.368,0.467-0.448,0.762l-0.017,0.061l0.298-0.046l-0.001-0.036c-0.007-0.262,0.138-0.505,0.42-0.706l0.402,1.655
			c0.076,0.31,0.05,0.419-0.291,0.655l-0.012,0.008l-0.106,0.355l0.083-0.04c0.06-0.029,0.12-0.058,0.18-0.086
			c0.121-0.057,0.247-0.115,0.369-0.182c0.407-0.219,0.638-0.362,0.77-0.479c0.153-0.139,0.536-0.647,0.573-1.079
			c0.031-0.346-0.053-0.725-0.237-1.067C68.706,97.406,68.22,97.351,67.523,97.713z M67.855,99.052l-0.286-1.143
			c0.187-0.096,0.38-0.143,0.54-0.139c0.248,0.012,0.412,0.223,0.506,0.397c0.119,0.22,0.221,0.586,0.228,0.817
			c0.019,0.575-0.293,0.818-0.566,0.967c-0.144,0.076-0.258,0.13-0.368,0.181c-0.034,0.017-0.068,0.032-0.104,0.049
			C68,99.747,67.972,99.516,67.855,99.052z"/>
		<path fill="#FFFFFF" d="M71.695,97.276c-0.005-0.006-0.009-0.012-0.014-0.018l-0.031-0.044l-0.259,0.335l0.023,0.025
			c0.036,0.039,0.076,0.089,0.107,0.133c0.062,0.092,0.025,0.117-0.034,0.16l-1.064,0.736c0.062-0.269,0.073-0.487,0.031-0.61
			l-0.145-0.402l0.521-0.4l0.054-0.278l-0.66,0.447l-0.316-0.855l0.388-0.269c0.048-0.033,0.079-0.046,0.112-0.046
			c0.057,0,0.129,0.038,0.251,0.111l0.048,0.029l0.1-0.413l-0.012-0.016c-0.098-0.124-0.202-0.14-0.336-0.047l-0.63,0.438
			l-0.048-0.114l-0.199,0.285c-0.275,0.222-0.387,0.323-0.456,0.419c-0.139,0.199-0.217,0.391-0.232,0.568l-0.004,0.048l0.328-0.029
			l-0.021-0.051c-0.093-0.219,0.004-0.423,0.297-0.627l0.092-0.062l0.322,0.874l-0.067,0.284l0.145-0.08
			c0.1,0.238,0.158,0.407,0.22,0.63c0.05,0.166,0.019,0.258-0.167,0.492l-0.062,0.312l0.554-0.384
			c0.11-0.077,0.354-0.232,0.53-0.343c0.078-0.048,0.148-0.09,0.211-0.127c0.094-0.056,0.167-0.101,0.22-0.137
			c0.159-0.109,0.231-0.2,0.297-0.664c0.016-0.105-0.003-0.188-0.063-0.275C71.715,97.299,71.705,97.287,71.695,97.276z"/>
		<path fill="#FFFFFF" d="M74.448,95.93c0.051,0.267,0.035,0.375-0.068,0.464c-0.166,0.144-0.629-0.036-1.344-0.522l-0.452-0.308
			c0.063-0.108,0.178-0.315,0.212-0.454c0.061-0.246-0.03-0.497-0.141-0.627c-0.125-0.146-0.279-0.198-0.434-0.146
			c-0.133,0.045-0.225,0.099-0.475,0.309l-0.066-0.14l-0.214,0.412c-0.056,0.059-0.114,0.131-0.17,0.21
			c-0.161,0.226-0.25,0.474-0.249,0.698v0.052l0.311-0.083l-0.012-0.039c-0.062-0.217,0.01-0.447,0.194-0.642l0.624,1.229
			c0.283,0.562,0.204,0.751,0.104,0.854l-0.241,0.245l-0.012,0.356l0.663-0.566c0.171-0.146,0.191-0.192,0.277-0.491l0.036-0.128
			l-0.432,0.367c0.037-0.448,0.026-0.662-0.198-1.102l0.695,0.492c0.356,0.253,0.664,0.376,0.939,0.376
			c0.205,0,0.392-0.069,0.554-0.208c0.003-0.002,0.25-0.216,0.267-0.338l0.004-0.021l-0.396-0.371L74.448,95.93z M72.493,95.195
			c-0.006,0.174-0.117,0.363-0.229,0.484l-0.415-0.832c0.145-0.117,0.235-0.166,0.31-0.166c0.061,0,0.116,0.033,0.18,0.108
			C72.416,94.881,72.498,95.046,72.493,95.195z"/>
		<path fill="#FFFFFF" d="M74.545,95.176l-1.084-1.78c0.122-0.131,0.138-0.191,0.157-0.4l0.011-0.111l-0.718,0.718
			c-0.029,0.044-0.036,0.147-0.023,0.209l0.014,0.062l0.276-0.203l1.06,1.806c-0.15,0.161-0.157,0.188-0.157,0.404v0.098
			l0.709-0.709c0.045-0.044,0.07-0.123,0.083-0.256l0.009-0.092L74.545,95.176z"/>
	</g>
	<path fill="#FFFFFF" d="M87.713,43.314c-0.6,1.681-0.746,3.948-3.662,5.371c-0.32-1.423-0.851-3.854-2.936-4.894
		c3.95-2.325,3.1-6.28,3.1-6.28s-3.1,2.602-6.901,1.349c0.017-0.004,6.673-0.503,7.026-5.665c0.204-2.252-1.243-5.374-4.173-6.505
		c-2.905-1.122-4.566-4.261-4.572-4.276c0,0-2.227,4.447,2.436,6.041c-2.677,1.316-1.361,3.938-1.361,3.938s0.584-1.015,1.71-1.379
		c-0.383,1.007-0.902,2.118-1.494,2.71c-0.501,0.501-1.362,0.851-1.778,1.107c1.409-5.026-3.967-6.81-3.967-6.81
		s0.014,0.059,0.034,0.16c0.035,0.721,0.576,5.492-2.318,5.701c-1.205,0.062-1.863-0.439-2.225-1.035c0,0,1.825-0.511,1.86-2.343
		c0.078-2.267-1.835-3.915-2.853-3.922l5.313-9.357l-5.609-9.879l-4.842,8.548c-0.091-0.013-0.19-0.023-0.293-0.034
		c0.216-0.269,0.345-0.6,0.345-0.959c0-0.897-0.794-1.625-1.774-1.625s-1.775,0.728-1.775,1.625c0,0.365,0.134,0.7,0.355,0.972
		c-0.253,0.029-0.473,0.066-0.632,0.113l-4.905-8.64l-5.573,9.84l0.4,0.713h-2.136c0.822,0,2.608-5.597-1.667-7.102
		c1.261,3.31-1.269,3.787-1.302,5.613c0.01,0.637,0.342,1.19,0.705,1.49l0.74,0.838c0.111,0.125,0.432,0.441,1.007,0.667
		c0.532,0.206,2.988,0.732,4.076,1.029l3.383,6.024c-1.45,0.022-1.884,0.063-2.073,0.097c-1.571,0.281-2.667,2.297-2.667,3.93
		c0,1.041,0.779,2.022,0.78,2.022l0,0l0.124,0.16c-0.521,0.409-1.166,0.918-1.962,1.553c-0.29,0.014-0.613,0.016-0.984-0.003
		c-2.842-0.177-2.509-5.348-2.433-6.166c0,0-5.542,1.639-3.96,6.778c-0.416-0.257-1.276-0.606-1.778-1.107
		c-0.592-0.592-1.111-1.704-1.494-2.71c0.87,0.357,1.235,0.691,1.71,1.379c0.173-0.495,1.124-2.772-1.361-3.938
		c4.651-1.638,2.436-6.041,2.436-6.041c-0.006,0.016-1.667,3.154-4.572,4.276c-2.93,1.131-4.377,4.253-4.172,6.505
		c0.322,3.277,3.32,5.22,7.026,5.665c-3.537,0.97-4.458-0.052-6.902-1.349c-0.374,3.16,1.097,4.957,3.1,6.28
		c-1.644,0.821-2.418,2.562-2.936,4.894c-2.985-1.349-3.662-5.371-3.662-5.371s-2.535,8.62,4.692,9.2
		c-0.712,0.536-2.938,2.023-3.178,4.964c-0.23,7.667,5.024,7.587,7.087,10.983c0.536,0.902,0.437,2.452,0.296,3.445
		c-0.012-0.001-0.023-0.004-0.036-0.004c-0.784,0-1.421,0.639-1.421,1.423c0,0.148,0.028,0.288,0.071,0.423
		c-0.315,0.173-0.586,0.416-0.797,0.729c-0.494,0.729-0.582,1.722-0.229,2.592c0.161,0.395,0.342,0.744,0.535,1.057
		c-1.487,0.296-2.8,0.648-2.8,0.648c2.306,1.252,4.001,1.521,4.022,6.577h1.659c-0.074,0.644-0.162,1.445-0.223,2.136
		c-0.127,1.443-0.119,8.127-0.119,8.127s8.609,10.372,21.477,10.396l0.021-0.001c11.871,0.011,20.09-8.814,21.455-10.395
		c0.095-1.069,0.05-8.84-0.342-10.263h1.628c-0.002-2.395-0.249-4.572,4.029-6.642c-1.426-0.289-1.31-0.328-2.795-0.607
		c0.188-0.306,1.877-2.823-0.505-4.354c0.042-0.135,0.07-0.274,0.07-0.423c0-0.784-0.637-1.423-1.421-1.423
		c-0.013,0-0.436-2.357,0.26-3.441c1.258-2.437,7.507-3.936,7.088-10.983c-0.239-2.94-2.467-4.428-3.179-4.964
		C87.405,52.219,88.997,48.031,87.713,43.314z M44.156,14.884c-0.652,1.286-1.606,1.488-1.959,1.979
		c-0.224-1.1,0.828-1.713,1.234-2.513c0.427-0.84,0.309-1.89,0.227-2.425C44.219,12.455,44.585,14.04,44.156,14.884z M72.441,29.794
		c0.785,0.655,1.502,1.888,1.721,3.184c0.255,1.508-0.739,3.56-0.739,3.56s2.521-0.459,4.162-2.135
		c1.03-1.053,1.593-2.576,1.945-3.489c1.335,0.215,2.874,1.745,2.023,3.867c-0.411,0.876-0.982,1.756-1.736,2.301
		c-0.955,0.689-2.224,0.922-3.129,0.999c0.439-0.969,0.564-1.795,0.564-1.795C71.553,39.743,68,36.704,68,36.704
		C70.988,36.269,73.437,34.374,72.441,29.794z M67.12,46.893c1.213,1.87,1.268,2.895,1.086,4.625
		c1.187,0.007,3.455-1.035,1.979-4.702c0.68,1.103,2.23,3.636,3.396,4.249c3.104,1.633,6.179,0.722,6.179,0.722
		s-3.364-4.299-5.76-6.103c-0.979-0.884-2.754-1.917-3.04-2.193c0.488,0.226,2.694,1.578,4.29,1.193
		c0.34,0.623,1.003,1.958,2.294,2.788c1.417,0.91,3.092,1.43,4.415,1.723c-1.147,0.2-2.623,0.062-3.796-0.295
		c1.192,1.386,2.545,3.14,2.545,3.14s-1.225,0.489-2.71,0.507c1.154,1.113,2.607,2.709,3.514,4.416c0,0,0.075,1.345-1.183,1.408
		c-1.375-0.069-2.065-2.512-2.093-3.921c0,0-0.992,1.021-1.361,1.538l0.001-3.531l-9.619,0.001c0.225-0.938,0.497-2.782-0.146-4.776
		L67.12,46.893z M77.705,74.159c-0.704,0.798-0.658,3.3-0.688,3.577c-0.566,0.024-1.338,0.098-2.069,0.286
		c0.74-2.218,1.235-4.476,1.469-6.768l0.021-0.439c0.393,0.587,0.908,1.172,1.326,1.607c-0.204,0.247-0.333,0.559-0.333,0.903
		C77.43,73.638,77.534,73.924,77.705,74.159z M75.583,53.603v9.122H37.949l0.001-9.122h16.5l2.598,0.942
		c0,0,0.124-0.573,0.299-0.942H75.583z M73.778,77.928c-0.082,0.237-1.073,2.851-1.347,3.295l-2.707,4.542l-4.436-7.439
		l-4.334,7.266l3.871,6.487c-0.636,0.663-1.26,1.273-1.865,1.841c-0.271-0.185-0.647-0.484-1.093-0.961
		c-0.696-0.748-0.899-1.634-0.899-1.634h-0.004c0.04-0.22,0.103-0.502,0.194-0.755c0.222-0.612,0.425-0.821,0.425-0.821v-0.004
		c0,0-0.203-0.209-0.425-0.822c-0.184-0.504-0.252-1.131-0.252-1.131s-0.068,0.627-0.251,1.131
		c-0.222,0.613-0.425,0.822-0.425,0.822v0.004c0,0,0.203,0.209,0.425,0.821l0.193,0.755h-0.002c0,0-0.204,0.886-0.902,1.634
		c-0.916,0.982-1.549,1.22-1.549,1.22s0.746-0.049,1.562-0.657c0.589-0.439,0.796-0.755,0.796-0.755l0.006,0.124
		c0,0-0.169,0.71-0.705,1.234c-0.548,0.533-0.988,0.712-0.988,0.712s0.512,0.066,1.097-0.398c0.541-0.427,0.548-0.516,0.548-0.516
		l-0.021,0.239c0,0-0.076,0.364-0.415,0.743c-0.233,0.262-0.617,0.508-0.617,0.508s0.384-0.055,0.671-0.261
		c0.184-0.131,0.328-0.286,0.328-0.286l0.118,0.981c-0.614,0.508-1.184,0.953-1.683,1.32l-2.531-4.245l-2.429,4.072
		c-0.534-0.388-1.131-0.847-1.776-1.383l0.09-0.746c0,0,0.146,0.155,0.328,0.286c0.287,0.206,0.671,0.261,0.671,0.261
		s-0.384-0.246-0.616-0.508c-0.34-0.379-0.416-0.743-0.416-0.743l-0.021-0.239c0,0,0.006,0.089,0.548,0.516
		c0.585,0.465,1.096,0.398,1.096,0.398s-0.439-0.179-0.986-0.712c-0.537-0.524-0.706-1.234-0.706-1.234l0.007-0.124
		c0,0,0.206,0.315,0.795,0.755c0.816,0.608,1.562,0.657,1.562,0.657s-0.633-0.237-1.549-1.22c-0.698-0.748-0.901-1.634-0.901-1.634
		h-0.004c0.04-0.22,0.102-0.502,0.194-0.755c0.222-0.612,0.425-0.821,0.425-0.821v-0.004c0,0-0.203-0.209-0.425-0.822
		c-0.185-0.504-0.252-1.131-0.252-1.131l0,0c0,0-0.067,0.627-0.251,1.131c-0.222,0.613-0.425,0.822-0.425,0.822v0.004
		c0,0,0.203,0.209,0.425,0.821l0.193,0.755h-0.003c0,0-0.203,0.886-0.9,1.634c-0.357,0.383-0.671,0.651-0.921,0.838
		c-0.607-0.576-1.241-1.208-1.896-1.904l3.751-6.291l-4.337-7.275l-4.361,7.323c-1.119-1.717-2.076-3.466-2.855-5.243
		c0-0.002,0.001-0.005,0.001-0.008c-0.208-0.501-0.957-2.338-1.098-2.838l3.904-6.549l-4.249-7.129h3.986
		c-0.14,0.296-0.352,0.652-0.659,0.982c-0.916,0.982-1.549,1.22-1.549,1.22s0.746-0.049,1.562-0.657
		c0.59-0.439,0.795-0.755,0.795-0.755l0.006,0.123c0,0-0.168,0.712-0.704,1.235c-0.548,0.533-0.987,0.712-0.987,0.712
		s0.511,0.066,1.097-0.397c0.54-0.428,0.547-0.517,0.547-0.517l-0.021,0.24c0,0-0.076,0.362-0.416,0.742
		c-0.232,0.262-0.617,0.508-0.617,0.508s0.385-0.056,0.672-0.261c0.183-0.131,0.328-0.287,0.328-0.287l0.242,2.021h0.016
		l0.242-2.021c0,0,0.146,0.156,0.328,0.287c0.288,0.205,0.672,0.261,0.672,0.261s-0.384-0.246-0.617-0.508
		c-0.341-0.38-0.416-0.742-0.416-0.742l-0.021-0.24c0,0,0.007,0.089,0.547,0.517c0.585,0.464,1.097,0.397,1.097,0.397
		s-0.438-0.179-0.987-0.712c-0.536-0.523-0.705-1.235-0.705-1.235l0.007-0.123c0,0,0.205,0.315,0.795,0.755
		c0.817,0.608,1.562,0.657,1.562,0.657s-0.633-0.237-1.549-1.22c-0.308-0.33-0.52-0.687-0.659-0.982h8.129
		c-0.14,0.296-0.352,0.652-0.658,0.982c-0.917,0.982-1.55,1.22-1.55,1.22s0.745-0.049,1.563-0.657
		c0.589-0.439,0.794-0.755,0.794-0.755l0.007,0.123c0,0-0.168,0.712-0.705,1.235c-0.547,0.533-0.986,0.712-0.986,0.712
		s0.511,0.066,1.096-0.397c0.54-0.428,0.547-0.517,0.547-0.517l-0.021,0.24c0,0-0.075,0.362-0.415,0.742
		c-0.233,0.262-0.617,0.508-0.617,0.508s0.384-0.056,0.671-0.261c0.183-0.131,0.328-0.287,0.328-0.287l0.242,2.021h0.016
		l0.242-2.021c0,0,0.146,0.156,0.328,0.287c0.288,0.205,0.672,0.261,0.672,0.261s-0.384-0.246-0.616-0.508
		c-0.341-0.38-0.417-0.742-0.417-0.742l-0.021-0.24c0,0,0.007,0.089,0.548,0.517c0.585,0.464,1.096,0.397,1.096,0.397
		s-0.438-0.179-0.985-0.712c-0.538-0.523-0.706-1.235-0.706-1.235l0.006-0.123c0,0,0.206,0.315,0.795,0.755
		c0.818,0.608,1.563,0.657,1.563,0.657s-0.634-0.237-1.55-1.22c-0.308-0.33-0.519-0.687-0.659-0.982h8.114
		c-0.141,0.296-0.352,0.652-0.66,0.982c-0.916,0.982-1.548,1.22-1.548,1.22s0.745-0.049,1.562-0.657
		c0.59-0.439,0.795-0.755,0.795-0.755l0.006,0.123c0,0-0.168,0.712-0.704,1.235c-0.549,0.533-0.988,0.712-0.988,0.712
		s0.511,0.066,1.098-0.397c0.54-0.428,0.546-0.517,0.546-0.517l-0.021,0.24c0,0-0.075,0.362-0.415,0.742
		c-0.233,0.262-0.617,0.508-0.617,0.508s0.384-0.056,0.672-0.261c0.183-0.131,0.328-0.287,0.328-0.287l0.242,2.021h0.015
		l0.243-2.021c0,0,0.145,0.156,0.327,0.287c0.288,0.205,0.672,0.261,0.672,0.261s-0.384-0.246-0.616-0.508
		c-0.341-0.38-0.417-0.742-0.417-0.742l-0.021-0.24c0,0,0.007,0.089,0.548,0.517c0.585,0.464,1.096,0.397,1.096,0.397
		s-0.438-0.179-0.986-0.712c-0.537-0.523-0.705-1.235-0.705-1.235l0.006-0.123c0,0,0.205,0.315,0.795,0.755
		c0.818,0.608,1.562,0.657,1.562,0.657s-0.632-0.237-1.549-1.22c-0.308-0.33-0.519-0.687-0.659-0.982h8.134
		c-0.141,0.296-0.352,0.652-0.659,0.982c-0.917,0.982-1.55,1.22-1.55,1.22s0.746-0.049,1.562-0.657
		c0.59-0.439,0.797-0.755,0.797-0.755l0.005,0.123c0,0-0.168,0.712-0.704,1.235c-0.549,0.533-0.988,0.712-0.988,0.712
		s0.511,0.066,1.098-0.397c0.54-0.428,0.547-0.517,0.547-0.517l-0.022,0.24c0,0-0.075,0.362-0.415,0.742
		c-0.233,0.262-0.617,0.508-0.617,0.508s0.384-0.056,0.672-0.261c0.182-0.131,0.327-0.287,0.327-0.287l0.243,2.021h0.015
		l0.242-2.021c0,0,0.146,0.156,0.328,0.287c0.288,0.205,0.672,0.261,0.672,0.261s-0.384-0.246-0.616-0.508
		c-0.341-0.38-0.416-0.742-0.416-0.742l-0.022-0.24c0,0,0.007,0.089,0.548,0.517c0.585,0.464,1.098,0.397,1.098,0.397
		s-0.44-0.179-0.988-0.712c-0.537-0.523-0.705-1.235-0.705-1.235l0.006-0.123c0,0,0.205,0.315,0.796,0.755
		c0.816,0.608,1.562,0.657,1.562,0.657s-0.633-0.237-1.55-1.22c-0.308-0.33-0.519-0.687-0.659-0.982h3.946l-4.212,7.138
		L73.778,77.928z M61.541,94.904c-0.341-0.379-0.417-0.743-0.417-0.743l-0.021-0.239c0,0,0.007,0.089,0.547,0.516
		c0.159,0.126,0.311,0.211,0.449,0.271c-0.133,0.118-0.268,0.241-0.397,0.354C61.645,95.012,61.589,94.959,61.541,94.904z
		 M61.55,95.192c-0.163,0.141-0.323,0.278-0.48,0.41l0.088-0.737c0,0,0.146,0.155,0.328,0.286
		C61.506,95.166,61.527,95.179,61.55,95.192z M61.759,94.124c-0.536-0.524-0.704-1.234-0.704-1.234l0.006-0.124
		c0,0,0.205,0.315,0.795,0.755c0.357,0.266,0.701,0.425,0.975,0.52c-0.188,0.176-0.375,0.348-0.559,0.514
		C62.122,94.447,61.948,94.308,61.759,94.124z M67.678,90.608c2.242-2.654,4.066-5.398,5.467-8.218
		c0.24,1.097,0.836,2.611,1.13,3.565c0.285,0.923,0.335,1.651,0.322,2.125c-0.001,0.002-0.002,0.004-0.004,0.006
		c-0.052,0.089-4.729,7.896-14.22,9.585C62.272,96.232,64.833,93.978,67.678,90.608z M40.163,82.151
		c1.796,3.554,3.271,5.728,5.576,8.457c2.854,3.379,5.447,5.636,7.378,7.074c-8.521-1.494-13.202-7.943-14.133-9.351
		C38.209,86.438,39.923,84.357,40.163,82.151z M51.979,94.161c0,0-0.076,0.364-0.416,0.743c-0.005,0.006-0.012,0.012-0.017,0.018
		c-0.116-0.102-0.233-0.205-0.351-0.312c0.083-0.048,0.169-0.103,0.257-0.173C51.994,94.011,52,93.922,52,93.922L51.979,94.161z
		 M52,95.312c-0.093-0.078-0.186-0.159-0.28-0.24c0.132-0.107,0.227-0.207,0.227-0.207L52,95.312z M51.344,94.124
		c-0.123,0.12-0.239,0.22-0.348,0.306c-0.168-0.152-0.339-0.31-0.511-0.472c0.23-0.097,0.492-0.236,0.763-0.438
		c0.589-0.439,0.794-0.755,0.794-0.755l0.008,0.124C52.05,92.89,51.881,93.6,51.344,94.124z M35.624,72.423
		c0.424-0.441,0.946-1.035,1.341-1.63l0.002,0.046c0.214,2.438,0.723,4.837,1.51,7.193c-0.743-0.196-1.53-0.271-2.106-0.296
		c-0.14-0.438,0.231-2.323-0.688-3.577c0.171-0.235,0.275-0.521,0.275-0.833C35.957,72.981,35.829,72.67,35.624,72.423z
		 M36.52,56.031c-0.401-0.627-0.851-1.032-1.369-1.582c-0.615,5.378-3.164,4.076-3.275,2.513c0.595-1.289,2.359-3.303,3.514-4.416
		c-1.662-0.039-2.71-0.507-2.71-0.507s1.353-1.754,2.545-3.14c-1.07,0.317-2.664,0.497-3.796,0.295
		c2.097-0.539,5.477-1.358,6.709-4.511c1.109,0.269,2.837-0.373,4.29-1.193c-0.907,0.629-4.253,2.481-8.746,8.242
		c5.717,0.864,7.243-0.943,9.521-4.917c-0.419,1.4-0.66,2.334-0.234,3.765c0.584,1.964,2.617,1.341,2.617,1.341
		c-0.838-4.502,1.977-6.16,2.768-6.779c0.488,0.744,1.748,2.647,1.939,2.945c-1.569,1.96-2.704,3.017-2.704,3.017l3.717,1.354H36.52
		V56.031z M54.866,27.263l1.649,3.027h-1.583l-1.65-3.027H54.866z M52.192,26.461l1.737-3.07c0.233,0.124,0.445,0.229,0.621,0.306
		c0.751,0.325,1.501,0.683,2.558,0.881c-0.731,0.635-2.782,1.21-2.782,1.21l-0.258,0.674H52.192z M55.787,26.461
		c0.535-0.175,1.95-1.047,2.751-1.756c0.315,0.048,0.654,0.029,0.868,0.003c0.562,0.407,1.754,1.359,3.011,1.753H55.787z
		 M56.283,53.076l-2.977-1.007c0,0,1.242-1.413,3.296-2.911c0.041,0.899,0.106,1.516,0.106,1.516s1.425-1.347,2.79-3.291
		c4.259-2.008,6.477-0.222,6.787,0.791C63.779,46.237,57.477,50.158,56.283,53.076z M62.037,52.457h-3.98
		c0.838-1.147,2.617-2.464,3.578-2.91C62.092,50.646,62.14,52.129,62.037,52.457z M66.15,46.451
		c-0.603-0.445-2.464-1.661-5.743-0.485c1.031-1.319,1.729-4.594,1.517-6.772c1.003,2.579,1.896,4.991,4.236,6.526L66.15,46.451z
		 M62.498,30.29l-1.653-3.023h1.57l1.674,3.049C63.691,30.299,62.498,30.29,62.498,30.29z M64.01,26.461l-0.294-0.674
		c0,0-1.886-0.516-2.737-1.179c1.012-0.188,1.825-0.67,2.373-1.042l1.677,2.984C64.995,26.551,64.01,26.461,64.01,26.461z
		 M58.823,27.263l1.649,3.027h-1.747l-1.653-3.023L58.823,27.263z M59.008,32.117c0.148,0.114,1.836,2.371,1.836,4.102
		c0,0.577-0.365,4.442-5.866,3.368C61.118,38.774,59.552,34.017,59.008,32.117z M53.742,38.962c0,0,1.761,4.427,4.896,1.759
		c-1.791,2.646-2.095,4.544-2.064,7.261c-1.792,1.234-3.41,2.737-3.41,2.737c-1.291-2.131-7.007-10.877-8.58-12.159H56.34
		C55.08,39.016,53.742,38.962,53.742,38.962z M52.616,51.836l-3.248-1.099c0.321-0.353,0.66-0.743,1.497-1.803
		C51.141,49.316,52.616,51.836,52.616,51.836z M67.107,31.812c-0.005-0.008-0.011-0.017-0.016-0.024
		c0.007,0.007,0.014,0.014,0.021,0.02C67.11,31.81,67.108,31.812,67.107,31.812z M65.912,27.405
		c2.583,1.589,1.828,3.912,1.217,4.388l-2.564-4.496C64.724,27.3,65.766,27.312,65.912,27.405z M65.345,9.364l0.569,0.981
		l-4.436,7.829l-0.566-0.985L65.345,9.364z M58.778,14.046c0.517,0,0.935,0.384,0.935,0.856s-0.418,0.855-0.935,0.855
		s-0.935-0.383-0.935-0.855S58.262,14.046,58.778,14.046z M60.003,16.774l-0.233,0.413l0.4,0.712l-4.823-0.003
		C55.389,17.834,57.197,16.217,60.003,16.774z M51.822,9.364l0.604,1.057L48.189,17.9h-0.397l-0.401-0.711L51.822,9.364z
		 M46.175,18.916h10.296h4.27l2.115,3.766c-0.401,0.293-1.47,1.113-3.932,1.099c-0.484,0-1.86-0.08-3.967-1.016
		C51.288,20.852,50.533,19.803,46.175,18.916z M51.067,27.263l1.654,3.025l-1.588-0.001l-1.611-2.953
		C49.526,27.334,50.047,27.284,51.067,27.263z M47.469,30.487c0-0.646,0.21-1.369,0.563-1.967l1.294,2.153
		c-0.561,0.356-1.15,0.888-1.403,1.127C47.755,31.529,47.469,30.993,47.469,30.487z M50.225,31.934
		c0.143-0.012,0.628-0.03,2.27-0.03c1.656,0,3.864-0.025,5.63-0.015c0.071,0.367,0.151,0.814,0.219,1.298l-6.461,0.005
		c0,0,0.196,1.731-1.396,1.731l-4.091,0.001C48.188,33.498,49.904,32.153,50.225,31.934z M44.231,35.928h6.896
		c1.608,0,1.743-1.492,1.745-1.733h5.583c0.178,2.272-0.197,2.976-0.595,3.391H43.866c-0.531-0.095-1.502-0.8-1.587-0.85
		C42.508,36.61,43.901,35.928,44.231,35.928z M33.856,30.913c0.353,0.914,0.915,2.437,1.945,3.489
		c1.641,1.676,4.011,2.04,4.011,2.04s-1.94-3.658,1.133-6.648c-0.522,2.65,0.064,4.938,1.503,5.756l-2.233,1.186
		c0,0,0.884,0.566,1.725,1.061c-3.075,0.469-5.805-1.511-5.805-1.511s0.124,0.826,0.564,1.795
		C32.042,38.021,29.491,32.212,33.856,30.913z M34.212,43.637c-2.124-0.888-3.73-2.549-4.022-4.424
		c1.752,0.977,3.729,1.616,7.272,0.145c1.194,1.696,3.08,1.606,3.751,1.571c-1.703,1.203-4.342,1.068-6.578-0.395
		c0.384,1.205,0.754,2.608,2.617,3.833c-0.299,0.599-0.925,1.634-1.936,2.284c-1.82,1.169-3.758,1.67-4.857,1.874
		C31.088,46.478,31.998,44.456,34.212,43.637z M33.02,65.749c-0.172-0.116-3.481-1.955-1.521-7.1c0,0,2.487,2.56,4.293-1.941
		c3.496,4.62-3.367,5.751-3.367,5.751c5.273,1.682,5.114,6.002,3.267,8.499C36.037,68.802,34.747,66.908,33.02,65.749z
		 M36.63,61.377l-0.001,2.87c-0.707-0.878-1.516-1.295-2.095-1.612C35.492,62.3,36.259,61.794,36.63,61.377z M33.683,74.456
		c0.238,0.181,0.531,0.291,0.853,0.291c0.162,0,0.315-0.032,0.46-0.082c0.291,0.428,0.472,1.212,0.472,2.185
		c-0.089,1.168,0.425,2.479,0.66,2.871C34.524,79.477,31.268,76.074,33.683,74.456z M35.695,84.346h-0.801
		c-0.054-0.93-0.227-2.635-0.779-3.576c-0.444-0.758-1.448-1.311-2.009-1.701c0.326-0.054,0.734-0.109,1.171-0.159
		c1.74,1.956,4.049,1.637,4.049,1.637s-0.477-0.625-0.773-1.792c0.977,0.06,1.809,0.24,2.357,0.496
		c0.192,0.512,0.397,1.021,0.618,1.528c-0.214,0.779-0.762,1.553-1.165,1.954C37.253,83.71,35.838,83.16,35.695,84.346z
		 M56.711,105.003c-11.431-0.01-19.294-8.424-20.469-9.758c0-0.823-0.386-11.152,0.993-11.068c0.87,0.166-1.168,1.473,0.722,4.416
		c0.057,0.099,5.593,9.426,16.964,10.335c0.963,0.609,1.341,0.883,1.407,0.913l0.243,0.112l0.241-0.115
		c0.065-0.03,0.741-0.311,1.644-0.924c9.875-0.859,15.736-8.376,16.57-9.652c2.272-2.978,0.619-4.573,1.12-5.077
		c1.364-0.303,1.032,9.897,1.033,11.061C76.004,96.58,68.144,104.993,56.711,105.003z M81.283,79.068
		c-0.561,0.391-1.564,0.943-2.009,1.701c-0.553,0.941-0.726,2.646-0.779,3.576h-0.771c-0.017-0.492-0.415-0.789-0.842-0.842
		c-1.002-0.147-2.248-0.518-3.01-2.688c0.229-0.524,0.443-1.052,0.644-1.581c0.548-0.248,1.362-0.423,2.317-0.481
		c-0.296,1.167-0.773,1.792-0.773,1.792s2.309,0.319,4.05-1.637C80.547,78.959,80.956,79.015,81.283,79.068z M79.705,74.456
		c1.639,0.743,1,4.2-2.444,5.265c0.974-1.4,0.429-4.231,1.131-5.056C78.537,74.715,79.14,74.909,79.705,74.456z M80.367,65.749
		c-0.832,0.58-3.148,2.412-2.671,5.209c-1.712-2.374-2.215-6.678,3.268-8.499c-4.171-0.911-5.419-3.022-3.368-5.751
		c1.593,4.007,4.018,2.394,4.293,1.941C82.593,60.257,83.325,63.836,80.367,65.749z M76.804,64.482v-3.087
		c0.799,0.719,1.284,0.935,2.049,1.239C78.295,62.989,77.507,63.438,76.804,64.482z M76.135,44.367
		c1.885-1.025,2.617-3.833,2.617-3.833s-3.342,2.505-6.578,0.395c0.117,0.013,2.358,0.373,3.751-1.571
		c2.118,0.719,3.946,1.652,7.272-0.145c-0.638,3.187-4.023,4.424-4.023,4.424c1.447,0.756,2.691,1.359,3.755,4.889
		C81.17,48.123,77.494,47.245,76.135,44.367z"/>
	<path fill="#FFFFFF" d="M69.802,78.315l0.006-0.123c0,0,0.205,0.315,0.796,0.753c0.816,0.609,1.562,0.659,1.562,0.659
		s-0.633-0.238-1.55-1.221c-0.697-0.748-0.9-1.634-0.9-1.634h-0.004c0.039-0.22,0.102-0.501,0.193-0.755
		c0.223-0.612,0.426-0.821,0.426-0.821V75.17c0,0-0.203-0.21-0.426-0.822c-0.184-0.504-0.25-1.131-0.25-1.131h-0.001
		c0,0-0.067,0.627-0.251,1.131c-0.223,0.612-0.425,0.822-0.425,0.822v0.004c0,0,0.202,0.209,0.425,0.821l0.193,0.755h-0.002
		c0,0-0.204,0.886-0.901,1.634c-0.917,0.982-1.55,1.221-1.55,1.221s0.746-0.05,1.562-0.659c0.59-0.438,0.797-0.753,0.797-0.753
		l0.005,0.123c0,0-0.168,0.711-0.704,1.234c-0.549,0.534-0.988,0.712-0.988,0.712s0.511,0.066,1.098-0.397
		c0.54-0.427,0.547-0.516,0.547-0.516l-0.022,0.239c0,0-0.075,0.361-0.415,0.742c-0.233,0.261-0.617,0.508-0.617,0.508
		s0.384-0.055,0.672-0.261c0.182-0.131,0.327-0.286,0.327-0.286l0.243,2.02h0.015l0.242-2.02c0,0,0.146,0.155,0.328,0.286
		c0.288,0.206,0.672,0.261,0.672,0.261s-0.384-0.247-0.616-0.508c-0.341-0.381-0.416-0.742-0.416-0.742l-0.022-0.239
		c0,0,0.007,0.089,0.548,0.516c0.585,0.464,1.098,0.397,1.098,0.397s-0.44-0.178-0.988-0.712
		C69.97,79.026,69.802,78.315,69.802,78.315z"/>
	<path fill="#FFFFFF" d="M61.068,78.315l0.005-0.123c0,0,0.206,0.315,0.795,0.753c0.818,0.609,1.563,0.659,1.563,0.659
		s-0.633-0.238-1.55-1.221c-0.696-0.748-0.9-1.634-0.9-1.634h-0.003c0.04-0.22,0.102-0.501,0.193-0.755
		c0.223-0.612,0.426-0.821,0.426-0.821V75.17c0,0-0.203-0.21-0.426-0.822c-0.183-0.504-0.251-1.131-0.251-1.131
		s-0.068,0.627-0.251,1.131c-0.222,0.612-0.426,0.822-0.426,0.822v0.004c0,0,0.204,0.209,0.426,0.821l0.192,0.755H60.86
		c0,0-0.203,0.886-0.902,1.634c-0.915,0.982-1.548,1.221-1.548,1.221s0.745-0.05,1.562-0.659c0.59-0.438,0.795-0.753,0.795-0.753
		l0.006,0.123c0,0-0.168,0.711-0.704,1.234c-0.549,0.534-0.988,0.712-0.988,0.712s0.512,0.066,1.098-0.397
		c0.54-0.427,0.546-0.516,0.546-0.516l-0.021,0.239c0,0-0.075,0.361-0.415,0.742c-0.233,0.261-0.617,0.508-0.617,0.508
		s0.384-0.055,0.672-0.261c0.183-0.131,0.328-0.286,0.328-0.286l0.242,2.02h0.015l0.243-2.02c0,0,0.145,0.155,0.327,0.286
		c0.288,0.206,0.673,0.261,0.673,0.261s-0.385-0.247-0.617-0.508c-0.341-0.381-0.416-0.742-0.416-0.742l-0.021-0.239
		c0,0,0.007,0.089,0.547,0.516c0.585,0.464,1.097,0.397,1.097,0.397s-0.438-0.178-0.987-0.712
		C61.236,79.026,61.068,78.315,61.068,78.315z"/>
	<path fill="#FFFFFF" d="M52.342,78.315l0.007-0.123c0,0,0.206,0.315,0.795,0.753c0.817,0.609,1.562,0.659,1.562,0.659
		s-0.633-0.238-1.549-1.221c-0.697-0.748-0.901-1.634-0.901-1.634h-0.003c0.039-0.22,0.102-0.501,0.193-0.755
		c0.222-0.612,0.426-0.821,0.426-0.821V75.17c0,0-0.204-0.21-0.426-0.822c-0.185-0.504-0.252-1.131-0.252-1.131l0,0
		c0,0-0.067,0.627-0.25,1.131c-0.223,0.612-0.426,0.822-0.426,0.822v0.004c0,0,0.203,0.209,0.426,0.821l0.192,0.755h-0.003
		c0,0-0.203,0.886-0.9,1.634c-0.916,0.982-1.549,1.221-1.549,1.221s0.745-0.05,1.562-0.659c0.59-0.438,0.795-0.753,0.795-0.753
		l0.007,0.123c0,0-0.168,0.711-0.705,1.234c-0.548,0.534-0.987,0.712-0.987,0.712s0.512,0.066,1.097-0.397
		c0.54-0.427,0.546-0.516,0.546-0.516l-0.021,0.239c0,0-0.076,0.361-0.416,0.742c-0.232,0.261-0.616,0.508-0.616,0.508
		s0.384-0.055,0.671-0.261c0.183-0.131,0.328-0.286,0.328-0.286l0.242,2.02h0.015l0.243-2.02c0,0,0.146,0.155,0.328,0.286
		c0.288,0.206,0.671,0.261,0.671,0.261s-0.383-0.247-0.615-0.508c-0.341-0.381-0.417-0.742-0.417-0.742l-0.021-0.239
		c0,0,0.007,0.089,0.548,0.516c0.585,0.464,1.096,0.397,1.096,0.397s-0.438-0.178-0.986-0.712
		C52.511,79.026,52.342,78.315,52.342,78.315z"/>
	<path fill="#FFFFFF" d="M43.609,78.315l0.007-0.123c0,0,0.205,0.315,0.795,0.753c0.817,0.609,1.562,0.659,1.562,0.659
		s-0.633-0.238-1.549-1.221c-0.698-0.748-0.9-1.634-0.9-1.634h-0.004c0.04-0.22,0.102-0.501,0.193-0.755
		c0.223-0.612,0.426-0.821,0.426-0.821V75.17c0,0-0.203-0.21-0.426-0.822c-0.183-0.504-0.25-1.131-0.25-1.131h-0.001
		c0,0-0.068,0.627-0.251,1.131c-0.222,0.612-0.426,0.822-0.426,0.822v0.004c0,0,0.204,0.209,0.426,0.821l0.193,0.755h-0.003
		c0,0-0.204,0.886-0.901,1.634c-0.916,0.982-1.549,1.221-1.549,1.221s0.746-0.05,1.562-0.659c0.59-0.438,0.795-0.753,0.795-0.753
		l0.006,0.123c0,0-0.168,0.711-0.704,1.234c-0.548,0.534-0.987,0.712-0.987,0.712s0.511,0.066,1.097-0.397
		c0.54-0.427,0.547-0.516,0.547-0.516l-0.021,0.239c0,0-0.076,0.361-0.416,0.742c-0.232,0.261-0.617,0.508-0.617,0.508
		s0.385-0.055,0.672-0.261c0.183-0.131,0.328-0.286,0.328-0.286l0.242,2.02h0.016l0.242-2.02c0,0,0.146,0.155,0.328,0.286
		c0.288,0.206,0.672,0.261,0.672,0.261s-0.384-0.247-0.617-0.508c-0.341-0.381-0.416-0.742-0.416-0.742l-0.021-0.239
		c0,0,0.007,0.089,0.547,0.516c0.585,0.464,1.097,0.397,1.097,0.397s-0.438-0.178-0.987-0.712
		C43.778,79.026,43.609,78.315,43.609,78.315z"/>
	<path fill="#FFFFFF" d="M57.766,54.636L57.766,54.636c0,0,0.384,0.758,0.384,1.42c0,0.899-0.829,1.638-1.729,1.638
		c-0.898,0-1.691-0.784-1.691-1.683c0-0.662,0.372-1.429,0.372-1.429l0,0c-1.396,0.568-2.361,1.967-2.361,3.467
		c0,2.029,1.651,3.681,3.681,3.681c2.03,0,3.682-1.651,3.682-3.681C60.103,56.534,59.186,55.195,57.766,54.636z M56.421,61.066
		c-1.664,0-3.019-1.354-3.019-3.018c0-0.656,0.214-1.285,0.602-1.801c-0.026,0.144-0.04,0.29-0.04,0.439
		c0,1.354,1.103,2.456,2.457,2.456s2.456-1.103,2.456-2.456c0-0.148-0.014-0.295-0.04-0.438c0.389,0.516,0.604,1.144,0.604,1.799
		C59.44,59.713,58.086,61.066,56.421,61.066z"/>
	<path fill="#FFFFFF" d="M46.076,54.636L46.076,54.636c0,0,0.384,0.758,0.384,1.42c0,0.899-0.829,1.638-1.729,1.638
		c-0.898,0-1.691-0.784-1.691-1.683c0-0.662,0.372-1.429,0.372-1.429l0,0c-1.396,0.568-2.361,1.967-2.361,3.467
		c0,2.029,1.651,3.681,3.681,3.681c2.03,0,3.682-1.651,3.682-3.681C48.413,56.534,47.496,55.195,46.076,54.636z M44.731,61.066
		c-1.664,0-3.019-1.354-3.019-3.018c0-0.656,0.214-1.285,0.602-1.801c-0.026,0.144-0.039,0.29-0.039,0.439
		c0,1.354,1.102,2.456,2.456,2.456s2.456-1.103,2.456-2.456c0-0.148-0.014-0.295-0.04-0.438c0.39,0.516,0.604,1.144,0.604,1.799
		C47.751,59.713,46.396,61.066,44.731,61.066z"/>
	<path fill="#FFFFFF" d="M69.455,54.636L69.455,54.636c0,0,0.384,0.758,0.384,1.42c0,0.899-0.829,1.638-1.729,1.638
		s-1.692-0.784-1.692-1.683c0-0.662,0.373-1.429,0.373-1.429l0,0c-1.396,0.568-2.361,1.967-2.361,3.467
		c0,2.029,1.651,3.681,3.681,3.681c2.03,0,3.682-1.651,3.682-3.681C71.792,56.534,70.874,55.195,69.455,54.636z M68.11,61.066
		c-1.664,0-3.019-1.354-3.019-3.018c0-0.656,0.214-1.285,0.602-1.801c-0.026,0.144-0.04,0.29-0.04,0.439
		c0,1.354,1.103,2.456,2.457,2.456s2.456-1.103,2.456-2.456c0-0.148-0.014-0.295-0.04-0.438c0.389,0.516,0.603,1.144,0.603,1.799
		C71.129,59.713,69.775,61.066,68.11,61.066z"/>
	<g>
		<defs>
			<path id="SVGID_1_" d="M53.371,35.73c0,0.343,0.277,0.619,0.619,0.619c0.341,0,0.618-0.276,0.618-0.619
				c0-0.342-0.277-0.618-0.618-0.618C53.648,35.112,53.371,35.389,53.371,35.73"/>
		</defs>
		<use xlink:href="#SVGID_1_"  overflow="visible" fill="#FFFFFF"/>
		<clipPath id="SVGID_2_">
			<use xlink:href="#SVGID_1_"  overflow="visible"/>
		</clipPath>
		<path clip-path="url(#SVGID_2_)" fill="#FFFFFF" d="M54.608,35.731c0,0.342-0.277,0.618-0.618,0.618
			c-0.342,0-0.619-0.276-0.619-0.618s0.277-0.618,0.619-0.618C54.331,35.113,54.608,35.39,54.608,35.731"/>
	</g>
	<g>
		<defs>
			<path id="SVGID_3_" d="M55.845,35.747c0,0.343,0.276,0.619,0.618,0.619s0.619-0.276,0.619-0.619c0-0.342-0.277-0.618-0.619-0.618
				S55.845,35.405,55.845,35.747"/>
		</defs>
		<use xlink:href="#SVGID_3_"  overflow="visible" fill="#FFFFFF"/>
		<clipPath id="SVGID_4_">
			<use xlink:href="#SVGID_3_"  overflow="visible"/>
		</clipPath>
		<path clip-path="url(#SVGID_4_)" fill="#FFFFFF" d="M57.082,35.748c0,0.342-0.277,0.618-0.618,0.618
			c-0.342,0-0.619-0.276-0.619-0.618s0.277-0.618,0.619-0.618C56.805,35.13,57.082,35.406,57.082,35.748"/>
	</g>
	<polygon fill="#FFFFFF" points="60.899,71.012 56.562,63.879 52.224,71.012 56.562,78.286 	"/>
	<polygon fill="#FFFFFF" points="60.899,85.601 56.562,78.325 52.224,85.601 56.562,92.875 	"/>
	<polygon fill="#FFFFFF" points="69.626,71.012 65.289,63.879 60.951,71.012 65.289,78.286 	"/>
	<polygon fill="#FFFFFF" points="52.169,71.012 47.832,63.879 43.494,71.012 47.832,78.286 	"/>
	<path fill="#FFFFFF" d="M38.05,91.791l0.051,0.06c-0.043,0.052-0.079,0.104-0.107,0.157c-0.028,0.052-0.049,0.114-0.063,0.188
		c-0.014,0.073-0.016,0.146-0.009,0.22c0.007,0.075,0.021,0.139,0.041,0.188c0.021,0.051,0.044,0.095,0.071,0.134l-0.06,0.052
		c-0.035-0.033-0.076-0.064-0.123-0.092c-0.048-0.026-0.107-0.051-0.183-0.069c-0.073-0.019-0.147-0.026-0.221-0.023
		c-0.073,0.004-0.137,0.016-0.192,0.034c-0.055,0.021-0.111,0.048-0.169,0.082l-0.051-0.06c0.043-0.052,0.079-0.104,0.107-0.157
		c0.027-0.052,0.049-0.116,0.062-0.188c0.014-0.073,0.018-0.146,0.009-0.221c-0.007-0.076-0.021-0.139-0.041-0.188
		c-0.019-0.05-0.043-0.094-0.07-0.134l0.061-0.051c0.033,0.033,0.074,0.064,0.122,0.091c0.048,0.027,0.108,0.051,0.183,0.07
		c0.073,0.019,0.147,0.025,0.221,0.022s0.138-0.016,0.192-0.034C37.936,91.853,37.992,91.825,38.05,91.791"/>
	<path fill="#FFFFFF" d="M74.67,92.492l0.049-0.061c0.06,0.034,0.117,0.06,0.174,0.079c0.057,0.019,0.122,0.028,0.196,0.029
		c0.073,0,0.147-0.01,0.219-0.029c0.072-0.021,0.132-0.045,0.178-0.073s0.085-0.059,0.119-0.094l0.062,0.051
		c-0.026,0.039-0.05,0.085-0.069,0.137c-0.019,0.051-0.03,0.115-0.036,0.191s-0.001,0.15,0.016,0.222
		c0.016,0.071,0.038,0.133,0.067,0.183c0.028,0.051,0.065,0.103,0.109,0.153l-0.05,0.061c-0.06-0.034-0.117-0.061-0.173-0.079
		c-0.058-0.019-0.123-0.029-0.196-0.029c-0.075,0-0.147,0.01-0.22,0.029c-0.072,0.021-0.131,0.045-0.178,0.073
		c-0.045,0.028-0.085,0.06-0.12,0.094l-0.06-0.051c0.026-0.039,0.05-0.085,0.068-0.136c0.019-0.052,0.031-0.116,0.037-0.192
		c0.005-0.076,0-0.15-0.016-0.222c-0.017-0.071-0.039-0.132-0.068-0.184C74.749,92.595,74.714,92.544,74.67,92.492"/>
	<path fill="#FFFFFF" d="M47.16,98.979l0.07,0.034c-0.019,0.065-0.03,0.128-0.036,0.188c-0.005,0.06,0.001,0.126,0.017,0.197
		c0.017,0.072,0.043,0.141,0.08,0.207c0.036,0.065,0.074,0.117,0.111,0.155c0.039,0.038,0.078,0.069,0.118,0.096l-0.034,0.069
		c-0.045-0.016-0.095-0.027-0.148-0.035c-0.055-0.006-0.12-0.003-0.195,0.009c-0.075,0.013-0.146,0.035-0.212,0.067
		s-0.12,0.067-0.163,0.107c-0.042,0.039-0.083,0.088-0.122,0.143l-0.071-0.035c0.02-0.065,0.032-0.127,0.036-0.187
		c0.006-0.06,0-0.125-0.017-0.197c-0.016-0.072-0.042-0.141-0.08-0.207c-0.035-0.065-0.073-0.117-0.111-0.155
		s-0.077-0.069-0.118-0.095l0.035-0.071c0.044,0.018,0.094,0.028,0.147,0.035c0.056,0.007,0.12,0.004,0.195-0.009
		c0.076-0.012,0.146-0.034,0.213-0.066c0.065-0.032,0.119-0.068,0.162-0.107C47.079,99.081,47.12,99.034,47.16,98.979"/>
	<path fill="#FFFFFF" d="M61.248,100.722l0.077-0.016c0.023,0.064,0.053,0.122,0.084,0.173c0.03,0.05,0.075,0.1,0.132,0.147
		c0.056,0.049,0.118,0.087,0.188,0.118c0.068,0.03,0.13,0.049,0.183,0.057c0.054,0.008,0.104,0.009,0.151,0.006l0.014,0.076
		c-0.045,0.014-0.092,0.034-0.139,0.061c-0.048,0.028-0.099,0.069-0.151,0.124c-0.053,0.057-0.096,0.116-0.129,0.182
		c-0.033,0.064-0.056,0.126-0.065,0.184c-0.011,0.057-0.015,0.119-0.014,0.188l-0.077,0.015c-0.024-0.064-0.052-0.121-0.083-0.171
		c-0.031-0.052-0.075-0.101-0.131-0.147c-0.057-0.049-0.12-0.088-0.188-0.118c-0.068-0.031-0.13-0.05-0.183-0.058
		c-0.054-0.008-0.104-0.009-0.151-0.005l-0.016-0.078c0.047-0.013,0.093-0.033,0.141-0.06c0.047-0.028,0.098-0.069,0.15-0.125
		c0.053-0.055,0.097-0.115,0.13-0.181c0.033-0.064,0.055-0.126,0.065-0.184C61.245,100.853,61.25,100.79,61.248,100.722"/>
</g>
</svg>
