<?xml version="1.0" encoding="utf-8"?>
<!-- Generator: Adobe Illustrator 16.0.0, SVG Export Plug-In . SVG Version: 6.00 Build 0)  -->
<!DOCTYPE svg PUBLIC "-//W3C//DTD SVG 1.1//EN" "http://www.w3.org/Graphics/SVG/1.1/DTD/svg11.dtd">
<svg version="1.1" id="Logo_FIXED" xmlns="http://www.w3.org/2000/svg" xmlns:xlink="http://www.w3.org/1999/xlink" preserveAspectRatio="none" x="0px" y="0px"
	  viewBox="-0.03 2.598 28.061 22.805" enable-background="new -0.03 2.598 28.061 22.805"
	 xml:space="preserve">
<title>Twitter_Logo_Blue</title>
<path fill="#FFFFFF" d="M8.793,25.402c10.592,0,16.381-8.773,16.381-16.384c0-0.248,0-0.497-0.016-0.744
	c1.125-0.815,2.1-1.825,2.872-2.981C26.979,5.76,25.864,6.065,24.725,6.2c1.202-0.721,2.102-1.851,2.531-3.185
	c-1.131,0.67-2.367,1.144-3.656,1.398c-2.181-2.319-5.829-2.432-8.146-0.25c-1.495,1.406-2.129,3.502-1.666,5.5
	C9.157,9.43,4.843,7.245,1.919,3.647c-1.526,2.633-0.746,5.999,1.785,7.688c-0.916-0.026-1.812-0.274-2.612-0.721
	c0,0.023,0,0.047,0,0.071c0,2.741,1.933,5.105,4.619,5.646c-0.849,0.231-1.737,0.266-2.6,0.1c0.754,2.343,2.915,3.95,5.379,3.995
	C6.452,22.03,3.933,22.9,1.339,22.898c-0.459-0.002-0.916-0.029-1.37-0.085c2.633,1.691,5.697,2.585,8.825,2.583"/>
</svg>
