<?xml version="1.0" encoding="UTF-8" standalone="no"?>
<svg
   xmlns:dc="http://purl.org/dc/elements/1.1/"
   xmlns:cc="http://creativecommons.org/ns#"
   xmlns:rdf="http://www.w3.org/1999/02/22-rdf-syntax-ns#"
   xmlns:svg="http://www.w3.org/2000/svg"
   xmlns="http://www.w3.org/2000/svg"
   xmlns:sodipodi="http://sodipodi.sourceforge.net/DTD/sodipodi-0.dtd"
   xmlns:inkscape="http://www.inkscape.org/namespaces/inkscape"
   width="1839.4377"
   height="815.83813"
   viewBox="0 0 1839.4377 815.83813"
   version="1.1"
   id="svg8"
   inkscape:version="1.0.1 (3bc2e813f5, 2020-09-07)"
   sodipodi:docname="founders.svg">
  <style
     id="style847" />
  <defs
     id="defs2" />
  <sodipodi:namedview
     id="base"
     pagecolor="#ffffff"
     bordercolor="#666666"
     borderopacity="1.0"
     inkscape:pageopacity="0.0"
     inkscape:pageshadow="2"
     inkscape:zoom="0.49497475"
     inkscape:cx="706.19883"
     inkscape:cy="264.77142"
     inkscape:document-units="px"
     inkscape:current-layer="layer1"
     inkscape:document-rotation="0"
     showgrid="false"
     units="px"
     fit-margin-top="0"
     fit-margin-left="0"
     fit-margin-right="0"
     fit-margin-bottom="0"
     showguides="false"
     inkscape:window-width="1920"
     inkscape:window-height="1027"
     inkscape:window-x="-8"
     inkscape:window-y="-8"
     inkscape:window-maximized="1" />
  <metadata
     id="metadata5">
    <rdf:RDF>
      <cc:Work
         rdf:about="">
        <dc:format>image/svg+xml</dc:format>
        <dc:type
           rdf:resource="http://purl.org/dc/dcmitype/StillImage" />
        <dc:title />
      </cc:Work>
    </rdf:RDF>
  </metadata>
  <g
     inkscape:label="Layer 1"
     inkscape:groupmode="layer"
     id="layer1"
     transform="translate(-15.281116,-64.788437)">
    <rect
       style="fill:none;stroke:#f09a55;stroke-width:4;stroke-miterlimit:4;stroke-dasharray:none;stroke-opacity:1;paint-order:stroke fill markers"
       id="rect873"
       width="26.10976"
       height="44.575512"
       x="793.77618"
       y="625.60095" />
    <path
       id="rect873-6"
       style="fill:none;stroke:#f09a55;stroke-width:4;stroke-miterlimit:4;stroke-dasharray:none;stroke-opacity:1;paint-order:stroke fill markers"
       d="m 794.1112,562.30116 c 0,-19.38433 25.91041,-19.67286 25.91041,0 v 29.72953 H 794.1112 Z"
       sodipodi:nodetypes="zzccz" />
    <rect
       style="fill:none;stroke:#f09a55;stroke-width:4;stroke-miterlimit:4;stroke-dasharray:none;stroke-opacity:1;paint-order:stroke fill markers"
       id="rect873-0-7-6"
       width="12.041177"
       height="44.602558"
       x="854.13885"
       y="547.37756" />
    <rect
       style="fill:none;stroke:#f09a55;stroke-width:4;stroke-miterlimit:4;stroke-dasharray:none;stroke-opacity:1;paint-order:stroke fill markers"
       id="rect873-0-7-6-9"
       width="12.041177"
       height="44.602558"
       x="854.00946"
       y="626.66272" />
    <rect
       style="fill:none;stroke:#f09a55;stroke-width:4;stroke-miterlimit:4;stroke-dasharray:none;stroke-opacity:1;paint-order:stroke fill markers"
       id="rect873-0-7-6-0"
       width="12.041177"
       height="44.602558"
       x="853.14307"
       y="708.97467" />
    <path
       id="rect873-6-7"
       style="fill:none;stroke:#f09a55;stroke-width:4;stroke-miterlimit:4;stroke-dasharray:none;stroke-opacity:1;paint-order:stroke fill markers"
       d="m 792.82262,722.43484 c 0,-19.38434 25.91041,-19.67286 25.91041,0 v 29.72956 h -25.91041 z"
       sodipodi:nodetypes="zzccz" />
    <rect
       style="fill:none;stroke:#f09a55;stroke-width:4;stroke-miterlimit:4;stroke-dasharray:none;stroke-opacity:1;paint-order:stroke fill markers"
       id="rect873-9"
       width="26.10976"
       height="44.575512"
       x="790.55676"
       y="795.63232" />
    <rect
       style="fill:none;stroke:#f09a55;stroke-width:4;stroke-miterlimit:4;stroke-dasharray:none;stroke-opacity:1;paint-order:stroke fill markers"
       id="rect873-90"
       width="26.10976"
       height="44.575512"
       x="794.02258"
       y="462.05261" />
    <rect
       style="fill:none;stroke:#f09a55;stroke-width:4;stroke-miterlimit:4;stroke-dasharray:none;stroke-opacity:1;paint-order:stroke fill markers"
       id="rect873-5"
       width="26.10976"
       height="44.575512"
       x="903.72711"
       y="464.65195" />
    <path
       id="rect873-6-9"
       style="fill:none;stroke:#f09a55;stroke-width:4;stroke-miterlimit:4;stroke-dasharray:none;stroke-opacity:1;paint-order:stroke fill markers"
       d="m 902.09381,562.57652 c 0,-19.38432 25.91041,-19.67284 25.91041,0 v 29.72959 h -25.91041 z"
       sodipodi:nodetypes="zzccz" />
    <rect
       style="fill:none;stroke:#f09a55;stroke-width:4;stroke-miterlimit:4;stroke-dasharray:none;stroke-opacity:1;paint-order:stroke fill markers"
       id="rect873-5-0"
       width="26.10976"
       height="44.575512"
       x="901.9942"
       y="626.67627" />
    <path
       id="rect873-6-7-8"
       style="fill:none;stroke:#f09a55;stroke-width:4;stroke-miterlimit:4;stroke-dasharray:none;stroke-opacity:1;paint-order:stroke fill markers"
       d="m 899.49448,722.86805 c 0,-19.38439 25.91041,-19.67291 25.91041,0 v 29.72957 h -25.91041 z"
       sodipodi:nodetypes="zzccz" />
    <ellipse
       style="fill:none;stroke:#f09a55;stroke-width:4;stroke-miterlimit:4;stroke-dasharray:none;stroke-opacity:1;paint-order:stroke fill markers"
       id="path1066"
       cx="858.51642"
       cy="822.96411"
       rx="5.952487"
       ry="5.9524856" />
    <ellipse
       style="fill:none;stroke:#f09a55;stroke-width:4;stroke-miterlimit:4;stroke-dasharray:none;stroke-opacity:1;paint-order:stroke fill markers"
       id="path1066-5"
       cx="860.80737"
       cy="469.21582"
       rx="5.952487"
       ry="5.9524856" />
    <path
       id="rect873-6-7-7"
       style="fill:none;stroke:#f09a55;stroke-width:4;stroke-miterlimit:4;stroke-dasharray:none;stroke-opacity:1;paint-order:stroke fill markers"
       d="m 671.73271,670.91421 c 0,-33.26908 44.46968,-33.76426 44.46968,0 v 69.23872 h -44.46968 z"
       sodipodi:nodetypes="zzccz" />
    <path
       id="rect873-6-7-7-1"
       style="fill:none;stroke:#f09a55;stroke-width:4;stroke-miterlimit:4;stroke-dasharray:none;stroke-opacity:1;paint-order:stroke fill markers"
       d="m 562.8383,670.91421 c 0,-33.26908 44.46968,-33.76426 44.46968,0 v 69.23872 H 562.8383 Z"
       sodipodi:nodetypes="zzccz" />
    <path
       id="rect873-6-7-7-8"
       style="fill:none;stroke:#f09a55;stroke-width:4;stroke-miterlimit:4;stroke-dasharray:none;stroke-opacity:1;paint-order:stroke fill markers"
       d="m 453.94383,670.91421 c 0,-33.26908 44.46968,-33.76426 44.46968,0 v 69.23872 h -44.46968 z"
       sodipodi:nodetypes="zzccz" />
    <path
       id="rect873-6-7-7-2"
       style="fill:none;stroke:#f09a55;stroke-width:4;stroke-miterlimit:4;stroke-dasharray:none;stroke-opacity:1;paint-order:stroke fill markers"
       d="m 345.04939,670.91421 c 0,-33.26908 44.46968,-33.76426 44.46968,0 v 69.23872 h -44.46968 z"
       sodipodi:nodetypes="zzccz" />
    <path
       id="rect873-6-7-7-2-7"
       style="fill:none;stroke:#f09a55;stroke-width:4;stroke-miterlimit:4;stroke-dasharray:none;stroke-opacity:1;paint-order:stroke fill markers"
       d="m 236.15495,670.91421 c 0,-33.26908 44.46968,-33.76426 44.46968,0 v 69.23872 h -44.46968 z"
       sodipodi:nodetypes="zzccz" />
    <path
       id="rect873-6-7-7-2-3"
       style="fill:none;stroke:#f09a55;stroke-width:4;stroke-miterlimit:4;stroke-dasharray:none;stroke-opacity:1;paint-order:stroke fill markers"
       d="m 127.26048,670.91421 c 0,-33.26908 44.46968,-33.76426 44.46968,0 v 69.23872 h -44.46968 z"
       sodipodi:nodetypes="zzccz" />
    <ellipse
       style="fill:none;stroke:#f09a55;stroke-width:4;stroke-miterlimit:4;stroke-dasharray:none;stroke-opacity:1;paint-order:stroke fill markers"
       id="path1146"
       cx="585.07312"
       cy="578.10309"
       rx="15.152288"
       ry="16.162441" />
    <ellipse
       style="fill:none;stroke:#f09a55;stroke-width:4;stroke-miterlimit:4;stroke-dasharray:none;stroke-opacity:1;paint-order:stroke fill markers"
       id="path1146-7"
       cx="693.96753"
       cy="578.10309"
       rx="15.152288"
       ry="16.162441" />
    <ellipse
       style="fill:none;stroke:#f09a55;stroke-width:4;stroke-miterlimit:4;stroke-dasharray:none;stroke-opacity:1;paint-order:stroke fill markers"
       id="path1146-6"
       cx="476.17868"
       cy="578.10309"
       rx="15.152288"
       ry="16.162441" />
    <ellipse
       style="fill:none;stroke:#f09a55;stroke-width:4;stroke-miterlimit:4;stroke-dasharray:none;stroke-opacity:1;paint-order:stroke fill markers"
       id="path1146-78"
       cx="367.28424"
       cy="578.10309"
       rx="15.152288"
       ry="16.162441" />
    <ellipse
       style="fill:none;stroke:#f09a55;stroke-width:4;stroke-miterlimit:4;stroke-dasharray:none;stroke-opacity:1;paint-order:stroke fill markers"
       id="path1146-8"
       cx="258.3898"
       cy="578.10309"
       rx="15.152288"
       ry="16.162441" />
    <ellipse
       style="fill:none;stroke:#f09a55;stroke-width:4;stroke-miterlimit:4;stroke-dasharray:none;stroke-opacity:1;paint-order:stroke fill markers"
       id="path1146-9"
       cx="149.49533"
       cy="578.10309"
       rx="15.152288"
       ry="16.162441" />
    <rect
       style="fill:none;stroke:#f09a55;stroke-width:4;stroke-miterlimit:4;stroke-dasharray:none;stroke-opacity:1;paint-order:stroke fill markers"
       id="rect873-7"
       width="26.10976"
       height="44.575512"
       x="41.450241"
       y="625.60095" />
    <path
       id="rect873-6-0"
       style="fill:none;stroke:#f09a55;stroke-width:4;stroke-miterlimit:4;stroke-dasharray:none;stroke-opacity:1;paint-order:stroke fill markers"
       d="m 41.785238,562.30119 c 0,-19.38433 25.91041,-19.67286 25.91041,0 v 29.72953 h -25.91041 z"
       sodipodi:nodetypes="zzccz" />
    <path
       id="rect873-6-7-71"
       style="fill:none;stroke:#f09a55;stroke-width:4;stroke-miterlimit:4;stroke-dasharray:none;stroke-opacity:1;paint-order:stroke fill markers"
       d="m 40.496658,722.43487 c 0,-19.38434 25.91041,-19.67286 25.91041,0 v 29.72956 h -25.91041 z"
       sodipodi:nodetypes="zzccz" />
    <rect
       style="fill:none;stroke:#f09a55;stroke-width:4;stroke-miterlimit:4;stroke-dasharray:none;stroke-opacity:1;paint-order:stroke fill markers"
       id="rect873-9-3"
       width="26.10976"
       height="44.575512"
       x="40.496658"
       y="795.63232" />
    <rect
       style="fill:none;stroke:#f09a55;stroke-width:4;stroke-miterlimit:4;stroke-dasharray:none;stroke-opacity:1;paint-order:stroke fill markers"
       id="rect873-90-8"
       width="26.10976"
       height="44.575512"
       x="41.69664"
       y="462.05264" />
    <rect
       style="fill:none;stroke:#f09a55;stroke-width:4;stroke-miterlimit:4;stroke-dasharray:none;stroke-opacity:1;paint-order:stroke fill markers"
       id="rect873-9-3-8"
       width="26.10976"
       height="44.575512"
       x="136.44044"
       y="795.63232" />
    <rect
       style="fill:none;stroke:#f09a55;stroke-width:4;stroke-miterlimit:4;stroke-dasharray:none;stroke-opacity:1;paint-order:stroke fill markers"
       id="rect873-9-3-8-2"
       width="26.10976"
       height="44.575512"
       x="245.3349"
       y="795.63232" />
    <rect
       style="fill:none;stroke:#f09a55;stroke-width:4;stroke-miterlimit:4;stroke-dasharray:none;stroke-opacity:1;paint-order:stroke fill markers"
       id="rect873-9-3-8-5"
       width="26.10976"
       height="44.575512"
       x="354.22931"
       y="795.63232" />
    <rect
       style="fill:none;stroke:#f09a55;stroke-width:4;stroke-miterlimit:4;stroke-dasharray:none;stroke-opacity:1;paint-order:stroke fill markers"
       id="rect873-9-3-8-3"
       width="26.10976"
       height="44.575512"
       x="463.12375"
       y="795.63232" />
    <rect
       style="fill:none;stroke:#f09a55;stroke-width:4;stroke-miterlimit:4;stroke-dasharray:none;stroke-opacity:1;paint-order:stroke fill markers"
       id="rect873-9-3-8-4"
       width="26.10976"
       height="44.575512"
       x="572.01819"
       y="795.63232" />
    <rect
       style="fill:none;stroke:#f09a55;stroke-width:4;stroke-miterlimit:4;stroke-dasharray:none;stroke-opacity:1;paint-order:stroke fill markers"
       id="rect873-9-3-8-1"
       width="26.10976"
       height="44.575512"
       x="680.9126"
       y="795.63232" />
    <path
       id="path1321-77"
       style="fill:none;stroke:#f09a55;stroke-width:4;stroke-miterlimit:4;stroke-dasharray:none;stroke-opacity:1;paint-order:stroke fill markers"
       d="m 934.99997,878.62653 c -1.4e-4,5e-5 -917.718854,0 -917.718854,0 V 414.68454 l 38.399563,-104.64286 38.399563,104.64286 -0.542435,114.53384 101.467663,0.64901 v -22.23191 l 8.93709,-27.01304 8.9371,27.01304 v 22.23191 h 91.02027 v -22.23191 l 8.93709,-27.01303 8.9371,27.01303 v 22.23191 h 84.80505 v 0 -22.23191 l 8.93709,-27.01304 8.9371,27.01304 v 22.23191 0 h 97.23548 v 0 -22.23191 l 8.93709,-27.01303 8.9371,27.01303 v 22.23191 0 h 91.0202 v 0 -22.23191 l 8.93709,-27.01303 8.9371,27.01303 v 22.23191 0 l 101.46762,-0.39936 V 365.30352 l 17.9637,-30.26096 17.96376,30.26096 v 72.89963 l 52.39605,-0.0734 0.65185,-202.9916 8.65556,-22.8391 8.65556,22.8391 h 10.95698 v -71.66296 h 12.30577 V 134.7626 l 9.90795,-48.188118 9.90808,47.638478 h 11.46937 c 0,0 11.61226,-34.280986 18.89783,-34.280986 l 5.34247,-34.840396"
       sodipodi:nodetypes="ccccccccccccccccccccccccccccccccccccccccccccccccccccccc" />
    <rect
       style="fill:none;stroke:#f09a55;stroke-width:4;stroke-miterlimit:4;stroke-dasharray:none;stroke-opacity:1;paint-order:stroke fill markers"
       id="rect873-3"
       width="26.10976"
       height="44.575512"
       x="-1076.2238"
       y="625.60095"
       transform="scale(-1,1)" />
    <path
       id="rect873-6-00"
       style="fill:none;stroke:#f09a55;stroke-width:4;stroke-miterlimit:4;stroke-dasharray:none;stroke-opacity:1;paint-order:stroke fill markers"
       d="m 1075.8888,562.30116 c 0,-19.38433 -25.9104,-19.67286 -25.9104,0 v 29.72953 h 25.9104 z"
       sodipodi:nodetypes="zzccz" />
    <rect
       style="fill:none;stroke:#f09a55;stroke-width:4;stroke-miterlimit:4;stroke-dasharray:none;stroke-opacity:1;paint-order:stroke fill markers"
       id="rect873-0-7-6-7"
       width="12.041177"
       height="44.602558"
       x="-1015.8611"
       y="547.37756"
       transform="scale(-1,1)" />
    <rect
       style="fill:none;stroke:#f09a55;stroke-width:4;stroke-miterlimit:4;stroke-dasharray:none;stroke-opacity:1;paint-order:stroke fill markers"
       id="rect873-0-7-6-9-6"
       width="12.041177"
       height="44.602558"
       x="-1015.9905"
       y="626.66272"
       transform="scale(-1,1)" />
    <rect
       style="fill:none;stroke:#f09a55;stroke-width:4;stroke-miterlimit:4;stroke-dasharray:none;stroke-opacity:1;paint-order:stroke fill markers"
       id="rect873-0-7-6-0-2"
       width="12.041177"
       height="44.602558"
       x="-1016.8568"
       y="708.97467"
       transform="scale(-1,1)" />
    <path
       id="rect873-6-7-6"
       style="fill:none;stroke:#f09a55;stroke-width:4;stroke-miterlimit:4;stroke-dasharray:none;stroke-opacity:1;paint-order:stroke fill markers"
       d="m 1077.1774,722.43484 c 0,-19.38434 -25.9104,-19.67286 -25.9104,0 v 29.72956 h 25.9104 z"
       sodipodi:nodetypes="zzccz" />
    <rect
       style="fill:none;stroke:#f09a55;stroke-width:4;stroke-miterlimit:4;stroke-dasharray:none;stroke-opacity:1;paint-order:stroke fill markers"
       id="rect873-9-8"
       width="26.10976"
       height="44.575512"
       x="-1079.4431"
       y="795.63232"
       transform="scale(-1,1)" />
    <rect
       style="fill:none;stroke:#f09a55;stroke-width:4;stroke-miterlimit:4;stroke-dasharray:none;stroke-opacity:1;paint-order:stroke fill markers"
       id="rect873-90-9"
       width="26.10976"
       height="44.575512"
       x="-1075.9773"
       y="462.05261"
       transform="scale(-1,1)" />
    <rect
       style="fill:none;stroke:#f09a55;stroke-width:4;stroke-miterlimit:4;stroke-dasharray:none;stroke-opacity:1;paint-order:stroke fill markers"
       id="rect873-5-4"
       width="26.10976"
       height="44.575512"
       x="-966.27289"
       y="464.65195"
       transform="scale(-1,1)" />
    <path
       id="rect873-6-9-4"
       style="fill:none;stroke:#f09a55;stroke-width:4;stroke-miterlimit:4;stroke-dasharray:none;stroke-opacity:1;paint-order:stroke fill markers"
       d="m 967.90617,562.57652 c 0,-19.38432 -25.9104,-19.67284 -25.9104,0 v 29.72959 h 25.9104 z"
       sodipodi:nodetypes="zzccz" />
    <rect
       style="fill:none;stroke:#f09a55;stroke-width:4;stroke-miterlimit:4;stroke-dasharray:none;stroke-opacity:1;paint-order:stroke fill markers"
       id="rect873-5-0-3"
       width="26.10976"
       height="44.575512"
       x="-968.0058"
       y="626.67627"
       transform="scale(-1,1)" />
    <path
       id="rect873-6-7-8-6"
       style="fill:none;stroke:#f09a55;stroke-width:4;stroke-miterlimit:4;stroke-dasharray:none;stroke-opacity:1;paint-order:stroke fill markers"
       d="m 970.50547,722.86805 c 0,-19.38439 -25.9104,-19.67291 -25.9104,0 v 29.72957 h 25.9104 z"
       sodipodi:nodetypes="zzccz" />
    <ellipse
       style="fill:none;stroke:#f09a55;stroke-width:4;stroke-miterlimit:4;stroke-dasharray:none;stroke-opacity:1;paint-order:stroke fill markers"
       id="path1066-4"
       cx="-1011.4835"
       cy="822.96411"
       rx="5.952487"
       ry="5.9524856"
       transform="scale(-1,1)" />
    <ellipse
       style="fill:none;stroke:#f09a55;stroke-width:4;stroke-miterlimit:4;stroke-dasharray:none;stroke-opacity:1;paint-order:stroke fill markers"
       id="path1066-5-7"
       cx="-1009.1925"
       cy="469.21582"
       rx="5.952487"
       ry="5.9524856"
       transform="scale(-1,1)" />
    <path
       id="rect873-6-7-7-4"
       style="fill:none;stroke:#f09a55;stroke-width:4;stroke-miterlimit:4;stroke-dasharray:none;stroke-opacity:1;paint-order:stroke fill markers"
       d="m 1198.2673,670.91421 c 0,-33.26908 -44.4697,-33.76426 -44.4697,0 v 69.23872 h 44.4697 z"
       sodipodi:nodetypes="zzccz" />
    <path
       id="rect873-6-7-7-1-3"
       style="fill:none;stroke:#f09a55;stroke-width:4;stroke-miterlimit:4;stroke-dasharray:none;stroke-opacity:1;paint-order:stroke fill markers"
       d="m 1307.1617,670.91421 c 0,-33.26908 -44.4697,-33.76426 -44.4697,0 v 69.23872 h 44.4697 z"
       sodipodi:nodetypes="zzccz" />
    <path
       id="rect873-6-7-7-8-3"
       style="fill:none;stroke:#f09a55;stroke-width:4;stroke-miterlimit:4;stroke-dasharray:none;stroke-opacity:1;paint-order:stroke fill markers"
       d="m 1416.0562,670.91421 c 0,-33.26908 -44.4697,-33.76426 -44.4697,0 v 69.23872 h 44.4697 z"
       sodipodi:nodetypes="zzccz" />
    <path
       id="rect873-6-7-7-2-4"
       style="fill:none;stroke:#f09a55;stroke-width:4;stroke-miterlimit:4;stroke-dasharray:none;stroke-opacity:1;paint-order:stroke fill markers"
       d="m 1524.9506,670.91421 c 0,-33.26908 -44.4697,-33.76426 -44.4697,0 v 69.23872 h 44.4697 z"
       sodipodi:nodetypes="zzccz" />
    <path
       id="rect873-6-7-7-2-7-1"
       style="fill:none;stroke:#f09a55;stroke-width:4;stroke-miterlimit:4;stroke-dasharray:none;stroke-opacity:1;paint-order:stroke fill markers"
       d="m 1633.845,670.91421 c 0,-33.26908 -44.4697,-33.76426 -44.4697,0 v 69.23872 h 44.4697 z"
       sodipodi:nodetypes="zzccz" />
    <path
       id="rect873-6-7-7-2-3-7"
       style="fill:none;stroke:#f09a55;stroke-width:4;stroke-miterlimit:4;stroke-dasharray:none;stroke-opacity:1;paint-order:stroke fill markers"
       d="m 1742.7395,670.91421 c 0,-33.26908 -44.4697,-33.76426 -44.4697,0 v 69.23872 h 44.4697 z"
       sodipodi:nodetypes="zzccz" />
    <ellipse
       style="fill:none;stroke:#f09a55;stroke-width:4;stroke-miterlimit:4;stroke-dasharray:none;stroke-opacity:1;paint-order:stroke fill markers"
       id="path1146-2"
       cx="-1284.9268"
       cy="578.10309"
       rx="15.152288"
       ry="16.162441"
       transform="scale(-1,1)" />
    <ellipse
       style="fill:none;stroke:#f09a55;stroke-width:4;stroke-miterlimit:4;stroke-dasharray:none;stroke-opacity:1;paint-order:stroke fill markers"
       id="path1146-7-9"
       cx="-1176.0323"
       cy="578.10309"
       rx="15.152288"
       ry="16.162441"
       transform="scale(-1,1)" />
    <ellipse
       style="fill:none;stroke:#f09a55;stroke-width:4;stroke-miterlimit:4;stroke-dasharray:none;stroke-opacity:1;paint-order:stroke fill markers"
       id="path1146-6-7"
       cx="-1393.8212"
       cy="578.10309"
       rx="15.152288"
       ry="16.162441"
       transform="scale(-1,1)" />
    <ellipse
       style="fill:none;stroke:#f09a55;stroke-width:4;stroke-miterlimit:4;stroke-dasharray:none;stroke-opacity:1;paint-order:stroke fill markers"
       id="path1146-78-8"
       cx="-1502.7156"
       cy="578.10309"
       rx="15.152288"
       ry="16.162441"
       transform="scale(-1,1)" />
    <ellipse
       style="fill:none;stroke:#f09a55;stroke-width:4;stroke-miterlimit:4;stroke-dasharray:none;stroke-opacity:1;paint-order:stroke fill markers"
       id="path1146-8-6"
       cx="-1611.6101"
       cy="578.10309"
       rx="15.152288"
       ry="16.162441"
       transform="scale(-1,1)" />
    <ellipse
       style="fill:none;stroke:#f09a55;stroke-width:4;stroke-miterlimit:4;stroke-dasharray:none;stroke-opacity:1;paint-order:stroke fill markers"
       id="path1146-9-4"
       cx="-1720.5046"
       cy="578.10309"
       rx="15.152288"
       ry="16.162441"
       transform="scale(-1,1)" />
    <rect
       style="fill:none;stroke:#f09a55;stroke-width:4;stroke-miterlimit:4;stroke-dasharray:none;stroke-opacity:1;paint-order:stroke fill markers"
       id="rect873-7-3"
       width="26.10976"
       height="44.575512"
       x="-1828.5497"
       y="625.60095"
       transform="scale(-1,1)" />
    <path
       id="rect873-6-0-8"
       style="fill:none;stroke:#f09a55;stroke-width:4;stroke-miterlimit:4;stroke-dasharray:none;stroke-opacity:1;paint-order:stroke fill markers"
       d="m 1828.2147,562.30119 c 0,-19.38433 -25.9104,-19.67286 -25.9104,0 v 29.72953 h 25.9104 z"
       sodipodi:nodetypes="zzccz" />
    <path
       id="rect873-6-7-71-3"
       style="fill:none;stroke:#f09a55;stroke-width:4;stroke-miterlimit:4;stroke-dasharray:none;stroke-opacity:1;paint-order:stroke fill markers"
       d="m 1829.5033,722.43487 c 0,-19.38434 -25.9104,-19.67286 -25.9104,0 v 29.72956 h 25.9104 z"
       sodipodi:nodetypes="zzccz" />
    <rect
       style="fill:none;stroke:#f09a55;stroke-width:4;stroke-miterlimit:4;stroke-dasharray:none;stroke-opacity:1;paint-order:stroke fill markers"
       id="rect873-9-3-5"
       width="26.10976"
       height="44.575512"
       x="-1829.5033"
       y="795.63232"
       transform="scale(-1,1)" />
    <rect
       style="fill:none;stroke:#f09a55;stroke-width:4;stroke-miterlimit:4;stroke-dasharray:none;stroke-opacity:1;paint-order:stroke fill markers"
       id="rect873-90-8-6"
       width="26.10976"
       height="44.575512"
       x="-1828.3033"
       y="462.05264"
       transform="scale(-1,1)" />
    <rect
       style="fill:none;stroke:#f09a55;stroke-width:4;stroke-miterlimit:4;stroke-dasharray:none;stroke-opacity:1;paint-order:stroke fill markers"
       id="rect873-9-3-8-9"
       width="26.10976"
       height="44.575512"
       x="-1733.5596"
       y="795.63232"
       transform="scale(-1,1)" />
    <rect
       style="fill:none;stroke:#f09a55;stroke-width:4;stroke-miterlimit:4;stroke-dasharray:none;stroke-opacity:1;paint-order:stroke fill markers"
       id="rect873-9-3-8-2-5"
       width="26.10976"
       height="44.575512"
       x="-1624.665"
       y="795.63232"
       transform="scale(-1,1)" />
    <rect
       style="fill:none;stroke:#f09a55;stroke-width:4;stroke-miterlimit:4;stroke-dasharray:none;stroke-opacity:1;paint-order:stroke fill markers"
       id="rect873-9-3-8-5-2"
       width="26.10976"
       height="44.575512"
       x="-1515.7706"
       y="795.63232"
       transform="scale(-1,1)" />
    <rect
       style="fill:none;stroke:#f09a55;stroke-width:4;stroke-miterlimit:4;stroke-dasharray:none;stroke-opacity:1;paint-order:stroke fill markers"
       id="rect873-9-3-8-3-9"
       width="26.10976"
       height="44.575512"
       x="-1406.8761"
       y="795.63232"
       transform="scale(-1,1)" />
    <rect
       style="fill:none;stroke:#f09a55;stroke-width:4;stroke-miterlimit:4;stroke-dasharray:none;stroke-opacity:1;paint-order:stroke fill markers"
       id="rect873-9-3-8-4-6"
       width="26.10976"
       height="44.575512"
       x="-1297.9817"
       y="795.63232"
       transform="scale(-1,1)" />
    <rect
       style="fill:none;stroke:#f09a55;stroke-width:4;stroke-miterlimit:4;stroke-dasharray:none;stroke-opacity:1;paint-order:stroke fill markers"
       id="rect873-9-3-8-1-1"
       width="26.10976"
       height="44.575512"
       x="-1189.0873"
       y="795.63232"
       transform="scale(-1,1)" />
    <path
       id="path1321-77-0"
       style="fill:none;stroke:#f09a55;stroke-width:4;stroke-miterlimit:4;stroke-dasharray:none;stroke-opacity:1;paint-order:stroke fill markers"
       d="m 934.99997,878.62653 c 2e-4,5e-5 917.71893,0 917.71893,0 V 414.68454 l -38.3996,-104.64286 -38.3996,104.64286 0.5425,114.53384 -101.4677,0.64901 v -22.23191 l -8.9371,-27.01304 -8.9371,27.01304 v 22.23191 H 1566.1 v -22.23191 l -8.937,-27.01303 -8.9371,27.01303 v 22.23191 h -84.8051 v 0 -22.23191 l -8.9371,-27.01304 -8.9371,27.01304 v 22.23191 0 h -97.2355 v 0 -22.23191 l -8.937,-27.01303 -8.9371,27.01303 v 22.23191 0 h -91.0202 v 0 -22.23191 l -8.9371,-27.01303 -8.9371,27.01303 v 22.23191 0 L 1120.075,529.46803 V 365.30352 l -17.9637,-30.26096 -17.9638,30.26096 v 72.89963 l -52.3961,-0.0734 -0.6518,-202.9916 -8.6556,-22.8391 -8.6555,22.8391 h -10.957 V 163.47519 H 990.52567 V 134.7626 l -9.9079,-48.188118 -9.9081,47.638478 h -11.4694 c 0,0 -11.6122,-34.280986 -18.8978,-34.280986 l -5.3425,-34.840396"
       sodipodi:nodetypes="ccccccccccccccccccccccccccccccccccccccccccccccccccccccc" />
    <rect
       style="fill:none;stroke:#f09a55;stroke-width:4;stroke-miterlimit:4;stroke-dasharray:none;stroke-opacity:1;paint-order:stroke fill markers"
       id="rect873-5-4-6"
       width="26.10976"
       height="44.575512"
       x="-948.05487"
       y="391.64081"
       transform="scale(-1,1)" />
    <path
       id="rect873-6-9-3"
       style="fill:none;stroke:#f09a55;stroke-width:4;stroke-miterlimit:4;stroke-dasharray:none;stroke-opacity:1;paint-order:stroke fill markers"
       d="m 891.17773,248.9351 c 0,-24.83981 29.81328,-25.20952 29.81328,0 v 38.09663 h -29.81328 z"
       sodipodi:nodetypes="zzccz" />
    <path
       id="rect873-6-9-3-6"
       style="fill:none;stroke:#f09a55;stroke-width:4;stroke-miterlimit:4;stroke-dasharray:none;stroke-opacity:1;paint-order:stroke fill markers"
       d="m 949.00896,248.43003 c 0,-24.83981 29.81328,-25.20952 29.81328,0 v 38.09663 h -29.81328 z"
       sodipodi:nodetypes="zzccz" />
    <path
       id="rect873-6-7-7-4-4"
       style="fill:none;stroke:#f09a55;stroke-width:4;stroke-miterlimit:4;stroke-dasharray:none;stroke-opacity:1;paint-order:stroke fill markers"
       d="m 981.01146,809.38781 c 0,-33.26908 -92.02295,-33.76426 -92.02295,0 v 69.23872 h 92.02295 z"
       sodipodi:nodetypes="zzccz" />
    <path
       id="path1582"
       style="fill:none;stroke:#f09a55;stroke-width:4;stroke-linecap:butt;stroke-linejoin:miter;stroke-miterlimit:4;stroke-dasharray:none;stroke-opacity:1"
       d="m 839.4728,360.90925 23.33374,-29.73983 23.33387,29.73983 v 77.66218 h 21.19576 v -77.85714 c 26.76904,0 28.57143,-48.57143 28.57143,-48.57143"
       sodipodi:nodetypes="ccccccc" />
    <path
       id="path1582-8"
       style="fill:none;stroke:#f09a55;stroke-width:4;stroke-linecap:butt;stroke-linejoin:miter;stroke-miterlimit:4;stroke-dasharray:none;stroke-opacity:1"
       d="m 1032.3424,360.90925 -23.3337,-29.73983 -23.33391,29.73983 v 77.66219 h -21.19576 v -77.85715 c -26.76904,0 -28.57143,-48.57143 -28.57143,-48.57143"
       sodipodi:nodetypes="ccccccc" />
  </g>
</svg>
