<?xml version="1.0" encoding="UTF-8" standalone="no"?>
<svg xmlns="http://www.w3.org/2000/svg" width="1024" height="1024" baseProfile="tiny-ps" version="1.2">
  <title>
    Glauca / AS207960
  </title>
  <circle cx="512" cy="512" r="500" fill="#231f20"/>
  <circle cx="512" cy="512" r="386" fill="#fff"/>
  <g transform="matrix(7.64358 0 0 7.64358 -275.615 -378.31)">
    <path fill="#2889e9" stroke="#c80000" stroke-width="1.058" d="M119.937 98.492s-1.63.897-2.268 1.512c-.638.614-3.095 2.787-3.331 3.07-.236.284-2.528 2.08-2.693 2.34-.166.26-2.882 3.496-3.119 3.85-.236.354-2.575 3.732-2.905 3.992-.331.26-3.024.095-3.945.26-.922.166-1.158.355-1.725.33-.567-.023-1.724-.094-1.89-.259-.165-.165-.496-.496-.52-.709-.023-.212.166-1.63.166-1.63s-.52.024-.756.095c-.236.07-2.244 1.44-2.244 1.44l-1.583 1.111s-.449.425-.732.425c-.284 0-2.599-.047-3.638.095-1.04.142-4.725.803-5.174.898-.449.094-1.417.425-1.819.472-.402.047-2.551.307-2.906.33l-1.346.095s-.355-.827-.284-1.96c.071-1.134.473-3.166.567-3.426.095-.26.284-.543.284-.543s-.898.047-1.465.425c-.567.378-1.913 1.583-2.575 2.74-.661 1.158-2.032 2.977-2.268 3.544-.236.567-.874.898-1.275 1.157-.402.26-1.536.993-1.961 1.229-.425.236-2.457 2.268-2.67 2.575-.212.307-1.771 2.268-2.031 2.598-.26.331-1.418 2.457-1.418 2.457s-.189-.543-.118-.85c.071-.307.78-1.654.803-1.866.024-.213.426-1.725.402-2.268-.024-.544-.213-1.158-.213-1.158l-3.449 3.095s-2.244 2.244-2.598 2.716c-.355.473-1.3 1.701-1.536 2.953-.236 1.252.59 2.457.59 2.457s2.529 3.095 2.883 4.04c.354.945 1.89 5.788 2.386 6.496.496.71 2.551 3.757 4.087 5.292 1.535 1.536.567 1.158 1.937 2.079 1.37.921 3.662 2.48 4.843 3 1.18.52 3.449 1.82 3.449 1.82l9.355 2.361s1.063.19 2.173.237c1.11.047 1.276-.142 2.197-.048.921.095 2.953.308 3.449.166s2.055-1.441 2.055-1.441-1.417-1.56-2.433-2.244c-1.016-.686-2.74-1.961-3.118-2.316-.378-.354-2.183-2.053-2.68-2.381-1.316-.865-4.335-4.188-5.712-6.207-.354-.52-.774-.939-.957-1.528-.426-1.37.277-1.955.183-2.735-.095-.78-.52-4.205-.52-4.205s.855.498 1.34.734c.484.236 1.164.613 1.566.447.401-.165.992-1.157 1.228-1.417s2.129-2.19 2.599-2.764c.47-.574 1.476-1.894 1.913-2.315.438-.421.922-.921 1.205-1.181.284-.26 3.567-2.646 3.567-2.646s-.838-.095-1.937-.106c0 0 .546-.349 1.146-.626.788-.366 2.41-1.548 3.118-1.997.709-.448 1.217-.838 1.76-.91.543-.07 3.32-.188 3.78-.105.46.082.614.106.567-.13-.047-.237-.355-.733-.177-.827.177-.095.555-.33.956-.295.402.035.603.047.768.236.166.189.437.968.827 1.417.39.45.614 1.181 1.3 1.973.684.791 1.05 1.535 1.913 2.126.862.59 1.748.933 1.748.933s-.508-.732-.543-1.724c-.036-.993-.119-2.41.283-4.111.402-1.7 1.24-3.33 1.453-3.744.213-.414.709-2.103 2.067-3.627 1.358-1.523 3.154-3.886 3.65-4.689.496-.803 1.063-1.807 1.216-2.303.154-.496.225-1.713.248-1.937.024-.225 0-.508.095-.614.094-.107.98-.804 1.158-1.182.177-.378.72-2.138.79-2.386.072-.248.485-1.464.52-1.641.036-.178-.058-.567-.058-.567z"/>
    <path fill="none" stroke="#1358bc" stroke-linecap="round" stroke-linejoin="round" stroke-width=".979" d="M88.45 157.435l-2.306-2.439"/>
    <path fill="#c9e4ff" d="M81.903 128.234l-.87 1.188-1.838.184-.117-1.504s.401-.885.719-1.252c.317-.368.55-.619.601-.786.05-.167.267-.6.418-.718.15-.117 1.152-.935 1.603-1.22.451-.283.785-.734 1.337-.951.55-.218 1.219-.468 1.503-.502.284-.033 2.255-.2 2.372-.116.117.083.15.15.267.133.117-.017 1.37-.267 1.454-.267.083 0 1.737-.451 1.904-.518.167-.067 1.904-.618 2.021-.618.117 0 .601-.184.869-.2.267-.017.768.016.952.033.184.017 1.286.017 1.587.033.3.017.701.034.701.034l-1.503.969-3.558 2.555-2.155.635-3.307.485-3.842 1.47zM62.378 142.372c.744.248 2.055.532 3.106.555 1.052.024 2.8.485 3.308.626.508.142 1.04.378 1.559.461.52.083.685-.047 1.228.071.544.118 2.126.78 2.67 1.276.543.496 1.134 1.393 1.535 1.795.402.402 1.323 1.063 1.796 1.37.472.307 1.063.827 1.512 1.276.448.449.767 1.122 1.89 2.197 1.122 1.075 1.724 1.476 2.244 1.654.52.177 1.559.685 1.925.72.366.035 1.051.26 1.051.26l2.268 1.902.437.65-3.933-.272-7.536-1.867s-2.67-1.069-3.003-1.035c-.335.033-5.814-3.341-5.814-3.341s-2.84-2.172-2.84-2.439c0-.267-3.226-4.914-3.226-4.914z"/>
    <path fill="#1358bc" d="M75.146 122.694s.296.083.945-.047c.65-.13 1.276-.307 1.619-.496.342-.19.956-.697 1.098-.768.142-.071.13.012.26-.071.13-.083.744-.709 1.004-.98.26-.272.957-.816 1.193-1.075.236-.26.472-.567.437-.874-.036-.308-.106-.414-.33-.544-.225-.13-.438-.26-.686-.26-.248 0-1.028.083-1.217.118-.188.036-.661.083-.803.119-.141.035-.46.094-.46.094l-.591-.933-.378-1.571.095-2.114.342-2.056-.496-.248-.248.142s-.319.59-.437.898c-.118.307-.26.697-.366.91-.107.212-.236.448-.343.755a8.574 8.574 0 00-.295 1.264c-.047.343-.083.815-.224 1.3a12.694 12.694 0 00-.378 1.783c-.083.626-.308 1.5-.32 2.209-.011.709-.047 1.086.012 1.453.06.366.048.661.142.756a1 1 0 00.225.189c.082.047.2.047.2.047z"/>
    <path fill="none" stroke="#1358bc" stroke-linecap="round" stroke-linejoin="round" stroke-width="1.005" d="M79.198 127.017s-.177.142-.248.532c-.071.39-.142 1.11-.012 1.535.13.425.13.473.46.567.331.095 1.37-.094 1.713-.33.343-.237.792-1.087.792-1.087"/>
    <path fill="#152b61" stroke="#000" stroke-linecap="round" stroke-width=".476" d="M75.879 154.81c-.284-.968-.85-2.032-.922-2.622-.07-.59-.141-1.512-.141-1.512s.212.189.968.992c.756.803 1.205 1.914 1.63 2.174.425.26 1.748 1.133 1.748 1.133l.662.662z"/>
    <path fill="none" stroke="#1358bc" stroke-linecap="round" stroke-linejoin="round" stroke-width=".741" d="M78.11 133.64s.317-.434.684-.493c.368-.058.318-.192.552-.008.234.184.259 1.153.259 1.153l.359 2.372"/>
    <path fill="none" stroke="#1358bc" stroke-linecap="round" stroke-width="1.032" d="M62.975 121.738s.117.668-.05 1.704-.785 3.19-.985 3.708c-.2.518-.618.835-.785 1.504-.167.668-.318 2.138-.385 2.806-.066.668-.083 1.136-.083 1.136"/>
    <path fill="#1358bc" d="M91.718 125.647s-.638.118-1.464.579c-.827.46-1.784 1.18-2.256 1.5-.473.319-1.418 1.134-1.82 1.618-.401.484-1.955 2.483-2.59 2.951-.634.468-1 1.183-1.72 1.325-.721.142-1.04.26-1.383.035-.342-.224-.744-.508-.744-.508l-.059.296.437 1.37 1.925.72 1.595-.815 2.339-3.035 2.031-2.21 1.571-1.57 2.091-1.595.65-.52z"/>
    <path fill="none" stroke="#1358bc" stroke-linecap="round" stroke-linejoin="round" stroke-width=".9" d="M76.8 137.636s.26-.26.567-.496c.307-.237.366-.32.508-.225.142.095.697.614.815.85.118.237.602 1.902.602 1.902l.45.945"/>
    <path fill="none" stroke="#1358bc" stroke-linecap="round" stroke-linejoin="round" stroke-width=".847" d="M76.706 135.402s.385-.35.719-.601c.334-.25.568-.435.785-.3.217.133.434.567.551.784.117.217.35 1.053.4 1.203.051.15.77 2.422.77 2.422"/>
    <path fill="#1358bc" d="M108.495 125.647s-.468.033-1.136-.969c-.668-1.002-1.136-2.172-1.604-2.706-.468-.535-.885-1.47-1.403-1.988s-1.22-.585-1.22-.585-1.286.117-1.72.318c-.434.2-.685.434-.702.534-.016.1.117.25.1.318-.016.067 0-.084-.617-.017-.618.067-1.921.3-2.155.367-.234.067-.535.117-.718.234-.184.117.167.501.167.501l2.539.117 1.403-.434.133-.752 1.003-.384 1.019.802 2.071 3.157 2.372 2.188z"/>
    <path fill="none" stroke="#1358bc" stroke-linecap="round" stroke-linejoin="round" stroke-width=".979" d="M63.86 136.388s-.183-.234-.734-.15c-.552.083-1.053.35-1.103.584-.05.234-.5 1.487-.467 1.62.033.134.217 2.99.217 2.99l.083 1.32"/>
    <path fill="none" stroke="#1358bc" stroke-linecap="round" stroke-linejoin="round" stroke-width=".82" d="M63.042 135.001s-.317-.234-.718-.334c-.401-.1-.317-.117-.468.017-.15.134-.334.334-.367.585-.034.25-.134.2-.234 1.085-.1.886-.234 2.74-.234 3.024 0 .284-.033 1.086-.033 1.086"/>
    <path fill="none" stroke="#1358bc" stroke-linecap="round" stroke-width=".767" d="M61.572 133.79s-.067-.133-.142-.292c-.075-.159-.058-.192-.15-.2-.092-.009-.097-.086-.267.041s-.25.368-.268.543c-.016.176-.384.835-.4 1.278-.017.443-.164 1.59-.164 1.59l-.129 1.066"/>
    <path fill="none" stroke="#1358bc" stroke-linecap="round" stroke-linejoin="round" stroke-width="1.587" d="M58.181 126.031s-.568.785-.835 1.754-.635 1.153-.468 2.238c.167 1.086.535 1.754.702 2.255.167.502 1.152 2.506 1.152 2.506"/>
    <path fill="none" stroke="#000" stroke-width="1.058" d="M119.937 98.492s-1.63.897-2.268 1.512c-.638.614-3.095 2.787-3.331 3.07-.236.284-2.528 2.08-2.693 2.34-.166.26-2.882 3.496-3.119 3.85-.236.354-2.575 3.732-2.905 3.992-.331.26-3.024.095-3.945.26-.922.166-1.158.355-1.725.33-.567-.023-1.724-.094-1.89-.259-.165-.165-.496-.496-.52-.709-.023-.212.166-1.63.166-1.63s-.52.024-.756.095c-.236.07-2.244 1.44-2.244 1.44l-1.583 1.111s-.449.425-.732.425c-.284 0-2.599-.047-3.638.095-1.04.142-4.725.803-5.174.898-.449.094-1.417.425-1.819.472-.402.047-2.551.307-2.906.33l-1.346.095s-.355-.827-.284-1.96c.071-1.134.473-3.166.567-3.426.095-.26.284-.543.284-.543s-.898.047-1.465.425c-.567.378-1.913 1.583-2.575 2.74-.661 1.158-2.032 2.977-2.268 3.544-.236.567-.874.898-1.275 1.157-.402.26-1.536.993-1.961 1.229-.425.236-2.457 2.268-2.67 2.575-.212.307-1.771 2.268-2.031 2.598-.26.331-1.418 2.457-1.418 2.457s-.189-.543-.118-.85c.071-.307.78-1.654.803-1.866.024-.213.426-1.725.402-2.268-.024-.544-.213-1.158-.213-1.158l-3.449 3.095s-2.244 2.244-2.598 2.716c-.355.473-1.3 1.701-1.536 2.953-.236 1.252.59 2.457.59 2.457s2.529 3.095 2.883 4.04c.354.945 1.89 5.788 2.386 6.496.496.71 2.551 3.757 4.087 5.292 1.535 1.536.567 1.158 1.937 2.079 1.37.921 3.662 2.48 4.843 3 1.18.52 3.449 1.82 3.449 1.82l9.355 2.361s1.063.19 2.173.237c1.11.047 1.276-.142 2.197-.048.921.095 2.953.308 3.449.166s2.055-1.441 2.055-1.441-1.417-1.56-2.433-2.244c-1.016-.686-2.74-1.961-3.118-2.316-.378-.354-2.183-2.053-2.68-2.381-1.316-.865-4.335-4.188-5.712-6.207-.354-.52-.774-.939-.957-1.528-.426-1.37.277-1.955.183-2.735-.095-.78-.52-4.205-.52-4.205s.855.498 1.34.734c.484.236 1.164.613 1.566.447.401-.165.992-1.157 1.228-1.417s2.129-2.19 2.599-2.764c.47-.574 1.476-1.894 1.913-2.315.438-.421.922-.921 1.205-1.181.284-.26 3.567-2.646 3.567-2.646s-.838-.095-1.937-.106c0 0 .546-.349 1.146-.626.788-.366 2.41-1.548 3.118-1.997.709-.448 1.217-.838 1.76-.91.543-.07 3.32-.188 3.78-.105.46.082.614.106.567-.13-.047-.237-.355-.733-.177-.827.177-.095.555-.33.956-.295.402.035.603.047.768.236.166.189.437.968.827 1.417.39.45.614 1.181 1.3 1.973.684.791 1.05 1.535 1.913 2.126.862.59 1.748.933 1.748.933s-.508-.732-.543-1.724c-.036-.993-.119-2.41.283-4.111.402-1.7 1.24-3.33 1.453-3.744.213-.414.709-2.103 2.067-3.627 1.358-1.523 3.154-3.886 3.65-4.689.496-.803 1.063-1.807 1.216-2.303.154-.496.225-1.713.248-1.937.024-.225 0-.508.095-.614.094-.107.98-.804 1.158-1.182.177-.378.72-2.138.79-2.386.072-.248.485-1.464.52-1.641.036-.178-.058-.567-.058-.567z"/>
    <path fill="none" stroke="#000" stroke-linecap="round" stroke-width=".529" d="M91.352 125.222s-2.936.291-4.64.759c-1.704.468-2.556.802-3.19 1.12-.635.316-1.186.767-1.337 1.035-.15.267-.25 1.119-.735 1.52-.484.4-1.553.568-1.754.518-.2-.05-.35-.084-.35-.084"/>
    <path fill="none" stroke="#000" stroke-linecap="round" stroke-width=".873" d="M77.509 116.21s.047.755.579 1.547a7.55 7.55 0 001.252 1.393"/>
    <path fill="none" stroke="#000" stroke-linecap="round" stroke-width=".767" d="M71.528 117.445s-1.503 2.606-1.72 3.14c-.218.535-1.103 2.423-1.253 2.924-.15.5-.301.868-.301.868"/>
    <path fill="none" stroke="#000" stroke-linecap="round" stroke-width=".397" d="M79.871 134.47s.083-.307-.272-.708c-.354-.402-.271-.426-.437-.497-.165-.07-.567.119-.567.119"/>
    <path fill="none" stroke="#000" stroke-linecap="round" stroke-width=".423" d="M80.166 139.68s-.378-.639-.531-1.217c-.154-.58-.473-2.74-.697-3.237-.224-.496-.224-.661-.496-.661s-.532.082-.567.177c-.036.094-.307.531-.307.531"/>
    <path fill="none" stroke="#000" stroke-linecap="round" stroke-width=".556" d="M80.084 141.108s-.544-.39-.626-.59c-.083-.2-1.028-3.048-1.134-3.343-.107-.295-.236-.661-.425-.72-.19-.06-.308-.012-.367.035s-.26.283-.26.283"/>
    <path fill="none" stroke="#000" stroke-linecap="round" stroke-width=".529" d="M62.555 143.317s-.153-.472-.449-1.736c-.295-1.264-.52-1.56-.366-2.292.154-.732.2-1.18.402-1.641.2-.461.39-1.016.578-1.052.19-.035 1.123.201 1.123.201"/>
    <path fill="none" stroke="#000" stroke-linecap="round" stroke-width=".423" d="M60.523 139.124s-.035-.862.06-1.512c.094-.65.082-1.24.26-1.665.177-.426.401-.863.543-1.063.141-.201.224-.461.413-.52.19-.06.402-.083.449-.071.047.012.508.26.508.26"/>
    <path fill="none" stroke="#000" stroke-linecap="round" stroke-width=".344" d="M61.433 133.16s-.07-.119-.13-.119c-.059 0-.189.024-.213.07a8.026 8.026 0 01-.248.355s-.141.26-.2.425c-.06.166-.355 1.158-.367 1.264l-.106 1.075.012.52"/>
    <path fill="none" stroke="#000" stroke-linecap="round" stroke-width=".9" d="M62.413 127.005l-.908 1.95"/>
    <path fill="none" stroke="#1358bc" stroke-linecap="round" stroke-width=".794" d="M85.936 122.982c.618-.993 1.002-1.97 1.495-2.422l.4-.342M89.585 120.184c-.701.368-1.069.435-1.587.852-.517.418-1.637 1.67-1.637 1.67"/>
    <path fill="none" stroke="#1358bc" stroke-linecap="round" stroke-linejoin="round" stroke-width=".794" d="M91.122 120.285c-.5.183-.802.167-1.32.5-.517.335-.801.268-1.436.72-.635.45-1.27 1.018-1.27 1.018"/>
    <path fill="none" stroke="#000" stroke-linecap="round" stroke-width=".079" d="M85.936 122.982s.442-.927.643-1.244c.2-.317 1.252-1.52 1.252-1.52"/>
    <path fill="none" stroke="#000" stroke-linecap="round" stroke-linejoin="round" stroke-width=".079" d="M86.361 122.707s.602-.869 1.07-1.236c.467-.368 2.154-1.286 2.154-1.286M87.096 122.523s.15-.217.702-.601c.551-.384 1.236-.886 1.453-.902.217-.017 1.871-.735 1.871-.735"/>
    <path fill="none" stroke="#000" stroke-linecap="round" stroke-width=".079" d="M78.828 127.384s-.067.167.25.718c.318.552.418 1.27.702 1.504"/>
    <path fill="none" stroke="#000" stroke-linecap="round" stroke-linejoin="round" stroke-width=".079" d="M78.544 127.618s.066.276.167.518c.154 1.15.969 2.355 1.353 2.74M78.39 127.7s-.06.41-.063.82c.167 1.12.35 1.353.534 1.537.184.184.318.367.318.367"/>
    <path fill="none" stroke="#000" stroke-linecap="round" stroke-linejoin="round" stroke-width=".609" d="M88.47 156.535s-.872-.603-1.424-1.07c-.55-.469-1.069-1.012-1.069-1.012l-.242.769"/>
    <path fill="none" stroke="#1358bc" stroke-linecap="round" stroke-linejoin="round" stroke-width="1.323" d="M65.579 139.372s.709.2 1.276 1.288c.567 1.086 1.074 1.937 1.216 2.421.142.484.756 2.729.756 2.729"/>
    <path fill="none" stroke="#000" stroke-linecap="round" stroke-width=".053" d="M66.684 139.912s1.704 3.792 1.837 4.427c.134.635.306 1.47.306 1.47M65.965 139.344c.752 1.337 1.303 2.623 1.404 2.807.1.183.785 2.121.785 2.121"/>
    <path fill="none" stroke="#000" stroke-linecap="round" stroke-linejoin="round" stroke-width=".053" d="M65.319 139.49s1.075 1.748 1.146 1.95c.07.2.98 1.972.98 1.972"/>
    <path fill="none" stroke="#1358bc" stroke-linecap="round" stroke-linejoin="round" stroke-width="1.376" d="M72.096 142.769c1.27-.234 1.353-.702 2.272-.334.918.367 1.453.885 1.653 1.37.2.484.251.851.251.851"/>
    <path fill="none" stroke="#000" stroke-linecap="round" stroke-linejoin="round" stroke-width=".609" d="M72.497 142.535c1.436.134 2.539.267 2.973.718.435.451.819 2.155.819 2.155"/>
    <path fill="none" stroke="#1358bc" stroke-linecap="round" stroke-linejoin="round" stroke-width=".529" d="M84.825 153.877c-.869-.3-1.554-.4-2.372-1.186-.819-.785-3.074-3.057-3.074-3.057"/>
    <path fill="#fff" d="M74.025 148.298c.41-.217 1.128-.677 1.136-1.01.009-.335-.125-1.203-.125-1.203l-.643-.293-1.604 1.203-.468.4.635.527z"/>
    <path fill="none" stroke="#1358bc" stroke-linecap="round" stroke-linejoin="round" stroke-width="1.032" d="M71.561 144.23c.067-.033.56-.25 1.512-.016.952.234 1.696 1.094 1.754 1.194.059.1.576 1.395.551 1.854"/>
    <path fill="#26d2ef" d="M70.952 145.016c.067-.2.183-.577.46-.61.275-.034 1.778.108 1.778.108l1.211.71.443.735s-.059.31-.267.535c-.21.225-.602.584-.944.735-.343.15-.585.259-.802.275-.217.017-1.002-.45-1.002-.45l-.577-1.036z"/>
    <path fill="#fff" d="M72.03 144.306l.868.158.058.76-.46.902-.626.067-.426-.284z"/>
    <path fill="none" stroke="#000" stroke-linecap="round" stroke-linejoin="round" stroke-width=".529" d="M71.561 144.23s.218-.108.902.034c.685.142 1.354.426 1.42.518.067.092 1.186 1.16 1.337 1.453"/>
    <path fill="none" stroke="#000" stroke-linecap="round" stroke-linejoin="round" stroke-width=".688" d="M71.862 144.498s-.267.15-.342.534c-.163.831-.25 1.086.025 1.161.275.075.927.142 1.002-.058.075-.2.626-1.353.626-1.353"/>
    <path fill="none" stroke="#000" stroke-linecap="round" stroke-width=".503" d="M70.952 145.016c.075.6.142 1.169.417 1.561.276.393.819.627.952.819.134.192 1.871.935 1.871.935"/>
  </g>
  <path fill="#fff" d="M133.463 467.135l115.822 68.266 116.589 19.943 204.797-19.176 58.294 9.205 4.603 59.061-53.693 6.903-217.836 2.301-171.815-39.885-36.818-35.284-18.409-26.846z"/>
  <path fill="#ed1c24" d="M459.62 880.053l39.143 5.809 109.005-302.22c-68.77-30.71-66.483-14.855-163.84 7.858-113.178 26.405-224.87-20.583-303.214-88.929-2.204 50.585 65.125 222.096 287.411 190.804 39.187-5.517 87.305 22.023 87.305 22.023z"/>
  <path fill="#231f20" d="M621.786 870.786c21.785-3.572 30.58-8.675 46.071-17.857L850.296 345.43s-23.726-13.743-33.588-26.011z"/>
  <path fill="#5bcffa" stroke="#5bcffa" stroke-width="1.8" d="M684.207 606.32c-44.474-27.725-64.385-38.106-87.5-45.623-18.603-6.05-34.386-8.313-53.47-7.67-19.974.673-33.598 3.469-61.452 12.612-31.863 10.459-52.824 14.962-80.223 17.233-11.608.963-48.136.503-56.64-.712l-10.715-1.528c-61.795-8.797-122.54-37.731-180.714-86.08-7.788-6.472-12.829-11.047-12.829-11.047s.284-4.408.674-8.963c.401-4.681 1.232-12.047 1.847-16.368 1.1-7.731 6.495-32.226 6.495-32.226s4.123 3.3 8.724 7.735c18.69 18.015 41.42 35.403 64.732 49.523 12.807 7.758 37.109 19.907 49.818 24.906 27.236 10.714 56.9 18.055 85.896 21.258 13.253 1.464 52.306 1.246 65.357-.364 29.517-3.642 48.885-8.736 86.072-22.64 52.42-19.599 92.476-17.84 139.643 6.13 12.399 6.3 24.325 13.476 46.785 28.149 29.774 19.45 33.154 21.859 33.154 21.859l-20.976 59.21s-11.517-7.19-24.678-15.394z"/>
  <path fill="#f5abb9" stroke="#f5abb9" stroke-width="1.8" d="M706.386 544.962c-38.09-25.143-56.182-35.459-75.158-42.854-17.544-6.837-32.21-9.9-50.235-10.493-25.233-.83-46.119 3.424-79.643 16.217-36.722 14.015-66.608 20.122-103.571 21.167-78.303 2.213-155.856-26.322-221.395-81.46-3.32-2.794-10.5-9.227-15.952-14.295-6.337-5.89-10.36-9.148-10.36-9.148s2.06-7.031 4.077-13.463c5.061-16.151 13.526-37.192 13.526-37.192s5.33 5.196 10.952 10.564c28.799 27.494 51.7 43.842 83.03 59.27 66.485 32.741 142.294 41.46 212.55 24.447 12.492-3.025 34.04-10.328 47.143-15.978 31.544-13.602 52.581-19.086 77.143-20.109 27.016-1.125 53.353 5.965 81.649 21.98 14.17 8.02 70.886 48.978 70.886 48.978l-20.58 58.304s-10.97-7.294-24.062-15.935z"/>
  <path fill="#f5abb9" stroke="#f5abb9" stroke-width="1.8" d="M755.279 425.59c-32.034-24.535-47.52-34.824-65-43.187-20.995-10.045-37.654-13.962-59.643-14.022-27.048-.074-51.984 6.397-87.793 22.782-16.498 7.55-24.107 10.59-36.85 14.72-18.07 5.857-37.177 9.952-57.857 12.4-13.149 1.558-50.413 1.783-63.214.383-40.25-4.403-74.053-13.711-106.987-29.46-18.428-8.814-36.117-19.805-51.228-31.833-7.791-6.202-28.548-26.022-32.629-31.157l-2.36-2.388 5.381-9.04c2.857-4.8 8.698-14.168 13.041-20.782l7.865-11.898 4.66 5.112c16.108 17.67 32.9 31.437 54.253 42.972 72.91 39.385 167.59 47.836 245.214 21.888 13.385-4.475 21.906-8.059 40.647-17.096 17.712-8.54 32.659-14.795 43.38-18.152 41.545-13.009 75.268-11.364 108.405 5.286 18.005 9.047 30.49 17.849 61.598 43.426l18.205 14.565-9.459 28.292c-5.11 15.288-12.184 32.626-12.184 32.626s1.015-1.297-17.445-15.436z"/>
  <path fill="#5bcffa" stroke="#5bcffa" stroke-width="1.8" d="M786.707 371.949c-38.53-31.99-53.583-42.748-72.857-52.072-43.893-21.234-90.073-17.26-150.357 12.94-40.166 20.12-76.688 29.776-121.695 32.172-63.964 3.404-133.554-14.687-182.234-47.377-12.893-8.658-21.093-15.818-33.17-28.965l-7.363-8.013 6.084-8.016c6.409-8.445 18.15-22.317 21.82-25.78l2.17-2.049 6.659 6.719c20.925 21.117 57.416 39.363 100.943 50.475 28.037 7.157 52.52 10.165 82.758 10.168 36.21.004 65.72-4.652 97.957-15.455 14.233-4.77 26.468-10.15 48.931-21.516 20.899-10.575 36.309-17.06 50.549-21.275 47.78-14.141 84.63-8.436 123.694 19.15 9.342 6.597 19.99 15.41 38.644 31.978 16.394 14.562 16.467 14.644 16.467 14.644s-5.178 16.264-10.385 30.997c-5.207 14.732-10.386 27.778-10.386 27.778s-3.514-2.59-8.229-6.503z"/>
  <path fill="#fff" stroke="#fff" stroke-width="1.8" d="M733.484 487.043c-34.998-24.83-48.128-33.145-65.885-41.724-12.627-6.102-24.607-10.268-37.07-12.89-11.994-2.526-32.47-3.176-45.607-1.45-18.961 2.491-38.31 8.15-61.072 17.862-16.242 6.93-27.636 11.07-40.368 14.668-29.49 8.335-61.694 11.978-94.275 10.666-66.562-2.68-131.54-26.838-183.185-68.106-7.704-6.156-28.155-24.714-34.876-31.647l-2.704-2.79 2.444-5.657c4.268-9.883 8.957-19.638 14.539-30.245l5.42-10.3 10.789 11.04c16.088 16.464 25.257 24.154 42.28 35.456 37.918 25.176 84.476 41.637 135.293 47.835 8.173.997 15.78 1.26 36.072 1.247 22.672-.014 27.124-.208 37.633-1.634 33.13-4.497 58.181-11.79 89.07-25.933 25.218-11.546 42.13-17.359 61.453-21.121 8.69-1.692 11.412-1.894 26.13-1.939 18.056-.054 22.9.548 37.028 4.607 18.048 5.184 35.591 14.219 57.645 29.687 11.349 7.96 48.486 36.352 48.486 36.352l-21.113 59.69s-8.114-6.57-18.127-13.674z"/>
  <text x="470" y="985" font-size="80">
    🦈
  </text>
</svg>