<?xml version="1.0" encoding="UTF-8" standalone="no"?>
<svg
   xmlns:dc="http://purl.org/dc/elements/1.1/"
   xmlns:cc="http://creativecommons.org/ns#"
   xmlns:rdf="http://www.w3.org/1999/02/22-rdf-syntax-ns#"
   xmlns:svg="http://www.w3.org/2000/svg"
   xmlns="http://www.w3.org/2000/svg"
   xmlns:sodipodi="http://sodipodi.sourceforge.net/DTD/sodipodi-0.dtd"
   xmlns:inkscape="http://www.inkscape.org/namespaces/inkscape"
   width="67.473915mm"
   height="40.161549mm"
   viewBox="0 0 67.473915 40.161549"
   version="1.1"
   id="svg445"
   inkscape:version="1.0.1 (3bc2e813f5, 2020-09-07)"
   sodipodi:docname="isg.svg">
  <defs
     id="defs439" />
  <sodipodi:namedview
     id="base"
     pagecolor="#303030"
     bordercolor="#666666"
     borderopacity="1.0"
     inkscape:pageopacity="0"
     inkscape:pageshadow="2"
     inkscape:zoom="2.8"
     inkscape:cx="89.272434"
     inkscape:cy="73.18368"
     inkscape:document-units="mm"
     inkscape:current-layer="layer1"
     inkscape:document-rotation="0"
     showgrid="false"
     inkscape:pagecheckerboard="true"
     inkscape:window-width="2560"
     inkscape:window-height="1387"
     inkscape:window-x="1912"
     inkscape:window-y="-8"
     inkscape:window-maximized="1"
     fit-margin-top="0"
     fit-margin-left="0"
     fit-margin-right="0"
     fit-margin-bottom="0" />
  <metadata
     id="metadata442">
    <rdf:RDF>
      <cc:Work
         rdf:about="">
        <dc:format>image/svg+xml</dc:format>
        <dc:type
           rdf:resource="http://purl.org/dc/dcmitype/StillImage" />
        <dc:title></dc:title>
      </cc:Work>
    </rdf:RDF>
  </metadata>
  <g
     inkscape:label="Layer 1"
     inkscape:groupmode="layer"
     id="layer1"
     transform="translate(-77.010067,-180.43559)">
    <g
       style="fill:#ffffff;fill-opacity:1"
       id="g307"
       transform="matrix(0.3527778,0,0,0.3527778,66.281715,169.0189)">
      <g
         id="use283"
         transform="translate(29.489201,62.940399)">
        <path
           style="stroke:none"
           d="M 2.390625,0 H 8.4375 V -29.984375 H 2.390625 Z m 0,0"
           id="path1376" />
      </g>
      <g
         id="use285"
         transform="translate(40.325199,62.940399)">
        <path
           style="stroke:none"
           d="M 1.9375,-22.59375 V 0 h 5.796875 v -15 c 0,-2.488281 1.019531,-3.734375 3.0625,-3.734375 0.863281,0 1.488281,0.234375 1.875,0.703125 0.394531,0.460937 0.59375,1.277344 0.59375,2.453125 V 0 H 19.0625 v -16.765625 c 0,-2.257813 -0.496094,-3.894531 -1.484375,-4.90625 -0.992187,-1.007813 -2.414062,-1.515625 -4.265625,-1.515625 -1.261719,0 -2.382812,0.261719 -3.359375,0.78125 -0.980469,0.523437 -1.777344,1.339844 -2.390625,2.453125 H 7.46875 v -2.640625 z m 0,0"
           id="path1380" />
      </g>
      <g
         id="use287"
         transform="translate(61.325199,62.940399)">
        <path
           style="stroke:none"
           d="M 3.1875,-18.640625 V 0 H 8.984375 V -18.640625 H 12.34375 V -22.59375 H 8.984375 v -1.96875 c 0,-0.644531 0.164063,-1.109375 0.5,-1.390625 0.34375,-0.28125 0.921875,-0.421875 1.734375,-0.421875 h 0.546875 c 0.25,0 0.441406,0.01563 0.578125,0.04687 v -4.125 c -1.03125,-0.08203 -2.070312,-0.125 -3.109375,-0.125 -0.917969,0 -1.757812,0.09375 -2.515625,0.28125 -0.75,0.179687 -1.386719,0.480469 -1.90625,0.90625 -0.523437,0.417969 -0.921875,0.976562 -1.203125,1.671875 -0.28125,0.699219 -0.421875,1.554687 -0.421875,2.5625 v 2.5625 H 0.25 v 3.953125 z m 0,0"
           id="path1384" />
      </g>
      <g
         id="use289"
         transform="translate(73.757202,62.940399)">
        <path
           style="stroke:none"
           d="m 6.96875,-11.296875 c 0,-1.144531 0.023438,-2.207031 0.078125,-3.1875 0.0625,-0.976563 0.195313,-1.816406 0.40625,-2.515625 0.207031,-0.707031 0.519531,-1.253906 0.9375,-1.640625 0.425781,-0.394531 0.988281,-0.59375 1.6875,-0.59375 1.175781,0 1.988281,0.617187 2.4375,1.84375 0.445313,1.230469 0.671875,3.261719 0.671875,6.09375 0,2.824219 -0.226562,4.855469 -0.671875,6.09375 -0.449219,1.230469 -1.261719,1.84375 -2.4375,1.84375 -0.699219,0 -1.261719,-0.191406 -1.6875,-0.578125 -0.417969,-0.394531 -0.730469,-0.941406 -0.9375,-1.640625 -0.210937,-0.707031 -0.34375,-1.550781 -0.40625,-2.53125 -0.054687,-0.976563 -0.078125,-2.039063 -0.078125,-3.1875 z m -5.796875,0 c 0,1.960937 0.140625,3.6875 0.421875,5.1875 0.28125,1.5 0.753906,2.75 1.421875,3.75 0.675781,0.992187 1.585938,1.714844 2.734375,2.171875 1.144531,0.457031 2.585938,0.675781 4.328125,0.65625 1.65625,0 3.046875,-0.242187 4.171875,-0.71875 1.132813,-0.476563 2.050781,-1.210938 2.75,-2.203125 0.707031,-1 1.210938,-2.238281 1.515625,-3.71875 0.3125,-1.488281 0.46875,-3.195313 0.46875,-5.125 0,-1.988281 -0.140625,-3.722656 -0.421875,-5.203125 -0.28125,-1.488281 -0.761719,-2.734375 -1.4375,-3.734375 -0.667969,-1.007813 -1.574219,-1.757813 -2.71875,-2.25 -1.148437,-0.488281 -2.589844,-0.722656 -4.328125,-0.703125 -1.648437,0 -3.039062,0.261719 -4.171875,0.78125 -1.136719,0.523437 -2.058594,1.28125 -2.765625,2.28125 -0.699219,0.992187 -1.203125,2.226562 -1.515625,3.703125 -0.304687,1.480469 -0.453125,3.1875 -0.453125,5.125 z m 0,0"
           id="path1388" />
      </g>
      <g
         id="use291"
         transform="translate(93.917198,62.940399)">
        <path
           style="stroke:none"
           d="M 1.9375,-22.59375 V 0 h 5.796875 v -13.5625 c 0,-0.757813 0.125,-1.394531 0.375,-1.90625 0.25,-0.519531 0.582031,-0.941406 1,-1.265625 C 9.535156,-17.054688 10,-17.285156 10.5,-17.421875 c 0.5,-0.144531 1.003906,-0.21875 1.515625,-0.21875 0.300781,0 0.597656,0.01172 0.890625,0.03125 0.300781,0.01172 0.601563,0.02734 0.90625,0.04687 v -5.53125 c -0.167969,-0.03125 -0.34375,-0.05078 -0.53125,-0.0625 -0.179687,-0.01953 -0.351562,-0.03125 -0.515625,-0.03125 -1.199219,0 -2.21875,0.335937 -3.0625,1 -0.84375,0.65625 -1.558594,1.527344 -2.140625,2.609375 H 7.46875 v -3.015625 z m 0,0"
           id="path1392" />
      </g>
      <g
         id="use293"
         transform="translate(107.9032,62.940399)">
        <path
           style="stroke:none"
           d="M 1.9375,-22.59375 V 0 h 5.796875 v -14.875 c 0,-1.34375 0.269531,-2.320313 0.8125,-2.9375 0.539063,-0.613281 1.273438,-0.921875 2.203125,-0.921875 0.8125,0 1.390625,0.257812 1.734375,0.765625 0.351563,0.5 0.53125,1.226562 0.53125,2.171875 V 0 H 18.8125 v -14.875 c 0,-1.34375 0.269531,-2.320313 0.8125,-2.9375 0.550781,-0.613281 1.289063,-0.921875 2.21875,-0.921875 0.8125,0 1.390625,0.257812 1.734375,0.765625 0.351563,0.5 0.53125,1.226562 0.53125,2.171875 V 0 h 5.796875 v -16.421875 c 0,-2.1875 -0.460937,-3.859375 -1.375,-5.015625 -0.90625,-1.164063 -2.324219,-1.75 -4.25,-1.75 -1.375,0 -2.5625,0.304687 -3.5625,0.90625 -0.992187,0.605469 -1.710937,1.507812 -2.15625,2.703125 h -0.07813 c -0.3125,-1.175781 -0.929687,-2.070313 -1.84375,-2.6875 -0.90625,-0.613281 -2.03125,-0.921875 -3.375,-0.921875 -1.261719,0 -2.34375,0.226562 -3.25,0.671875 -0.90625,0.449219 -1.726562,1.195312 -2.453125,2.234375 H 7.46875 v -2.3125 z m 0,0"
           id="path1396" />
      </g>
      <g
         id="use295"
         transform="translate(139.7392,62.940399)">
        <path
           style="stroke:none"
           d="m 12.46875,-11.296875 v 4.453125 c 0,0.617187 -0.117187,1.148437 -0.34375,1.59375 -0.21875,0.449219 -0.507812,0.8125 -0.859375,1.09375 -0.34375,0.28125 -0.730469,0.484375 -1.15625,0.609375 -0.417969,0.125 -0.820312,0.1875 -1.203125,0.1875 -0.78125,0 -1.34375,-0.304688 -1.6875,-0.921875 -0.335937,-0.613281 -0.5,-1.359375 -0.5,-2.234375 0,-1 0.25,-1.789063 0.75,-2.375 C 7.976563,-9.484375 8.820313,-9.90625 10,-10.15625 c 0.363281,-0.09375 0.769531,-0.226563 1.21875,-0.40625 0.445313,-0.1875 0.863281,-0.429688 1.25,-0.734375 z m -10.578125,-4.375 H 7.09375 v -0.625 c 0,-0.894531 0.222656,-1.609375 0.671875,-2.140625 0.445313,-0.53125 1.117188,-0.796875 2.015625,-0.796875 0.976563,0 1.671875,0.246094 2.078125,0.734375 0.40625,0.492187 0.609375,1.167969 0.609375,2.03125 0,0.761719 -0.167969,1.339844 -0.5,1.734375 -0.335937,0.386719 -0.9375,0.695312 -1.8125,0.921875 l -3.265625,0.875 c -1.011719,0.28125 -1.875,0.605469 -2.59375,0.96875 C 3.585938,-11.601563 3,-11.144531 2.53125,-10.59375 2.070313,-10.050781 1.726563,-9.394531 1.5,-8.625 c -0.21875,0.773437 -0.328125,1.6875 -0.328125,2.75 0,0.75 0.097656,1.511719 0.296875,2.28125 0.195313,0.773437 0.503906,1.464844 0.921875,2.078125 0.425781,0.617187 0.988281,1.101562 1.6875,1.453125 0.695313,0.351563 1.550781,0.53125 2.5625,0.53125 1.394531,0 2.53125,-0.179687 3.40625,-0.53125 0.882813,-0.351563 1.664063,-1.117188 2.34375,-2.296875 h 0.07813 C 12.550785,-1.960938 12.64063,-1.5625 12.73438,-1.15625 12.835938,-0.75 12.988281,-0.363281 13.1875,0 h 5.546875 C 18.453125,-0.675781 18.257813,-1.304688 18.15625,-1.890625 18.0625,-2.472656 18.015625,-3.300781 18.015625,-4.375 V -16.25 c 0,-1.007813 -0.105469,-1.941406 -0.3125,-2.796875 C 17.492188,-19.898438 17.09375,-20.632813 16.5,-21.25 c -0.585937,-0.613281 -1.40625,-1.085938 -2.46875,-1.421875 -1.0625,-0.34375 -2.464844,-0.515625 -4.203125,-0.515625 -1.09375,0 -2.125,0.121094 -3.09375,0.359375 -0.960937,0.242187 -1.796875,0.636719 -2.515625,1.1875 -0.710937,0.542969 -1.277344,1.257812 -1.703125,2.140625 -0.417969,0.875 -0.625,1.96875 -0.625,3.28125 z m 0,0"
           id="path1400" />
      </g>
      <g
         id="use297"
         transform="translate(159.94119,62.940399)">
        <path
           style="stroke:none"
           d="m 3.1875,-29.0625 v 6.46875 H 0.25 v 3.953125 H 3.1875 V -5.71875 c 0,1.15625 0.066406,2.117187 0.203125,2.875 0.144531,0.75 0.40625,1.355469 0.78125,1.8125 0.382813,0.460937 0.929688,0.765625 1.640625,0.921875 C 6.53125,0.046875 7.445313,0.125 8.5625,0.125 9.238281,0.125 9.875,0.101563 10.46875,0.0625 11.070313,0.0195313 11.695313,0 12.34375,0 v -4.03125 c -0.199219,0.03125 -0.414062,0.054687 -0.640625,0.0625 -0.21875,0.011719 -0.4375,0.015625 -0.65625,0.015625 -0.84375,0 -1.402344,-0.1875 -1.671875,-0.5625 -0.261719,-0.375 -0.390625,-1.007813 -0.390625,-1.90625 v -12.21875 H 12.34375 V -22.59375 H 8.984375 v -6.46875 z m 0,0"
           id="path1404" />
      </g>
      <g
         id="use299"
         transform="translate(172.3732,62.940399)">
        <path
           style="stroke:none"
           d="M 2.140625,-30.328125 V -25.375 H 7.9375 v -4.953125 z m 0,7.734375 V 0 H 7.9375 v -22.59375 z m 0,0"
           id="path1408" />
      </g>
      <g
         id="use301"
         transform="translate(182.4532,62.940399)">
        <path
           style="stroke:none"
           d="m 6.96875,-11.296875 c 0,-1.144531 0.023438,-2.207031 0.078125,-3.1875 0.0625,-0.976563 0.195313,-1.816406 0.40625,-2.515625 0.207031,-0.707031 0.519531,-1.253906 0.9375,-1.640625 0.425781,-0.394531 0.988281,-0.59375 1.6875,-0.59375 1.175781,0 1.988281,0.617187 2.4375,1.84375 0.445313,1.230469 0.671875,3.261719 0.671875,6.09375 0,2.824219 -0.226562,4.855469 -0.671875,6.09375 -0.449219,1.230469 -1.261719,1.84375 -2.4375,1.84375 -0.699219,0 -1.261719,-0.191406 -1.6875,-0.578125 -0.417969,-0.394531 -0.730469,-0.941406 -0.9375,-1.640625 -0.210937,-0.707031 -0.34375,-1.550781 -0.40625,-2.53125 -0.054687,-0.976563 -0.078125,-2.039063 -0.078125,-3.1875 z m -5.796875,0 c 0,1.960937 0.140625,3.6875 0.421875,5.1875 0.28125,1.5 0.753906,2.75 1.421875,3.75 0.675781,0.992187 1.585938,1.714844 2.734375,2.171875 1.144531,0.457031 2.585938,0.675781 4.328125,0.65625 1.65625,0 3.046875,-0.242187 4.171875,-0.71875 1.132813,-0.476563 2.050781,-1.210938 2.75,-2.203125 0.707031,-1 1.210938,-2.238281 1.515625,-3.71875 0.3125,-1.488281 0.46875,-3.195313 0.46875,-5.125 0,-1.988281 -0.140625,-3.722656 -0.421875,-5.203125 -0.28125,-1.488281 -0.761719,-2.734375 -1.4375,-3.734375 -0.667969,-1.007813 -1.574219,-1.757813 -2.71875,-2.25 -1.148437,-0.488281 -2.589844,-0.722656 -4.328125,-0.703125 -1.648437,0 -3.039062,0.261719 -4.171875,0.78125 -1.136719,0.523437 -2.058594,1.28125 -2.765625,2.28125 -0.699219,0.992187 -1.203125,2.226562 -1.515625,3.703125 -0.304687,1.480469 -0.453125,3.1875 -0.453125,5.125 z m 0,0"
           id="path1412" />
      </g>
      <g
         id="use303"
         transform="translate(202.6132,62.940399)">
        <path
           style="stroke:none"
           d="M 1.9375,-22.59375 V 0 h 5.796875 v -15 c 0,-2.488281 1.019531,-3.734375 3.0625,-3.734375 0.863281,0 1.488281,0.234375 1.875,0.703125 0.394531,0.460937 0.59375,1.277344 0.59375,2.453125 V 0 H 19.0625 v -16.765625 c 0,-2.257813 -0.496094,-3.894531 -1.484375,-4.90625 -0.992187,-1.007813 -2.414062,-1.515625 -4.265625,-1.515625 -1.261719,0 -2.382812,0.261719 -3.359375,0.78125 -0.980469,0.523437 -1.777344,1.339844 -2.390625,2.453125 H 7.46875 v -2.640625 z m 0,0"
           id="path1416" />
      </g>
      <g
         id="use305"
         transform="translate(223.6132,62.940399)">
        <path
           style="stroke:none"
           d=""
           id="path1420" />
      </g>
    </g>
    <g
       style="fill:#ffffff;fill-opacity:1"
       id="g323"
       transform="matrix(0.3527778,0,0,0.3527778,66.281715,169.0189)">
      <g
         id="use309"
         transform="translate(29.489201,100.9404)">
        <path
           style="stroke:none"
           d="M 6.96875,-9.359375 H 0.921875 v 1.21875 c 0,2.773437 0.734375,4.902344 2.203125,6.390625 1.46875,1.480469 3.910156,2.21875 7.328125,2.21875 3.28125,0 5.835938,-0.71875 7.671875,-2.15625 1.832031,-1.445313 2.75,-3.753906 2.75,-6.921875 0,-0.925781 -0.08594,-1.765625 -0.25,-2.515625 -0.167969,-0.757813 -0.46875,-1.453125 -0.90625,-2.078125 -0.4375,-0.632813 -1.023437,-1.222656 -1.75,-1.765625 -0.71875,-0.550781 -1.65625,-1.078125 -2.8125,-1.578125 L 10.5,-18.5625 c -1.292969,-0.53125 -2.136719,-1.109375 -2.53125,-1.734375 -0.386719,-0.632813 -0.578125,-1.414063 -0.578125,-2.34375 0,-0.445313 0.046875,-0.878906 0.140625,-1.296875 0.101563,-0.414063 0.285156,-0.785156 0.546875,-1.109375 0.269531,-0.320313 0.628906,-0.582031 1.078125,-0.78125 0.445313,-0.195313 1.007813,-0.296875 1.6875,-0.296875 1.164063,0 2,0.386719 2.5,1.15625 0.507813,0.773437 0.765625,1.871094 0.765625,3.296875 h 5.796875 v -0.84375 c 0,-1.425781 -0.234375,-2.648438 -0.703125,-3.671875 -0.460937,-1.019531 -1.101562,-1.859375 -1.921875,-2.515625 -0.824219,-0.65625 -1.804687,-1.128906 -2.9375,-1.421875 -1.136719,-0.300781 -2.375,-0.453125 -3.71875,-0.453125 -2.886719,0 -5.15625,0.730469 -6.8125,2.1875 -1.648437,1.460937 -2.46875,3.671875 -2.46875,6.640625 0,1.230469 0.148438,2.3125 0.453125,3.25 0.3125,0.9375 0.796875,1.765625 1.453125,2.484375 0.65625,0.710937 1.472656,1.328125 2.453125,1.859375 0.988281,0.53125 2.15625,1.023437 3.5,1.46875 1,0.335937 1.84375,0.664062 2.53125,0.984375 0.6875,0.324219 1.238281,0.683594 1.65625,1.078125 0.425781,0.398437 0.726563,0.839844 0.90625,1.328125 0.1875,0.492187 0.28125,1.070312 0.28125,1.734375 0,1.261719 -0.375,2.195312 -1.125,2.796875 -0.742187,0.605469 -1.570312,0.90625 -2.484375,0.90625 C 10.175781,-3.859375 9.519531,-3.96875 9,-4.1875 8.488281,-4.414063 8.078125,-4.726563 7.765625,-5.125 7.460938,-5.519531 7.253906,-6.003906 7.140625,-6.578125 7.023438,-7.148438 6.96875,-7.785156 6.96875,-8.484375 Z m 0,0"
           id="path1424" />
      </g>
      <g
         id="use311"
         transform="translate(51.287201,100.9404)">
        <path
           style="stroke:none"
           d="M 12.8125,-13.859375 H 6.890625 v -0.875 c 0,-0.539063 0.046875,-1.078125 0.140625,-1.609375 0.101563,-0.53125 0.265625,-1.007813 0.484375,-1.4375 0.226563,-0.4375 0.53125,-0.785156 0.90625,-1.046875 0.375,-0.269531 0.859375,-0.40625 1.453125,-0.40625 0.582031,0 1.0625,0.121094 1.4375,0.359375 0.382813,0.242187 0.679688,0.589844 0.890625,1.046875 0.207031,0.460937 0.351563,1.023437 0.4375,1.6875 0.08203,0.65625 0.140625,1.417969 0.171875,2.28125 z m -5.921875,3.4375 h 11.46875 v -1.296875 c 0,-1.738281 -0.117187,-3.3125 -0.34375,-4.71875 -0.21875,-1.414063 -0.640625,-2.617188 -1.265625,-3.609375 -0.617187,-1 -1.464844,-1.769531 -2.546875,-2.3125 -1.074219,-0.550781 -2.449219,-0.828125 -4.125,-0.828125 -1.960937,0 -3.527344,0.324219 -4.703125,0.96875 -1.179687,0.648437 -2.085937,1.515625 -2.71875,2.609375 -0.625,1.09375 -1.042969,2.339844 -1.25,3.734375 -0.210937,1.398437 -0.3125,2.851562 -0.3125,4.359375 0,1.4375 0.0625,2.871094 0.1875,4.296875 0.125,1.429687 0.46875,2.714844 1.03125,3.859375 0.5625,1.148437 1.425781,2.074219 2.59375,2.78125 1.175781,0.695313 2.816406,1.046875 4.921875,1.046875 2.769531,0 4.796875,-0.6875 6.078125,-2.0625 1.289063,-1.375 1.992188,-3.378906 2.109375,-6.015625 H 12.8125 c -0.167969,1.4375 -0.476562,2.507812 -0.921875,3.203125 -0.449219,0.699219 -1.164062,1.046875 -2.140625,1.046875 -0.53125,0 -0.980469,-0.144531 -1.34375,-0.4375 C 8.039063,-4.085938 7.742188,-4.476563 7.515625,-4.96875 7.296875,-5.46875 7.132813,-6.03125 7.03125,-6.65625 6.9375,-7.289063 6.890625,-7.941406 6.890625,-8.609375 Z m 0,0"
           id="path1428" />
      </g>
      <g
         id="use313"
         transform="translate(70.7332,100.9404)">
        <path
           style="stroke:none"
           d="m 12.8125,-14.453125 h 5.546875 c 0,-2.6875 -0.683594,-4.8125 -2.046875,-6.375 -1.355469,-1.570313 -3.375,-2.359375 -6.0625,-2.359375 -1.34375,0 -2.578125,0.183594 -3.703125,0.546875 -1.117187,0.367187 -2.078125,1.007812 -2.890625,1.921875 -0.8125,0.90625 -1.445312,2.125 -1.890625,3.65625 -0.449219,1.523437 -0.671875,3.445312 -0.671875,5.765625 0,2.273437 0.179688,4.171875 0.546875,5.703125 0.363281,1.523437 0.898438,2.734375 1.609375,3.640625 0.71875,0.90625 1.613281,1.539062 2.6875,1.890625 1.082031,0.351563 2.351563,0.53125 3.8125,0.53125 3.070313,0 5.273438,-0.773438 6.609375,-2.328125 1.332031,-1.5625 2,-3.828125 2,-6.796875 H 12.8125 c 0,1.855469 -0.226562,3.203125 -0.671875,4.046875 -0.449219,0.835937 -1.164062,1.25 -2.140625,1.25 -0.648437,0 -1.171875,-0.144531 -1.578125,-0.4375 C 8.015625,-4.085938 7.695313,-4.554688 7.46875,-5.203125 7.25,-5.847656 7.097656,-6.664063 7.015625,-7.65625 c -0.085937,-1 -0.125,-2.195313 -0.125,-3.59375 0,-1.320313 0.039063,-2.460938 0.125,-3.421875 C 7.097656,-15.640625 7.25,-16.4375 7.46875,-17.0625 c 0.226563,-0.632813 0.566406,-1.113281 1.015625,-1.4375 0.445313,-0.320313 1.019531,-0.484375 1.71875,-0.484375 0.5625,0 1.007813,0.136719 1.34375,0.40625 0.332031,0.261719 0.585938,0.609375 0.765625,1.046875 0.1875,0.429687 0.316406,0.914062 0.390625,1.453125 0.07031,0.53125 0.109375,1.074219 0.109375,1.625 z m 0,0"
           id="path1432" />
      </g>
      <g
         id="use315"
         transform="translate(90.179199,100.9404)">
        <path
           style="stroke:none"
           d="M 13.53125,-2.640625 V 0 h 5.53125 v -22.59375 h -5.796875 v 14.984375 c 0,2.5 -1.023437,3.75 -3.0625,3.75 -0.867187,0 -1.496094,-0.226563 -1.890625,-0.6875 -0.386719,-0.46875 -0.578125,-1.289063 -0.578125,-2.46875 V -22.59375 H 1.9375 v 16.75 c 0,2.273437 0.492188,3.890625 1.484375,4.859375 0.988281,0.96875 2.410156,1.453125 4.265625,1.453125 1.257813,0 2.378906,-0.242187 3.359375,-0.71875 0.976563,-0.476563 1.773438,-1.273438 2.390625,-2.390625 z m 0,0"
           id="path1436" />
      </g>
      <g
         id="use317"
         transform="translate(111.1792,100.9404)">
        <path
           style="stroke:none"
           d="M 1.9375,-22.59375 V 0 h 5.796875 v -13.5625 c 0,-0.757813 0.125,-1.394531 0.375,-1.90625 0.25,-0.519531 0.582031,-0.941406 1,-1.265625 C 9.535156,-17.054688 10,-17.285156 10.5,-17.421875 c 0.5,-0.144531 1.003906,-0.21875 1.515625,-0.21875 0.300781,0 0.597656,0.01172 0.890625,0.03125 0.300781,0.01172 0.601563,0.02734 0.90625,0.04687 v -5.53125 c -0.167969,-0.03125 -0.34375,-0.05078 -0.53125,-0.0625 -0.179687,-0.01953 -0.351562,-0.03125 -0.515625,-0.03125 -1.199219,0 -2.21875,0.335937 -3.0625,1 -0.84375,0.65625 -1.558594,1.527344 -2.140625,2.609375 H 7.46875 v -3.015625 z m 0,0"
           id="path1440" />
      </g>
      <g
         id="use319"
         transform="translate(125.1652,100.9404)">
        <path
           style="stroke:none"
           d="M 2.140625,-30.328125 V -25.375 H 7.9375 v -4.953125 z m 0,7.734375 V 0 H 7.9375 v -22.59375 z m 0,0"
           id="path1444" />
      </g>
      <g
         id="use321"
         transform="translate(135.24519,100.9404)">
        <path
           style="stroke:none"
           d="m 3.1875,-29.0625 v 6.46875 H 0.25 v 3.953125 H 3.1875 V -5.71875 c 0,1.15625 0.066406,2.117187 0.203125,2.875 0.144531,0.75 0.40625,1.355469 0.78125,1.8125 0.382813,0.460937 0.929688,0.765625 1.640625,0.921875 C 6.53125,0.046875 7.445313,0.125 8.5625,0.125 9.238281,0.125 9.875,0.101563 10.46875,0.0625 11.070313,0.0195313 11.695313,0 12.34375,0 v -4.03125 c -0.199219,0.03125 -0.414062,0.054687 -0.640625,0.0625 -0.21875,0.011719 -0.4375,0.015625 -0.65625,0.015625 -0.84375,0 -1.402344,-0.1875 -1.671875,-0.5625 -0.261719,-0.375 -0.390625,-1.007813 -0.390625,-1.90625 v -12.21875 H 12.34375 V -22.59375 H 8.984375 v -6.46875 z m 0,0"
           id="path1448" />
      </g>
    </g>
    <g
       style="fill:#ffffff;fill-opacity:1"
       id="g327"
       transform="matrix(0.3527778,0,0,0.3527778,66.281715,169.0189)">
      <g
         id="use325"
         transform="translate(148.7272,100.9404)">
        <path
           style="stroke:none"
           d="m 1.9375,2.9375 v 4.328125 h 2.34375 c 1.34375,0 2.457031,-0.101562 3.34375,-0.296875 0.882813,-0.199219 1.640625,-0.617187 2.265625,-1.25 0.632813,-0.625 1.179688,-1.523437 1.640625,-2.6875 0.457031,-1.15625 0.941406,-2.671875 1.453125,-4.546875 L 18.4375,-22.59375 h -5.796875 l -2.9375,15.625 H 9.625 l -3.359375,-15.625 h -6.0625 L 6.546875,0 C 6.460938,0.925781 6.191406,1.664063 5.734375,2.21875 5.273438,2.78125 4.507813,3.0625 3.4375,3.0625 c -0.5,0 -1,-0.042969 -1.5,-0.125 z m 0,0"
           id="path1452" />
      </g>
    </g>
    <g
       style="fill:#ffffff;fill-opacity:1"
       id="g339"
       transform="matrix(0.3527778,0,0,0.3527778,66.281715,169.0189)">
      <g
         id="use329"
         transform="translate(29.489201,138.9404)">
        <path
           style="stroke:none"
           d="m 15.40625,-21.078125 h 5.796875 c 0,-3.050781 -0.730469,-5.394531 -2.1875,-7.03125 -1.449219,-1.644531 -3.824219,-2.46875 -7.125,-2.46875 -1.9375,0 -3.554687,0.324219 -4.84375,0.96875 -1.28125,0.648437 -2.320312,1.605469 -3.109375,2.875 -0.78125,1.273437 -1.335937,2.859375 -1.65625,4.765625 -0.3125,1.90625 -0.46875,4.121094 -0.46875,6.640625 0,2.605469 0.109375,4.898437 0.328125,6.875 0.226563,1.96875 0.671875,3.625 1.328125,4.96875 0.65625,1.34375 1.5625,2.339844 2.71875,2.984375 1.164063,0.644531 2.671875,0.96875 4.515625,0.96875 1.4375,0 2.664063,-0.246094 3.6875,-0.734375 1.019531,-0.5 1.894531,-1.332031 2.625,-2.5 h 0.07813 V 0 h 4.453125 v -16.171875 h -9.78125 v 4.453125 H 15.75 v 3.0625 c 0,0.8125 -0.125,1.523437 -0.375,2.125 -0.25,0.605469 -0.570312,1.105469 -0.953125,1.5 -0.375,0.386719 -0.78125,0.679687 -1.21875,0.875 -0.429687,0.199219 -0.824219,0.296875 -1.1875,0.296875 -0.875,0 -1.585937,-0.269531 -2.125,-0.8125 C 9.347656,-5.222656 8.925781,-6.007813 8.625,-7.03125 8.332031,-8.050781 8.128906,-9.289063 8.015625,-10.75 c -0.105469,-1.457031 -0.15625,-3.082031 -0.15625,-4.875 0,-3.75 0.316406,-6.4375 0.953125,-8.0625 0.644531,-1.625 1.695313,-2.4375 3.15625,-2.4375 0.613281,0 1.140625,0.164062 1.578125,0.484375 0.4375,0.324219 0.789063,0.730469 1.0625,1.21875 0.28125,0.492187 0.484375,1.03125 0.609375,1.625 0.125,0.585937 0.1875,1.15625 0.1875,1.71875 z m 0,0"
           id="path1456" />
      </g>
      <g
         id="use331"
         transform="translate(52.841202,138.9404)">
        <path
           style="stroke:none"
           d="M 1.9375,-22.59375 V 0 h 5.796875 v -13.5625 c 0,-0.757813 0.125,-1.394531 0.375,-1.90625 0.25,-0.519531 0.582031,-0.941406 1,-1.265625 C 9.535156,-17.054688 10,-17.285156 10.5,-17.421875 c 0.5,-0.144531 1.003906,-0.21875 1.515625,-0.21875 0.300781,0 0.597656,0.01172 0.890625,0.03125 0.300781,0.01172 0.601563,0.02734 0.90625,0.04687 v -5.53125 c -0.167969,-0.03125 -0.34375,-0.05078 -0.53125,-0.0625 -0.179687,-0.01953 -0.351562,-0.03125 -0.515625,-0.03125 -1.199219,0 -2.21875,0.335937 -3.0625,1 -0.84375,0.65625 -1.558594,1.527344 -2.140625,2.609375 H 7.46875 v -3.015625 z m 0,0"
           id="path1460" />
      </g>
      <g
         id="use333"
         transform="translate(66.827202,138.9404)">
        <path
           style="stroke:none"
           d="m 6.96875,-11.296875 c 0,-1.144531 0.023438,-2.207031 0.078125,-3.1875 0.0625,-0.976563 0.195313,-1.816406 0.40625,-2.515625 0.207031,-0.707031 0.519531,-1.253906 0.9375,-1.640625 0.425781,-0.394531 0.988281,-0.59375 1.6875,-0.59375 1.175781,0 1.988281,0.617187 2.4375,1.84375 0.445313,1.230469 0.671875,3.261719 0.671875,6.09375 0,2.824219 -0.226562,4.855469 -0.671875,6.09375 -0.449219,1.230469 -1.261719,1.84375 -2.4375,1.84375 -0.699219,0 -1.261719,-0.191406 -1.6875,-0.578125 -0.417969,-0.394531 -0.730469,-0.941406 -0.9375,-1.640625 -0.210937,-0.707031 -0.34375,-1.550781 -0.40625,-2.53125 -0.054687,-0.976563 -0.078125,-2.039063 -0.078125,-3.1875 z m -5.796875,0 c 0,1.960937 0.140625,3.6875 0.421875,5.1875 0.28125,1.5 0.753906,2.75 1.421875,3.75 0.675781,0.992187 1.585938,1.714844 2.734375,2.171875 1.144531,0.457031 2.585938,0.675781 4.328125,0.65625 1.65625,0 3.046875,-0.242187 4.171875,-0.71875 1.132813,-0.476563 2.050781,-1.210938 2.75,-2.203125 0.707031,-1 1.210938,-2.238281 1.515625,-3.71875 0.3125,-1.488281 0.46875,-3.195313 0.46875,-5.125 0,-1.988281 -0.140625,-3.722656 -0.421875,-5.203125 -0.28125,-1.488281 -0.761719,-2.734375 -1.4375,-3.734375 -0.667969,-1.007813 -1.574219,-1.757813 -2.71875,-2.25 -1.148437,-0.488281 -2.589844,-0.722656 -4.328125,-0.703125 -1.648437,0 -3.039062,0.261719 -4.171875,0.78125 -1.136719,0.523437 -2.058594,1.28125 -2.765625,2.28125 -0.699219,0.992187 -1.203125,2.226562 -1.515625,3.703125 -0.304687,1.480469 -0.453125,3.1875 -0.453125,5.125 z m 0,0"
           id="path1464" />
      </g>
      <g
         id="use335"
         transform="translate(86.987198,138.9404)">
        <path
           style="stroke:none"
           d="M 13.53125,-2.640625 V 0 h 5.53125 v -22.59375 h -5.796875 v 14.984375 c 0,2.5 -1.023437,3.75 -3.0625,3.75 -0.867187,0 -1.496094,-0.226563 -1.890625,-0.6875 -0.386719,-0.46875 -0.578125,-1.289063 -0.578125,-2.46875 V -22.59375 H 1.9375 v 16.75 c 0,2.273437 0.492188,3.890625 1.484375,4.859375 0.988281,0.96875 2.410156,1.453125 4.265625,1.453125 1.257813,0 2.378906,-0.242187 3.359375,-0.71875 0.976563,-0.476563 1.773438,-1.273438 2.390625,-2.390625 z m 0,0"
           id="path1468" />
      </g>
      <g
         id="use337"
         transform="translate(107.9872,138.9404)">
        <path
           style="stroke:none"
           d="M 1.9375,-22.59375 V 7.265625 H 7.734375 V -2.09375 H 7.8125 c 0.613281,0.898437 1.304688,1.546875 2.078125,1.953125 0.769531,0.40625 1.703125,0.609375 2.796875,0.609375 2.375,0 4.117188,-0.910156 5.234375,-2.734375 1.125,-1.820313 1.6875,-4.832031 1.6875,-9.03125 0,-4.195313 -0.5625,-7.226563 -1.6875,-9.09375 C 16.804688,-22.253906 15.0625,-23.1875 12.6875,-23.1875 c -1.179687,0 -2.167969,0.234375 -2.96875,0.703125 -0.792969,0.460937 -1.511719,1.21875 -2.15625,2.28125 H 7.46875 v -2.390625 z m 5.796875,11.296875 c 0,-2.46875 0.1875,-4.320313 0.5625,-5.5625 0.375,-1.25 1.207031,-1.875 2.5,-1.875 1.257813,0 2.078125,0.625 2.453125,1.875 0.375,1.242187 0.5625,3.09375 0.5625,5.5625 0,2.460937 -0.1875,4.3125 -0.5625,5.5625 -0.375,1.25 -1.195312,1.875 -2.453125,1.875 -1.292969,0 -2.125,-0.625 -2.5,-1.875 -0.375,-1.25 -0.5625,-3.101563 -0.5625,-5.5625 z m 0,0"
           id="path1472" />
      </g>
    </g>
  </g>
</svg>
