<?xml version="1.0" encoding="UTF-8" standalone="no"?>
<svg
   id="logo_svg__Layer_1"
   data-name="Layer 1"
   viewBox="0 0 180 65.95"
   class="Home_logo__80mSr"
   data-testid="logo"
   version="1.1"
   sodipodi:docname="worth-light.svg"
   inkscape:version="1.2.2 (b0a8486541, 2022-12-01)"
   xmlns:inkscape="http://www.inkscape.org/namespaces/inkscape"
   xmlns:sodipodi="http://sodipodi.sourceforge.net/DTD/sodipodi-0.dtd"
   xmlns="http://www.w3.org/2000/svg"
   xmlns:svg="http://www.w3.org/2000/svg">
  <sodipodi:namedview
     id="namedview422"
     pagecolor="#ffffff"
     bordercolor="#000000"
     borderopacity="0.25"
     inkscape:showpageshadow="2"
     inkscape:pageopacity="0.0"
     inkscape:pagecheckerboard="0"
     inkscape:deskcolor="#d1d1d1"
     showgrid="false"
     inkscape:zoom="7.2444444"
     inkscape:cx="88.68865"
     inkscape:cy="33.197853"
     inkscape:window-width="1920"
     inkscape:window-height="1004"
     inkscape:window-x="0"
     inkscape:window-y="0"
     inkscape:window-maximized="1"
     inkscape:current-layer="logo_svg__Layer_1" />
  <defs
     id="defs413">
    <style
       id="style409">.logo_svg__cls-1{fill:#fff}</style>
    <style
       class="darkreader darkreader--sync"
       media="screen"
       id="style411" />
  </defs>
  <path
     class="logo_svg__cls-1"
     d="M90.63 51.76c-.11 3.93-1.13 7-3.39 9.41a12.1 12.1 0 0 1-17.24 0c-2.26-2.4-3.22-5.51-3.39-9.41s-.08-12.69 0-16.77 1.12-7.36 3.35-9.83a11.14 11.14 0 0 1 8.65-3.7 11.18 11.18 0 0 1 8.72 3.66c2.2 2.43 3.26 5.86 3.3 9.87s.11 12.83 0 16.77Zm-6 .06c.06-2.19.08-14.42 0-16.83s-.53-4.27-1.58-5.55a5.42 5.42 0 0 0-4.46-1.93 5.31 5.31 0 0 0-4.39 1.93c-1 1.28-1.49 3.16-1.57 5.55s-.1 14.59 0 16.83A8.17 8.17 0 0 0 74.26 57a5.45 5.45 0 0 0 4.35 1.86A5.55 5.55 0 0 0 83 56.94a7.68 7.68 0 0 0 1.65-5.12ZM124.31 64.31h-7l-9.63-17.5h-3.29v17.5h-6V34a12.61 12.61 0 0 1 3.26-9.09 12.88 12.88 0 0 1 17.49 0 12.6 12.6 0 0 1 3.23 9.09 14.13 14.13 0 0 1-1.48 6.54 11.66 11.66 0 0 1-4.3 4.63 12 12 0 0 1-1.33.73 5.69 5.69 0 0 1-1.09.42Zm-8-30.35a6.77 6.77 0 0 0-1.61-4.76 6.34 6.34 0 0 0-8.75 0 7.23 7.23 0 0 0-1.56 4.8c-.07 1.95 0 6.81 0 6.81s4 .09 6 0a5.88 5.88 0 0 0 4.43-1.81 7.41 7.41 0 0 0 1.54-5ZM149.2 28h-9v36.31h-6V28h-9v-6h24ZM179.93 64.31h-6V46h-14.27v18.31h-6V22h6v18H174V22h6ZM56 23.27l-2.73.64c0 6.53.06 27.55 0 28.94a6 6 0 0 1-1.76 4.22 6 6 0 0 1-8.55 0 6.2 6.2 0 0 1-1.77-4.26c-.06-1.23 0-17.49 0-25.87-2 .52-4 1-6 1.62v24.31a6 6 0 0 1-1.74 4.22 5.71 5.71 0 0 1-4.21 1.76A5.84 5.84 0 0 1 25 57.07a6 6 0 0 1-1.77-4.22V32.27c-1.18.42-2.35.84-3.47 1.28-.8.3-1.66.64-2.53 1v18.23a12 12 0 0 0 3.52 8.48 11.85 11.85 0 0 0 13.36 2.44 12.6 12.6 0 0 0 4.13-3 12.52 12.52 0 0 0 4.11 3 11.85 11.85 0 0 0 13.36-2.43 12 12 0 0 0 3.51-8.48c.11-3.06 0-26.54 0-30.28Z"
     id="path415"
     style="fill:#012639;fill-opacity:1" />
  <path
     d="m87.8 11.9-28.18 6.38c-4.67 1.11-9.35 2.15-14 3.35s-9.27 2.37-13.84 3.7-9.11 2.76-13.51 4.46A47.43 47.43 0 0 0 6 36.15C4.34 37.52 3 39.22 2.79 41s1 3.79 2.53 5.4c3.2 3.31 7.49 5.71 11.68 8a54.88 54.88 0 0 1-6.78-2.63A29.4 29.4 0 0 1 3.89 48a13 13 0 0 1-2.63-3A7.75 7.75 0 0 1 0 40.92a8 8 0 0 1 1.25-4.17 15.12 15.12 0 0 1 2.59-3.1 31.09 31.09 0 0 1 6.23-4.38C12.26 28.06 14.5 27 16.76 26a139.88 139.88 0 0 1 13.84-4.8A246.07 246.07 0 0 1 59 15a253.35 253.35 0 0 1 28.8-3.1Z"
     style="fill: rgb(236, 0, 140); --darkreader-inline-fill: #ff27a7;"
     data-darkreader-inline-fill=""
     id="path417" />
  <path
     d="M102.66 2.1c-.78.14-1.54.29-2.29.46a2.61 2.61 0 0 0-.2-.3C97.19-1.43 86.68.48 86.78.61a17.47 17.47 0 0 1 3.16 5.27c-.71.31-1.38.64-2 1 .42 1.49.79 3.06 1.09 4.72s.51 3.27.65 4.81q1 .13 2.22.21a17.67 17.67 0 0 1-1.1 6c0 .16 10.46-1.77 11.94-6.27a2.58 2.58 0 0 0 .09-.35c.76-.11 1.52-.23 2.3-.38C116.89 13.5 125.19 5 125.19 5s-10.77-5-22.53-2.9Zm4.84 9.2a3 3 0 1 1 2.5-3.53 3 3 0 0 1-2.5 3.53Z"
     style="fill: rgb(146, 146, 152); --darkreader-inline-fill: #a59d92;"
     data-darkreader-inline-fill=""
     id="path419" />
</svg>
